Lateef-ExtraLight.ufo
<glyph name="exclam" format="2">
  <advance width="334"/>
  <unicode hex="0021"/>
  <outline>
    <component base="_dot_punct" yOffset="72"/>
    <contour>
      <point x="215" y="1100" type="curve"/>
      <point x="118" y="1048" type="line"/>
      <point x="114" y="804"/>
      <point x="110" y="483"/>
      <point x="149" y="248" type="curve"/>
      <point x="174" y="254" type="line"/>
      <point x="178" y="513"/>
      <point x="163" y="825"/>
    </contour>
  </outline>
</glyph>
<glyph name="ampersand" format="2">
  <advance width="1094"/>
  <unicode hex="0026"/>
  <note>
ampersand
</note>
  <outline>
    <contour>
      <point x="393" y="-11" type="curve" smooth="yes"/>
      <point x="614" y="-11"/>
      <point x="746" y="146"/>
      <point x="906" y="451" type="curve"/>
      <point x="1019" y="470" type="line"/>
      <point x="1017" y="521" type="line"/>
      <point x="699" y="520" type="line"/>
      <point x="696" y="468" type="line"/>
      <point x="808" y="451" type="line"/>
      <point x="696" y="149"/>
      <point x="579" y="60"/>
      <point x="418" y="60" type="curve" smooth="yes"/>
      <point x="279" y="60"/>
      <point x="171" y="138"/>
      <point x="171" y="261" type="curve" smooth="yes"/>
      <point x="171" y="357"/>
      <point x="213" y="428"/>
      <point x="359" y="511" type="curve"/>
      <point x="637" y="661"/>
      <point x="711" y="755"/>
      <point x="711" y="881" type="curve" smooth="yes"/>
      <point x="711" y="999"/>
      <point x="616" y="1072"/>
      <point x="497" y="1072" type="curve" smooth="yes"/>
      <point x="343" y="1072"/>
      <point x="242" y="946"/>
      <point x="242" y="804" type="curve" smooth="yes"/>
      <point x="242" y="619"/>
      <point x="333" y="497"/>
      <point x="468" y="311" type="curve" smooth="yes"/>
      <point x="633" y="85"/>
      <point x="763" y="-11"/>
      <point x="910" y="-11" type="curve" smooth="yes"/>
      <point x="996" y="-11"/>
      <point x="1062" y="17"/>
      <point x="1110" y="73" type="curve"/>
      <point x="1093" y="105" type="line"/>
      <point x="1038" y="72"/>
      <point x="1004" y="60"/>
      <point x="945" y="60" type="curve" smooth="yes"/>
      <point x="818" y="60"/>
      <point x="680" y="160"/>
      <point x="511" y="402" type="curve" smooth="yes"/>
      <point x="415" y="547"/>
      <point x="337" y="661"/>
      <point x="337" y="816" type="curve" smooth="yes"/>
      <point x="337" y="946"/>
      <point x="407" y="1014"/>
      <point x="495" y="1014" type="curve" smooth="yes"/>
      <point x="563" y="1014"/>
      <point x="622" y="959"/>
      <point x="622" y="860" type="curve" smooth="yes"/>
      <point x="622" y="757"/>
      <point x="542" y="658"/>
      <point x="353" y="569" type="curve"/>
      <point x="97" y="441"/>
      <point x="65" y="316"/>
      <point x="65" y="229" type="curve" smooth="yes"/>
      <point x="65" y="105"/>
      <point x="162" y="-11"/>
    </contour>
  </outline>
</glyph>
<glyph name="plus" format="2">
  <advance width="866"/>
  <unicode hex="002B"/>
  <outline>
    <contour>
      <point x="776" y="446" type="line"/>
      <point x="91" y="446" type="line"/>
      <point x="91" y="365" type="line"/>
      <point x="776" y="365" type="line"/>
    </contour>
    <contour>
      <point x="394" y="755" type="line"/>
      <point x="394" y="59" type="line"/>
      <point x="473" y="59" type="line"/>
      <point x="473" y="755" type="line"/>
    </contour>
  </outline>
</glyph>
<glyph name="hyphen" format="2">
  <advance width="582"/>
  <unicode hex="002D"/>
  <note>
hyphen
</note>
  <outline>
    <contour>
      <point x="131" y="288" type="line"/>
      <point x="451" y="332" type="line"/>
      <point x="451" y="417" type="line"/>
      <point x="131" y="375" type="line"/>
    </contour>
  </outline>
</glyph>
<glyph name="period" format="2">
  <advance width="335"/>
  <unicode hex="002E"/>
  <note>
period
</note>
  <outline>
    <contour>
      <point x="166" y="-16" type="curve" smooth="yes"/>
      <point x="213" y="-16"/>
      <point x="245" y="16"/>
      <point x="245" y="59" type="curve" smooth="yes"/>
      <point x="245" y="101"/>
      <point x="213" y="131"/>
      <point x="166" y="131" type="curve" smooth="yes"/>
      <point x="121" y="131"/>
      <point x="89" y="101"/>
      <point x="89" y="59" type="curve" smooth="yes"/>
      <point x="89" y="16"/>
      <point x="121" y="-16"/>
    </contour>
  </outline>
</glyph>
<glyph name="slash" format="2">
  <advance width="548"/>
  <unicode hex="002F"/>
  <note>
slash
</note>
  <outline>
    <contour>
      <point x="24" y="-288" type="line"/>
      <point x="105" y="-288" type="line"/>
      <point x="589" y="1168" type="line"/>
      <point x="507" y="1168" type="line"/>
    </contour>
  </outline>
</glyph>
<glyph name="zero" format="2">
  <advance width="801"/>
  <unicode hex="0030"/>
  <note>
zero
</note>
  <outline>
    <contour>
      <point x="407" y="-14" type="curve" smooth="yes"/>
      <point x="586" y="-14"/>
      <point x="717" y="200"/>
      <point x="717" y="475" type="curve" smooth="yes"/>
      <point x="717" y="760"/>
      <point x="596" y="956"/>
      <point x="410" y="956" type="curve" smooth="yes"/>
      <point x="220" y="956"/>
      <point x="83" y="751"/>
      <point x="83" y="470" type="curve" smooth="yes"/>
      <point x="83" y="181"/>
      <point x="207" y="-14"/>
    </contour>
    <contour>
      <point x="412" y="46" type="curve" smooth="yes"/>
      <point x="278" y="46"/>
      <point x="198" y="224"/>
      <point x="198" y="492" type="curve" smooth="yes"/>
      <point x="198" y="743"/>
      <point x="266" y="892"/>
      <point x="401" y="892" type="curve" smooth="yes"/>
      <point x="530" y="892"/>
      <point x="606" y="720"/>
      <point x="606" y="438" type="curve" smooth="yes"/>
      <point x="606" y="208"/>
      <point x="531" y="46"/>
    </contour>
  </outline>
</glyph>
<glyph name="one" format="2">
  <advance width="801"/>
  <unicode hex="0031"/>
  <note>
one
</note>
  <outline>
    <contour>
      <point x="447" y="296" type="curve" smooth="yes"/>
      <point x="447" y="691" type="line" smooth="yes"/>
      <point x="447" y="837"/>
      <point x="447" y="906"/>
      <point x="450" y="956" type="curve"/>
      <point x="222" y="849" type="line"/>
      <point x="227" y="794" type="line"/>
      <point x="354" y="824" type="line"/>
      <point x="359" y="767"/>
      <point x="362" y="715"/>
      <point x="362" y="669" type="curve" smooth="yes"/>
      <point x="362" y="296" type="line" smooth="yes"/>
      <point x="362" y="166"/>
      <point x="357" y="88"/>
      <point x="355" y="69" type="curve"/>
      <point x="233" y="48" type="line"/>
      <point x="237" y="0" type="line"/>
      <point x="575" y="0" type="line"/>
      <point x="578" y="48" type="line"/>
      <point x="453" y="69" type="line"/>
      <point x="450" y="80"/>
      <point x="447" y="128"/>
    </contour>
  </outline>
</glyph>
<glyph name="two" format="2">
  <advance width="801"/>
  <unicode hex="0032"/>
  <note>
two
</note>
  <outline>
    <contour>
      <point x="116" y="-3" type="line"/>
      <point x="153" y="-1"/>
      <point x="193" y="0"/>
      <point x="233" y="0" type="curve" smooth="yes"/>
      <point x="554" y="0" type="line" smooth="yes"/>
      <point x="631" y="0"/>
      <point x="647" y="-1"/>
      <point x="694" y="-6" type="curve"/>
      <point x="721" y="240" type="line"/>
      <point x="673" y="245" type="line"/>
      <point x="618" y="101" type="line"/>
      <point x="615" y="97"/>
      <point x="591" y="96"/>
      <point x="578" y="96" type="curve" smooth="yes"/>
      <point x="212" y="96" type="line"/>
      <point x="203" y="69" type="line"/>
      <point x="500" y="301"/>
      <point x="644" y="511"/>
      <point x="644" y="686" type="curve" smooth="yes"/>
      <point x="644" y="849"/>
      <point x="528" y="956"/>
      <point x="358" y="956" type="curve" smooth="yes"/>
      <point x="233" y="956"/>
      <point x="129" y="879"/>
      <point x="79" y="760" type="curve"/>
      <point x="111" y="738" type="line"/>
      <point x="167" y="823"/>
      <point x="248" y="869"/>
      <point x="339" y="869" type="curve" smooth="yes"/>
      <point x="466" y="869"/>
      <point x="536" y="786"/>
      <point x="536" y="659" type="curve" smooth="yes"/>
      <point x="536" y="486"/>
      <point x="429" y="327"/>
      <point x="110" y="40" type="curve"/>
    </contour>
  </outline>
</glyph>
<glyph name="three" format="2">
  <advance width="801"/>
  <unicode hex="0033"/>
  <note>
three
</note>
  <outline>
    <contour>
      <point x="427" y="508" type="line"/>
      <point x="547" y="555"/>
      <point x="623" y="643"/>
      <point x="623" y="749" type="curve" smooth="yes"/>
      <point x="623" y="873"/>
      <point x="525" y="956"/>
      <point x="379" y="956" type="curve" smooth="yes"/>
      <point x="263" y="956"/>
      <point x="157" y="893"/>
      <point x="111" y="792" type="curve"/>
      <point x="143" y="768" type="line"/>
      <point x="200" y="839"/>
      <point x="271" y="869"/>
      <point x="347" y="869" type="curve" smooth="yes"/>
      <point x="457" y="869"/>
      <point x="526" y="815"/>
      <point x="526" y="717" type="curve" smooth="yes"/>
      <point x="526" y="600"/>
      <point x="446" y="532"/>
      <point x="271" y="513" type="curve"/>
      <point x="278" y="454" type="line"/>
      <point x="313" y="459"/>
      <point x="345" y="460"/>
      <point x="377" y="460" type="curve" smooth="yes"/>
      <point x="510" y="460"/>
      <point x="594" y="383"/>
      <point x="594" y="261" type="curve" smooth="yes"/>
      <point x="594" y="112"/>
      <point x="454" y="24"/>
      <point x="269" y="48" type="curve"/>
      <point x="358" y="27" type="line"/>
      <point x="265" y="104" type="line" smooth="yes"/>
      <point x="223" y="136"/>
      <point x="207" y="144"/>
      <point x="175" y="144" type="curve" smooth="yes"/>
      <point x="148" y="144"/>
      <point x="123" y="120"/>
      <point x="123" y="94" type="curve" smooth="yes"/>
      <point x="123" y="30"/>
      <point x="208" y="-14"/>
      <point x="337" y="-14" type="curve" smooth="yes"/>
      <point x="518" y="-14"/>
      <point x="690" y="118"/>
      <point x="690" y="284" type="curve" smooth="yes"/>
      <point x="690" y="426"/>
      <point x="582" y="515"/>
      <point x="416" y="523" type="curve"/>
    </contour>
  </outline>
</glyph>
<glyph name="four" format="2">
  <advance width="801"/>
  <unicode hex="0034"/>
  <note>
four
</note>
  <outline>
    <contour>
      <point x="584" y="277" type="curve"/>
      <point x="583" y="727" type="line"/>
      <point x="583" y="802"/>
      <point x="584" y="871"/>
      <point x="588" y="948" type="curve"/>
      <point x="557" y="948" type="line"/>
      <point x="71" y="322" type="line"/>
      <point x="80" y="277" type="line"/>
      <point x="730" y="277" type="line"/>
      <point x="730" y="362" type="line"/>
      <point x="157" y="362" type="line"/>
      <point x="154" y="329" type="line"/>
      <point x="541" y="834" type="line"/>
      <point x="501" y="834" type="line"/>
      <point x="501" y="277" type="line"/>
      <point x="501" y="130"/>
      <point x="501" y="89"/>
      <point x="499" y="69" type="curve"/>
      <point x="374" y="48" type="line"/>
      <point x="377" y="0" type="line"/>
      <point x="679" y="0" type="line"/>
      <point x="682" y="48" type="line"/>
      <point x="588" y="69" type="line"/>
      <point x="586" y="89"/>
      <point x="584" y="130"/>
    </contour>
  </outline>
</glyph>
<glyph name="five" format="2">
  <advance width="801"/>
  <unicode hex="0035"/>
  <note>
five
</note>
  <outline>
    <contour>
      <point x="326" y="-14" type="curve" smooth="yes"/>
      <point x="507" y="-14"/>
      <point x="684" y="107"/>
      <point x="684" y="276" type="curve" smooth="yes"/>
      <point x="684" y="442"/>
      <point x="559" y="536"/>
      <point x="230" y="577" type="curve"/>
      <point x="271" y="511" type="line"/>
      <point x="307" y="839" type="line"/>
      <point x="631" y="839" type="line"/>
      <point x="642" y="942" type="line"/>
      <point x="247" y="942" type="line"/>
      <point x="193" y="494" type="line"/>
      <point x="510" y="446"/>
      <point x="584" y="390"/>
      <point x="584" y="250" type="curve" smooth="yes"/>
      <point x="584" y="109"/>
      <point x="448" y="20"/>
      <point x="263" y="48" type="curve"/>
      <point x="352" y="27" type="line"/>
      <point x="254" y="104" type="line" smooth="yes"/>
      <point x="215" y="136"/>
      <point x="202" y="144"/>
      <point x="169" y="144" type="curve" smooth="yes"/>
      <point x="138" y="144"/>
      <point x="117" y="121"/>
      <point x="117" y="94" type="curve" smooth="yes"/>
      <point x="117" y="30"/>
      <point x="202" y="-14"/>
    </contour>
  </outline>
</glyph>
<glyph name="six" format="2">
  <advance width="801"/>
  <unicode hex="0036"/>
  <note>
six
</note>
  <outline>
    <contour>
      <point x="187" y="378" type="curve"/>
      <point x="195" y="332" type="line"/>
      <point x="248" y="417"/>
      <point x="316" y="457"/>
      <point x="397" y="457" type="curve" smooth="yes"/>
      <point x="515" y="457"/>
      <point x="595" y="372"/>
      <point x="595" y="255" type="curve" smooth="yes"/>
      <point x="595" y="131"/>
      <point x="521" y="49"/>
      <point x="418" y="49" type="curve" smooth="yes"/>
      <point x="282" y="49"/>
      <point x="206" y="160"/>
      <point x="206" y="345" type="curve" smooth="yes"/>
      <point x="206" y="637"/>
      <point x="365" y="836"/>
      <point x="646" y="911" type="curve"/>
      <point x="625" y="971" type="line"/>
      <point x="312" y="903"/>
      <point x="97" y="659"/>
      <point x="97" y="330" type="curve" smooth="yes"/>
      <point x="97" y="112"/>
      <point x="221" y="-14"/>
      <point x="409" y="-14" type="curve" smooth="yes"/>
      <point x="566" y="-14"/>
      <point x="704" y="121"/>
      <point x="704" y="279" type="curve" smooth="yes"/>
      <point x="704" y="431"/>
      <point x="585" y="539"/>
      <point x="429" y="539" type="curve" smooth="yes"/>
      <point x="327" y="539"/>
      <point x="234" y="481"/>
    </contour>
  </outline>
</glyph>
<glyph name="seven" format="2">
  <advance width="801"/>
  <unicode hex="0037"/>
  <note>
seven
</note>
  <outline>
    <contour>
      <point x="363" y="0" type="line"/>
      <point x="734" y="900" type="line"/>
      <point x="728" y="943" type="line"/>
      <point x="688" y="943"/>
      <point x="644" y="942"/>
      <point x="606" y="942" type="curve" smooth="yes"/>
      <point x="240" y="942" type="line" smooth="yes"/>
      <point x="171" y="942"/>
      <point x="156" y="943"/>
      <point x="110" y="948" type="curve"/>
      <point x="66" y="701" type="line"/>
      <point x="113" y="693" type="line"/>
      <point x="174" y="834" type="line"/>
      <point x="180" y="837"/>
      <point x="198" y="839"/>
      <point x="221" y="839" type="curve" smooth="yes"/>
      <point x="659" y="839" type="line"/>
      <point x="659" y="890" type="line"/>
      <point x="262" y="40" type="line"/>
      <point x="262" y="0" type="line"/>
    </contour>
  </outline>
</glyph>
<glyph name="eight" format="2">
  <advance width="801"/>
  <unicode hex="0038"/>
  <note>
eight
</note>
  <outline>
    <contour>
      <point x="394" y="-14" type="curve" smooth="yes"/>
      <point x="579" y="-14"/>
      <point x="703" y="97"/>
      <point x="703" y="247" type="curve" smooth="yes"/>
      <point x="703" y="534"/>
      <point x="226" y="478"/>
      <point x="226" y="739" type="curve" smooth="yes"/>
      <point x="226" y="839"/>
      <point x="301" y="898"/>
      <point x="394" y="898" type="curve" smooth="yes"/>
      <point x="513" y="898"/>
      <point x="579" y="820"/>
      <point x="579" y="707" type="curve" smooth="yes"/>
      <point x="579" y="624"/>
      <point x="548" y="560"/>
      <point x="476" y="492" type="curve"/>
      <point x="518" y="471" type="line"/>
      <point x="608" y="528"/>
      <point x="672" y="613"/>
      <point x="672" y="725" type="curve" smooth="yes"/>
      <point x="672" y="855"/>
      <point x="553" y="956"/>
      <point x="407" y="956" type="curve" smooth="yes"/>
      <point x="256" y="956"/>
      <point x="134" y="852"/>
      <point x="134" y="715" type="curve" smooth="yes"/>
      <point x="134" y="409"/>
      <point x="606" y="476"/>
      <point x="606" y="213" type="curve" smooth="yes"/>
      <point x="606" y="110"/>
      <point x="534" y="49"/>
      <point x="412" y="49" type="curve" smooth="yes"/>
      <point x="264" y="49"/>
      <point x="191" y="141"/>
      <point x="191" y="242" type="curve" smooth="yes"/>
      <point x="191" y="327"/>
      <point x="244" y="407"/>
      <point x="383" y="463" type="curve"/>
      <point x="319" y="478" type="line"/>
      <point x="184" y="444"/>
      <point x="97" y="356"/>
      <point x="97" y="229" type="curve" smooth="yes"/>
      <point x="97" y="89"/>
      <point x="215" y="-14"/>
    </contour>
  </outline>
</glyph>
<glyph name="question" format="2">
  <advance width="556"/>
  <unicode hex="003F"/>
  <note>
question
</note>
  <outline>
    <contour>
      <point x="176" y="258" type="curve"/>
      <point x="226" y="258" type="line"/>
      <point x="219" y="279"/>
      <point x="215" y="314"/>
      <point x="215" y="351" type="curve" smooth="yes"/>
      <point x="215" y="529"/>
      <point x="471" y="589"/>
      <point x="471" y="796" type="curve" smooth="yes"/>
      <point x="471" y="999"/>
      <point x="351" y="1120"/>
      <point x="141" y="1120" type="curve" smooth="yes"/>
      <point x="60" y="1120"/>
      <point x="28" y="1088"/>
      <point x="28" y="1054" type="curve" smooth="yes"/>
      <point x="28" y="1028"/>
      <point x="48" y="999"/>
      <point x="97" y="999" type="curve" smooth="yes"/>
      <point x="139" y="999"/>
      <point x="170" y="1027"/>
      <point x="231" y="1027" type="curve" smooth="yes"/>
      <point x="327" y="1027"/>
      <point x="394" y="961"/>
      <point x="394" y="863" type="curve" smooth="yes"/>
      <point x="394" y="675"/>
      <point x="126" y="571"/>
      <point x="126" y="407" type="curve" smooth="yes"/>
      <point x="126" y="356"/>
      <point x="138" y="316"/>
    </contour>
    <contour>
      <point x="203" y="-16" type="curve" smooth="yes"/>
      <point x="248" y="-16"/>
      <point x="280" y="16"/>
      <point x="280" y="59" type="curve" smooth="yes"/>
      <point x="280" y="101"/>
      <point x="248" y="131"/>
      <point x="203" y="131" type="curve" smooth="yes"/>
      <point x="158" y="131"/>
      <point x="126" y="101"/>
      <point x="126" y="59" type="curve" smooth="yes"/>
      <point x="126" y="14"/>
      <point x="158" y="-16"/>
    </contour>
  </outline>
</glyph>
<glyph name="at" format="2">
  <advance width="1399"/>
  <unicode hex="0040"/>
  <note>
at
</note>
  <outline>
    <contour>
      <point x="711" y="-364" type="curve" smooth="yes"/>
      <point x="798" y="-364"/>
      <point x="921" y="-338"/>
      <point x="984" y="-301" type="curve"/>
      <point x="965" y="-253" type="line"/>
      <point x="883" y="-290"/>
      <point x="796" y="-303"/>
      <point x="717" y="-303" type="curve" smooth="yes"/>
      <point x="385" y="-303"/>
      <point x="205" y="-72"/>
      <point x="205" y="282" type="curve" smooth="yes"/>
      <point x="205" y="630"/>
      <point x="425" y="885"/>
      <point x="777" y="885" type="curve" smooth="yes"/>
      <point x="1040" y="885"/>
      <point x="1220" y="725"/>
      <point x="1220" y="465" type="curve" smooth="yes"/>
      <point x="1220" y="227"/>
      <point x="1114" y="48"/>
      <point x="977" y="48" type="curve"/>
      <point x="968" y="80"/>
      <point x="963" y="117"/>
      <point x="963" y="163" type="curve"/>
      <point x="966" y="476" type="line"/>
      <point x="965" y="606"/>
      <point x="867" y="694"/>
      <point x="725" y="694" type="curve"/>
      <point x="607" y="678"/>
      <point x="489" y="598"/>
      <point x="489" y="534" type="curve" smooth="yes"/>
      <point x="489" y="499"/>
      <point x="522" y="476"/>
      <point x="565" y="476" type="curve" smooth="yes"/>
      <point x="578" y="476"/>
      <point x="591" y="479"/>
      <point x="605" y="483" type="curve"/>
      <point x="607" y="534" type="line" smooth="yes"/>
      <point x="610" y="611"/>
      <point x="626" y="629"/>
      <point x="688" y="629" type="curve" smooth="yes"/>
      <point x="796" y="629"/>
      <point x="879" y="564"/>
      <point x="879" y="478" type="curve" smooth="yes"/>
      <point x="879" y="385" type="line"/>
      <point x="639" y="300" type="line" smooth="yes"/>
      <point x="528" y="261"/>
      <point x="486" y="221"/>
      <point x="486" y="152" type="curve" smooth="yes"/>
      <point x="486" y="62"/>
      <point x="583" y="-12"/>
      <point x="698" y="-12" type="curve" smooth="yes"/>
      <point x="766" y="-12"/>
      <point x="826" y="20"/>
      <point x="900" y="101" type="curve"/>
      <point x="881" y="96" type="line"/>
      <point x="892" y="38" type="line" smooth="yes"/>
      <point x="899" y="6"/>
      <point x="915" y="-12"/>
      <point x="950" y="-12" type="curve" smooth="yes"/>
      <point x="1123" y="-12"/>
      <point x="1310" y="219"/>
      <point x="1310" y="463" type="curve" smooth="yes"/>
      <point x="1310" y="767"/>
      <point x="1082" y="948"/>
      <point x="777" y="948" type="curve" smooth="yes"/>
      <point x="367" y="948"/>
      <point x="98" y="653"/>
      <point x="98" y="263" type="curve" smooth="yes"/>
      <point x="98" y="-113"/>
      <point x="339" y="-364"/>
    </contour>
    <contour>
      <point x="722" y="57" type="curve" smooth="yes"/>
      <point x="655" y="57"/>
      <point x="592" y="110"/>
      <point x="592" y="166" type="curve" smooth="yes"/>
      <point x="592" y="211"/>
      <point x="613" y="240"/>
      <point x="664" y="255" type="curve" smooth="yes"/>
      <point x="879" y="317" type="line"/>
      <point x="879" y="142" type="line"/>
      <point x="831" y="85"/>
      <point x="782" y="57"/>
    </contour>
  </outline>
</glyph>
<glyph name="C" format="2">
  <advance width="956"/>
  <unicode hex="0043"/>
  <note>
C
</note>
  <anchor x="558" y="942" name="above"/>
  <anchor x="558" y="0" name="below"/>
  <outline>
    <contour>
      <point x="585" y="-14" type="curve" smooth="yes"/>
      <point x="691" y="-14"/>
      <point x="784" y="14"/>
      <point x="863" y="51" type="curve"/>
      <point x="906" y="247" type="line"/>
      <point x="850" y="253" type="line"/>
      <point x="772" y="99" type="line"/>
      <point x="714" y="70"/>
      <point x="667" y="57"/>
      <point x="592" y="57" type="curve" smooth="yes"/>
      <point x="383" y="57"/>
      <point x="215" y="205"/>
      <point x="215" y="491" type="curve" smooth="yes"/>
      <point x="215" y="693"/>
      <point x="319" y="885"/>
      <point x="587" y="885" type="curve" smooth="yes"/>
      <point x="651" y="885"/>
      <point x="738" y="871"/>
      <point x="780" y="839" type="curve"/>
      <point x="823" y="694" type="line"/>
      <point x="882" y="701" type="line"/>
      <point x="871" y="908" type="line"/>
      <point x="789" y="940"/>
      <point x="682" y="956"/>
      <point x="601" y="956" type="curve" smooth="yes"/>
      <point x="263" y="956"/>
      <point x="89" y="717"/>
      <point x="89" y="468" type="curve" smooth="yes"/>
      <point x="89" y="142"/>
      <point x="324" y="-14"/>
    </contour>
  </outline>
</glyph>
<glyph name="E" format="2">
  <advance width="874"/>
  <unicode hex="0045"/>
  <note>
E
</note>
  <anchor x="441" y="942" name="above"/>
  <anchor x="441" y="0" name="below"/>
  <anchor x="759" y="0" name="ogonek"/>
  <anchor x="40" y="942" name="topleft"/>
  <outline>
    <contour>
      <point x="755" y="-8" type="curve"/>
      <point x="816" y="215" type="line"/>
      <point x="755" y="227" type="line"/>
      <point x="674" y="78" type="line"/>
      <point x="661" y="73"/>
      <point x="624" y="72"/>
      <point x="560" y="72" type="curve" smooth="yes"/>
      <point x="370" y="72" type="line" smooth="yes"/>
      <point x="340" y="72"/>
      <point x="312" y="73"/>
      <point x="287" y="77" type="curve"/>
      <point x="285" y="91"/>
      <point x="284" y="170"/>
      <point x="284" y="215" type="curve" smooth="yes"/>
      <point x="284" y="694" type="line" smooth="yes"/>
      <point x="284" y="754"/>
      <point x="285" y="858"/>
      <point x="287" y="868" type="curve"/>
      <point x="317" y="871"/>
      <point x="341" y="873"/>
      <point x="381" y="873" type="curve" smooth="yes"/>
      <point x="593" y="873" type="line" smooth="yes"/>
      <point x="617" y="873"/>
      <point x="638" y="871"/>
      <point x="650" y="869" type="curve"/>
      <point x="701" y="738" type="line"/>
      <point x="763" y="747" type="line"/>
      <point x="736" y="948" type="line"/>
      <point x="669" y="942"/>
      <point x="651" y="942"/>
      <point x="616" y="942" type="curve" smooth="yes"/>
      <point x="89" y="942" type="line"/>
      <point x="86" y="890" type="line"/>
      <point x="182" y="869" type="line"/>
      <point x="186" y="857"/>
      <point x="187" y="784"/>
      <point x="187" y="637" type="curve" smooth="yes"/>
      <point x="187" y="303" type="line" smooth="yes"/>
      <point x="187" y="157"/>
      <point x="186" y="88"/>
      <point x="182" y="72" type="curve"/>
      <point x="86" y="51" type="line"/>
      <point x="89" y="0" type="line"/>
      <point x="640" y="0" type="line"/>
      <point x="669" y="0"/>
      <point x="688" y="0"/>
    </contour>
    <contour>
      <point x="590" y="332" type="line"/>
      <point x="648" y="332" type="line"/>
      <point x="648" y="638" type="line"/>
      <point x="590" y="638" type="line"/>
      <point x="569" y="524" type="line"/>
      <point x="558" y="520"/>
      <point x="536" y="520"/>
      <point x="503" y="520" type="curve" smooth="yes"/>
      <point x="364" y="520" type="line" smooth="yes"/>
      <point x="340" y="520"/>
      <point x="308" y="520"/>
      <point x="264" y="521" type="curve"/>
      <point x="264" y="446" type="line"/>
      <point x="308" y="447"/>
      <point x="340" y="449"/>
      <point x="364" y="449" type="curve" smooth="yes"/>
      <point x="503" y="449" type="line" smooth="yes"/>
      <point x="536" y="449"/>
      <point x="558" y="447"/>
      <point x="569" y="442" type="curve"/>
    </contour>
  </outline>
</glyph>
<glyph name="G" format="2">
  <advance width="1033"/>
  <unicode hex="0047"/>
  <note>
G
</note>
  <anchor x="566" y="942" name="above"/>
  <anchor x="566" y="0" name="below"/>
  <outline>
    <contour>
      <point x="605" y="-14" type="curve" smooth="yes"/>
      <point x="702" y="-14"/>
      <point x="832" y="20"/>
      <point x="911" y="73" type="curve"/>
      <point x="908" y="120"/>
      <point x="906" y="166"/>
      <point x="906" y="263" type="curve" smooth="yes"/>
      <point x="906" y="325"/>
      <point x="906" y="362"/>
      <point x="906" y="372" type="curve"/>
      <point x="974" y="388" type="line"/>
      <point x="971" y="439" type="line"/>
      <point x="701" y="439" type="line"/>
      <point x="698" y="385" type="line"/>
      <point x="804" y="370" type="line"/>
      <point x="807" y="343"/>
      <point x="810" y="285"/>
      <point x="810" y="205" type="curve" smooth="yes"/>
      <point x="810" y="36" type="line"/>
      <point x="853" y="128" type="line"/>
      <point x="784" y="77"/>
      <point x="686" y="56"/>
      <point x="611" y="56" type="curve" smooth="yes"/>
      <point x="383" y="56"/>
      <point x="213" y="205"/>
      <point x="213" y="491" type="curve" smooth="yes"/>
      <point x="213" y="693"/>
      <point x="317" y="885"/>
      <point x="593" y="885" type="curve" smooth="yes"/>
      <point x="662" y="885"/>
      <point x="749" y="871"/>
      <point x="788" y="839" type="curve"/>
      <point x="832" y="699" type="line"/>
      <point x="890" y="707" type="line"/>
      <point x="877" y="908" type="line"/>
      <point x="800" y="940"/>
      <point x="690" y="956"/>
      <point x="606" y="956" type="curve" smooth="yes"/>
      <point x="264" y="956"/>
      <point x="88" y="715"/>
      <point x="88" y="468" type="curve" smooth="yes"/>
      <point x="88" y="142"/>
      <point x="321" y="-14"/>
    </contour>
  </outline>
</glyph>
<glyph name="P" format="2">
  <advance width="786"/>
  <unicode hex="0050"/>
  <note>
P
</note>
  <anchor x="383" y="942" name="above"/>
  <anchor x="239" y="0" name="below"/>
  <outline>
    <contour>
      <point x="94" y="0" type="line"/>
      <point x="422" y="0" type="line"/>
      <point x="425" y="54" type="line"/>
      <point x="290" y="75" type="line"/>
      <point x="288" y="89"/>
      <point x="285" y="112"/>
      <point x="285" y="295" type="curve"/>
      <point x="284" y="653" type="line"/>
      <point x="284" y="747"/>
      <point x="285" y="861"/>
      <point x="287" y="881" type="curve"/>
      <point x="391" y="881" type="line" smooth="yes"/>
      <point x="511" y="881"/>
      <point x="606" y="808"/>
      <point x="606" y="653" type="curve" smooth="yes"/>
      <point x="606" y="513"/>
      <point x="523" y="455"/>
      <point x="386" y="455" type="curve" smooth="yes"/>
      <point x="353" y="455"/>
      <point x="317" y="459"/>
      <point x="260" y="475" type="curve"/>
      <point x="260" y="401" type="line"/>
      <point x="296" y="394"/>
      <point x="338" y="388"/>
      <point x="393" y="388" type="curve" smooth="yes"/>
      <point x="553" y="388"/>
      <point x="709" y="492"/>
      <point x="709" y="672" type="curve" smooth="yes"/>
      <point x="709" y="845"/>
      <point x="587" y="942"/>
      <point x="399" y="942" type="curve" smooth="yes"/>
      <point x="89" y="942" type="line"/>
      <point x="86" y="890" type="line"/>
      <point x="182" y="865" type="line"/>
      <point x="184" y="857"/>
      <point x="189" y="829"/>
      <point x="189" y="653" type="curve"/>
      <point x="187" y="295" type="line"/>
      <point x="187" y="112"/>
      <point x="184" y="83"/>
      <point x="182" y="72" type="curve"/>
      <point x="91" y="51" type="line"/>
    </contour>
  </outline>
</glyph>
<glyph name="bracketleft" format="2">
  <advance width="503"/>
  <unicode hex="005B"/>
  <note>
bracketleft
</note>
  <outline>
    <contour>
      <point x="420" y="-353" type="line"/>
      <point x="420" y="-287" type="line"/>
      <point x="272" y="-287" type="line"/>
      <point x="272" y="1093" type="line"/>
      <point x="420" y="1093" type="line"/>
      <point x="420" y="1158" type="line"/>
      <point x="179" y="1158" type="line"/>
      <point x="179" y="-353" type="line"/>
    </contour>
  </outline>
</glyph>
<glyph name="a" format="2">
  <advance width="746"/>
  <unicode hex="0061"/>
  <note>
a
</note>
  <anchor x="362" y="682" name="above"/>
  <anchor x="393" y="0" name="below"/>
  <anchor x="664" y="0" name="ogonek"/>
  <outline>
    <contour>
      <point x="324" y="-12" type="curve" smooth="yes"/>
      <point x="391" y="-12"/>
      <point x="452" y="20"/>
      <point x="526" y="101" type="curve"/>
      <point x="507" y="96" type="line"/>
      <point x="518" y="38" type="line" smooth="yes"/>
      <point x="524" y="6"/>
      <point x="545" y="-12"/>
      <point x="571" y="-12" type="curve" smooth="yes"/>
      <point x="584" y="-12"/>
      <point x="606" y="-4"/>
      <point x="632" y="3" type="curve" smooth="yes"/>
      <point x="699" y="25" type="line"/>
      <point x="699" y="65" type="line"/>
      <point x="598" y="85" type="line"/>
      <point x="593" y="102"/>
      <point x="589" y="154"/>
      <point x="589" y="184" type="curve"/>
      <point x="592" y="476" type="line"/>
      <point x="590" y="606"/>
      <point x="492" y="694"/>
      <point x="351" y="694" type="curve"/>
      <point x="232" y="678"/>
      <point x="115" y="598"/>
      <point x="115" y="534" type="curve" smooth="yes"/>
      <point x="115" y="489"/>
      <point x="168" y="465"/>
      <point x="231" y="483" type="curve"/>
      <point x="232" y="534" type="line" smooth="yes"/>
      <point x="235" y="611"/>
      <point x="251" y="629"/>
      <point x="314" y="629" type="curve" smooth="yes"/>
      <point x="422" y="629"/>
      <point x="505" y="564"/>
      <point x="505" y="478" type="curve" smooth="yes"/>
      <point x="505" y="385" type="line"/>
      <point x="264" y="300" type="line" smooth="yes"/>
      <point x="154" y="261"/>
      <point x="112" y="221"/>
      <point x="112" y="152" type="curve" smooth="yes"/>
      <point x="112" y="62"/>
      <point x="208" y="-12"/>
    </contour>
    <contour>
      <point x="348" y="57" type="curve" smooth="yes"/>
      <point x="280" y="57"/>
      <point x="218" y="110"/>
      <point x="218" y="166" type="curve" smooth="yes"/>
      <point x="218" y="211"/>
      <point x="239" y="240"/>
      <point x="290" y="255" type="curve" smooth="yes"/>
      <point x="505" y="317" type="line"/>
      <point x="505" y="142" type="line"/>
      <point x="457" y="85"/>
      <point x="407" y="57"/>
    </contour>
  </outline>
</glyph>
<glyph name="f" format="2">
  <advance width="463"/>
  <unicode hex="0066"/>
  <note>
f
</note>
  <outline>
    <contour>
      <point x="378" y="0" type="line"/>
      <point x="381" y="54" type="line"/>
      <point x="250" y="72" type="line"/>
      <point x="248" y="112"/>
      <point x="247" y="207"/>
      <point x="247" y="293" type="curve"/>
      <point x="245" y="609" type="line"/>
      <point x="243" y="678" type="line"/>
      <point x="243" y="842" type="line" smooth="yes"/>
      <point x="243" y="988"/>
      <point x="293" y="1076"/>
      <point x="380" y="1076" type="curve"/>
      <point x="357" y="1086" type="line"/>
      <point x="422" y="1022" type="line" smooth="yes"/>
      <point x="444" y="998"/>
      <point x="462" y="990"/>
      <point x="491" y="990" type="curve" smooth="yes"/>
      <point x="513" y="990"/>
      <point x="531" y="1006"/>
      <point x="531" y="1030" type="curve" smooth="yes"/>
      <point x="531" y="1080"/>
      <point x="470" y="1120"/>
      <point x="394" y="1120" type="curve" smooth="yes"/>
      <point x="251" y="1120"/>
      <point x="162" y="1009"/>
      <point x="162" y="808" type="curve" smooth="yes"/>
      <point x="162" y="609" type="line"/>
      <point x="163" y="277" type="line"/>
      <point x="163" y="154"/>
      <point x="163" y="105"/>
      <point x="162" y="72" type="curve"/>
      <point x="62" y="49" type="line"/>
      <point x="65" y="0" type="line"/>
    </contour>
    <contour>
      <point x="46" y="609" type="line"/>
      <point x="426" y="609" type="line"/>
      <point x="426" y="678" type="line"/>
      <point x="293" y="678" type="line"/>
      <point x="162" y="678" type="line"/>
      <point x="46" y="651" type="line"/>
    </contour>
  </outline>
</glyph>
<glyph name="s" format="2">
  <advance width="637"/>
  <unicode hex="0073"/>
  <note>
s
</note>
  <anchor x="329" y="682" name="above"/>
  <anchor x="321" y="0" name="below"/>
  <outline>
    <contour>
      <point x="317" y="-12" type="curve" smooth="yes"/>
      <point x="454" y="-12"/>
      <point x="558" y="65"/>
      <point x="558" y="171" type="curve" smooth="yes"/>
      <point x="558" y="255"/>
      <point x="511" y="306"/>
      <point x="370" y="375" type="curve" smooth="yes"/>
      <point x="245" y="436"/>
      <point x="202" y="467"/>
      <point x="202" y="537" type="curve" smooth="yes"/>
      <point x="202" y="597"/>
      <point x="253" y="640"/>
      <point x="335" y="640" type="curve" smooth="yes"/>
      <point x="370" y="640"/>
      <point x="401" y="632"/>
      <point x="423" y="619" type="curve"/>
      <point x="463" y="513" type="line"/>
      <point x="526" y="513" type="line"/>
      <point x="508" y="670" type="line"/>
      <point x="467" y="686"/>
      <point x="404" y="694"/>
      <point x="349" y="694" type="curve" smooth="yes"/>
      <point x="203" y="694"/>
      <point x="104" y="619"/>
      <point x="104" y="513" type="curve" smooth="yes"/>
      <point x="104" y="420"/>
      <point x="158" y="373"/>
      <point x="306" y="304" type="curve" smooth="yes"/>
      <point x="423" y="250"/>
      <point x="460" y="213"/>
      <point x="460" y="152" type="curve" smooth="yes"/>
      <point x="460" y="86"/>
      <point x="402" y="43"/>
      <point x="327" y="43" type="curve" smooth="yes"/>
      <point x="274" y="43"/>
      <point x="232" y="56"/>
      <point x="197" y="83" type="curve"/>
      <point x="166" y="199" type="line"/>
      <point x="99" y="199" type="line"/>
      <point x="107" y="35" type="line"/>
      <point x="162" y="6"/>
      <point x="242" y="-12"/>
    </contour>
  </outline>
</glyph>
<glyph name="t" format="2">
  <advance width="521"/>
  <unicode hex="0074"/>
  <note>
t
</note>
  <guideline x="479" y="646" angle="270"/>
  <anchor x="253" y="772" name="above"/>
  <anchor x="306" y="0" name="below"/>
  <anchor x="187" y="433" name="stroke"/>
  <anchor x="341" y="1104" name="topright"/>
  <outline>
    <contour>
      <point x="531" y="81" type="curve"/>
      <point x="507" y="120" type="line"/>
      <point x="473" y="85"/>
      <point x="428" y="62"/>
      <point x="373" y="62" type="curve" smooth="yes"/>
      <point x="282" y="62"/>
      <point x="229" y="123"/>
      <point x="229" y="243" type="curve"/>
      <point x="231" y="646" type="line"/>
      <point x="234" y="812" type="line"/>
      <point x="215" y="812" type="line"/>
      <point x="36" y="635" type="line"/>
      <point x="36" y="611" type="line"/>
      <point x="149" y="611" type="line"/>
      <point x="146" y="215" type="line"/>
      <point x="146" y="64"/>
      <point x="234" y="-11"/>
      <point x="354" y="-11" type="curve" smooth="yes"/>
      <point x="418" y="-11"/>
      <point x="486" y="22"/>
    </contour>
    <contour>
      <point x="190" y="611" type="line"/>
      <point x="479" y="611" type="line"/>
      <point x="479" y="680" type="line"/>
      <point x="190" y="680" type="line"/>
    </contour>
  </outline>
</glyph>
<glyph name="bar" format="2">
  <advance width="443"/>
  <unicode hex="007C"/>
  <note>
bar
</note>
  <outline>
    <contour>
      <point x="179" y="-353" type="line"/>
      <point x="264" y="-353" type="line"/>
      <point x="264" y="1158" type="line"/>
      <point x="179" y="1158" type="line"/>
    </contour>
  </outline>
</glyph>
<glyph name="cent" format="2">
  <advance width="654"/>
  <unicode hex="00A2"/>
  <note>
cent
</note>
  <outline>
    <contour>
      <point x="388" y="-12" type="curve" smooth="yes"/>
      <point x="503" y="-12"/>
      <point x="585" y="35"/>
      <point x="646" y="136" type="curve"/>
      <point x="608" y="168" type="line"/>
      <point x="555" y="99"/>
      <point x="502" y="69"/>
      <point x="410" y="69" type="curve" smooth="yes"/>
      <point x="276" y="69"/>
      <point x="173" y="168"/>
      <point x="173" y="346" type="curve" smooth="yes"/>
      <point x="173" y="571"/>
      <point x="322" y="667"/>
      <point x="463" y="637" type="curve"/>
      <point x="409" y="653" type="line"/>
      <point x="479" y="579" type="line" smooth="yes"/>
      <point x="516" y="542"/>
      <point x="529" y="531"/>
      <point x="563" y="531" type="curve" smooth="yes"/>
      <point x="601" y="531"/>
      <point x="617" y="553"/>
      <point x="617" y="582" type="curve" smooth="yes"/>
      <point x="617" y="637"/>
      <point x="555" y="694"/>
      <point x="415" y="694" type="curve" smooth="yes"/>
      <point x="223" y="694"/>
      <point x="70" y="542"/>
      <point x="70" y="330" type="curve" smooth="yes"/>
      <point x="70" y="107"/>
      <point x="216" y="-12"/>
    </contour>
    <contour>
      <point x="346" y="-162" type="line"/>
      <point x="404" y="-162" type="line"/>
      <point x="404" y="844" type="line"/>
      <point x="346" y="844" type="line"/>
    </contour>
  </outline>
</glyph>
<glyph name="sterling" format="2">
  <advance width="738"/>
  <unicode hex="00A3"/>
  <note>
sterling
</note>
  <outline>
    <contour>
      <point x="93" y="-11" type="line"/>
      <point x="121" y="0"/>
      <point x="181" y="16"/>
      <point x="269" y="16" type="curve" smooth="yes"/>
      <point x="372" y="16"/>
      <point x="483" y="-9"/>
      <point x="528" y="-9" type="curve" smooth="yes"/>
      <point x="619" y="-9"/>
      <point x="680" y="12"/>
      <point x="738" y="154" type="curve"/>
      <point x="690" y="178" type="line"/>
      <point x="661" y="107"/>
      <point x="601" y="81"/>
      <point x="560" y="81" type="curve" smooth="yes"/>
      <point x="521" y="81"/>
      <point x="446" y="102"/>
      <point x="404" y="102" type="curve" smooth="yes"/>
      <point x="322" y="102"/>
      <point x="288" y="96"/>
      <point x="187" y="62" type="curve"/>
      <point x="170" y="48" type="line"/>
      <point x="282" y="83"/>
      <point x="329" y="186"/>
      <point x="329" y="288" type="curve" smooth="yes"/>
      <point x="329" y="447"/>
      <point x="248" y="592"/>
      <point x="248" y="741" type="curve" smooth="yes"/>
      <point x="248" y="877"/>
      <point x="381" y="916"/>
      <point x="515" y="885" type="curve"/>
      <point x="439" y="914" type="line"/>
      <point x="515" y="831" type="line" smooth="yes"/>
      <point x="545" y="796"/>
      <point x="568" y="786"/>
      <point x="597" y="786" type="curve" smooth="yes"/>
      <point x="632" y="786"/>
      <point x="651" y="805"/>
      <point x="651" y="841" type="curve" smooth="yes"/>
      <point x="651" y="905"/>
      <point x="558" y="956"/>
      <point x="436" y="956" type="curve" smooth="yes"/>
      <point x="260" y="956"/>
      <point x="133" y="852"/>
      <point x="133" y="706" type="curve" smooth="yes"/>
      <point x="133" y="531"/>
      <point x="242" y="402"/>
      <point x="242" y="235" type="curve" smooth="yes"/>
      <point x="242" y="128"/>
      <point x="195" y="78"/>
      <point x="72" y="48" type="curve"/>
    </contour>
    <contour>
      <point x="44" y="451" type="line"/>
      <point x="553" y="451" type="line"/>
      <point x="553" y="511" type="line"/>
      <point x="44" y="511" type="line"/>
    </contour>
  </outline>
</glyph>
<glyph name="currency" format="2">
  <advance width="866"/>
  <unicode hex="00A4"/>
  <note>
currency
</note>
  <outline>
    <contour>
      <point x="439" y="168" type="curve" smooth="yes"/>
      <point x="630" y="168"/>
      <point x="788" y="329"/>
      <point x="788" y="529" type="curve" smooth="yes"/>
      <point x="788" y="730"/>
      <point x="630" y="890"/>
      <point x="439" y="890" type="curve" smooth="yes"/>
      <point x="247" y="890"/>
      <point x="89" y="730"/>
      <point x="89" y="529" type="curve" smooth="yes"/>
      <point x="89" y="329"/>
      <point x="247" y="168"/>
    </contour>
    <contour>
      <point x="85" y="130" type="line"/>
      <point x="226" y="274" type="line"/>
      <point x="194" y="324" type="line"/>
      <point x="46" y="174" type="line"/>
    </contour>
    <contour>
      <point x="780" y="130" type="line"/>
      <point x="821" y="174" type="line"/>
      <point x="699" y="300" type="line"/>
      <point x="650" y="263" type="line"/>
    </contour>
    <contour>
      <point x="436" y="226" type="curve" smooth="yes"/>
      <point x="298" y="226"/>
      <point x="189" y="354"/>
      <point x="189" y="526" type="curve" smooth="yes"/>
      <point x="189" y="694"/>
      <point x="298" y="828"/>
      <point x="436" y="828" type="curve" smooth="yes"/>
      <point x="574" y="829"/>
      <point x="685" y="694"/>
      <point x="685" y="526" type="curve" smooth="yes"/>
      <point x="685" y="354"/>
      <point x="574" y="226"/>
    </contour>
    <contour>
      <point x="192" y="735" type="line"/>
      <point x="226" y="783" type="line"/>
      <point x="85" y="929" type="line"/>
      <point x="46" y="885" type="line"/>
    </contour>
    <contour>
      <point x="690" y="752" type="line"/>
      <point x="821" y="887" type="line"/>
      <point x="783" y="927" type="line"/>
      <point x="651" y="796" type="line"/>
    </contour>
  </outline>
</glyph>
<glyph name="yen" format="2">
  <advance width="837"/>
  <unicode hex="00A5"/>
  <note>
yen
</note>
  <outline>
    <contour>
      <point x="131" y="391" type="line"/>
      <point x="702" y="391" type="line"/>
      <point x="702" y="452" type="line"/>
      <point x="131" y="452" type="line"/>
    </contour>
    <contour>
      <point x="131" y="195" type="line"/>
      <point x="702" y="195" type="line"/>
      <point x="702" y="256" type="line"/>
      <point x="131" y="256" type="line"/>
    </contour>
    <contour>
      <point x="763" y="869" type="line"/>
      <point x="844" y="890" type="line"/>
      <point x="842" y="942" type="line"/>
      <point x="561" y="942" type="line"/>
      <point x="558" y="890" type="line"/>
      <point x="670" y="869" type="line"/>
      <point x="433" y="476" type="line"/>
      <point x="447" y="476" type="line"/>
      <point x="195" y="869" type="line"/>
      <point x="292" y="890" type="line"/>
      <point x="288" y="942" type="line"/>
      <point x="-1" y="942" type="line"/>
      <point x="-3" y="890" type="line"/>
      <point x="77" y="869" type="line"/>
      <point x="393" y="377" type="line"/>
      <point x="370" y="460" type="line"/>
      <point x="370" y="312" type="line" smooth="yes"/>
      <point x="370" y="112"/>
      <point x="365" y="83"/>
      <point x="364" y="72" type="curve"/>
      <point x="251" y="52" type="line"/>
      <point x="255" y="0" type="line"/>
      <point x="581" y="0" type="line"/>
      <point x="584" y="52" type="line"/>
      <point x="471" y="72" type="line"/>
      <point x="471" y="83"/>
      <point x="467" y="112"/>
      <point x="467" y="312" type="curve" smooth="yes"/>
      <point x="467" y="460" type="line"/>
      <point x="441" y="377" type="line"/>
    </contour>
  </outline>
</glyph>
<glyph name="copyright" format="2">
  <advance width="1300"/>
  <unicode hex="00A9"/>
  <outline>
    <contour>
      <point x="651" y="-4" type="curve" smooth="yes"/>
      <point x="967" y="-4"/>
      <point x="1211" y="240"/>
      <point x="1211" y="560" type="curve" smooth="yes"/>
      <point x="1211" y="881"/>
      <point x="967" y="1125"/>
      <point x="651" y="1125" type="curve" smooth="yes"/>
      <point x="332" y="1125"/>
      <point x="88" y="881"/>
      <point x="88" y="560" type="curve" smooth="yes"/>
      <point x="88" y="240"/>
      <point x="333" y="-4"/>
    </contour>
    <contour>
      <point x="688" y="245" type="curve" smooth="yes"/>
      <point x="763" y="245"/>
      <point x="836" y="269"/>
      <point x="887" y="295" type="curve"/>
      <point x="919" y="430" type="line"/>
      <point x="871" y="434" type="line"/>
      <point x="820" y="337" type="line"/>
      <point x="784" y="316"/>
      <point x="744" y="304"/>
      <point x="698" y="304" type="curve" smooth="yes"/>
      <point x="552" y="304"/>
      <point x="441" y="404"/>
      <point x="441" y="581" type="curve" smooth="yes"/>
      <point x="441" y="719"/>
      <point x="513" y="831"/>
      <point x="693" y="831" type="curve" smooth="yes"/>
      <point x="733" y="831"/>
      <point x="788" y="821"/>
      <point x="816" y="804" type="curve"/>
      <point x="850" y="701" type="line"/>
      <point x="898" y="704" type="line"/>
      <point x="890" y="853" type="line"/>
      <point x="837" y="874"/>
      <point x="760" y="887"/>
      <point x="702" y="887" type="curve" smooth="yes"/>
      <point x="459" y="887"/>
      <point x="325" y="744"/>
      <point x="325" y="560" type="curve" smooth="yes"/>
      <point x="325" y="354"/>
      <point x="486" y="245"/>
    </contour>
    <contour>
      <point x="651" y="40" type="curve" smooth="yes"/>
      <point x="357" y="40"/>
      <point x="134" y="266"/>
      <point x="134" y="561" type="curve" smooth="yes"/>
      <point x="134" y="855"/>
      <point x="357" y="1080"/>
      <point x="651" y="1080" type="curve" smooth="yes"/>
      <point x="942" y="1080"/>
      <point x="1165" y="855"/>
      <point x="1165" y="561" type="curve" smooth="yes"/>
      <point x="1165" y="266"/>
      <point x="942" y="40"/>
    </contour>
  </outline>
</glyph>
<glyph name="guillemetleft" format="2">
  <advance width="579"/>
  <unicode hex="00AB"/>
  <guideline x="258" y="-56" angle="37.0885"/>
  <outline>
    <component base="guilsinglleft" xOffset="197"/>
    <contour>
      <point x="267" y="-71" type="curve"/>
      <point x="328" y="-32" type="line"/>
      <point x="117" y="179"/>
      <point x="111" y="471"/>
      <point x="321" y="682" type="curve"/>
      <point x="278" y="717" type="line"/>
      <point x="47" y="473"/>
      <point x="33" y="172"/>
    </contour>
  </outline>
</glyph>
<glyph name="softhyphen" format="2">
  <advance width="514"/>
  <unicode hex="00AD"/>
  <outline>
    <contour>
      <point x="451" y="304" type="line"/>
      <point x="451" y="383" type="line"/>
      <point x="61" y="383" type="line"/>
      <point x="61" y="304" type="line"/>
    </contour>
  </outline>
</glyph>
<glyph name="degree" format="2">
  <advance width="548"/>
  <unicode hex="00B0"/>
  <note>
degree
</note>
  <outline>
    <contour>
      <point x="276" y="497" type="curve" smooth="yes"/>
      <point x="406" y="497"/>
      <point x="503" y="593"/>
      <point x="503" y="727" type="curve" smooth="yes"/>
      <point x="503" y="857"/>
      <point x="406" y="953"/>
      <point x="276" y="953" type="curve" smooth="yes"/>
      <point x="144" y="953"/>
      <point x="44" y="857"/>
      <point x="44" y="727" type="curve" smooth="yes"/>
      <point x="44" y="593"/>
      <point x="144" y="497"/>
    </contour>
    <contour>
      <point x="276" y="569" type="curve" smooth="yes"/>
      <point x="189" y="569"/>
      <point x="126" y="635"/>
      <point x="126" y="727" type="curve" smooth="yes"/>
      <point x="126" y="815"/>
      <point x="189" y="881"/>
      <point x="276" y="881" type="curve" smooth="yes"/>
      <point x="361" y="881"/>
      <point x="422" y="815"/>
      <point x="422" y="727" type="curve" smooth="yes"/>
      <point x="422" y="635"/>
      <point x="361" y="569"/>
    </contour>
  </outline>
</glyph>
<glyph name="plusminus" format="2">
  <advance width="866"/>
  <unicode hex="00B1"/>
  <outline>
    <contour>
      <point x="781" y="505" type="line"/>
      <point x="85" y="505" type="line"/>
      <point x="85" y="423" type="line"/>
      <point x="781" y="423" type="line"/>
    </contour>
    <contour>
      <point x="393" y="755" type="line"/>
      <point x="393" y="174" type="line"/>
      <point x="471" y="174" type="line"/>
      <point x="471" y="755" type="line"/>
    </contour>
    <contour>
      <point x="781" y="85" type="line"/>
      <point x="85" y="85" type="line"/>
      <point x="85" y="0" type="line"/>
      <point x="781" y="0" type="line"/>
    </contour>
  </outline>
</glyph>
<glyph name="twosuperior" format="2">
  <advance width="642"/>
  <unicode hex="00B2"/>
  <note>
uni2082
</note>
  <outline>
    <contour>
      <point x="94" y="359" type="curve"/>
      <point x="101" y="316" type="line"/>
      <point x="126" y="317"/>
      <point x="155" y="319"/>
      <point x="182" y="319" type="curve" smooth="yes"/>
      <point x="426" y="319" type="line" smooth="yes"/>
      <point x="473" y="319"/>
      <point x="508" y="317"/>
      <point x="542" y="314" type="curve"/>
      <point x="571" y="494" type="line"/>
      <point x="523" y="497" type="line"/>
      <point x="486" y="414" type="line"/>
      <point x="476" y="410"/>
      <point x="460" y="409"/>
      <point x="446" y="409" type="curve" smooth="yes"/>
      <point x="192" y="409" type="line"/>
      <point x="189" y="393" type="line"/>
      <point x="404" y="520"/>
      <point x="507" y="648"/>
      <point x="507" y="763" type="curve" smooth="yes"/>
      <point x="507" y="876"/>
      <point x="417" y="951"/>
      <point x="290" y="951" type="curve" smooth="yes"/>
      <point x="190" y="951"/>
      <point x="115" y="893"/>
      <point x="72" y="810" type="curve"/>
      <point x="104" y="783" type="line"/>
      <point x="144" y="837"/>
      <point x="200" y="866"/>
      <point x="264" y="866" type="curve" smooth="yes"/>
      <point x="357" y="866"/>
      <point x="404" y="824"/>
      <point x="404" y="746" type="curve" smooth="yes"/>
      <point x="404" y="632"/>
      <point x="322" y="528"/>
    </contour>
  </outline>
</glyph>
<glyph name="periodcentered" format="2">
  <advance width="354"/>
  <unicode hex="00B7"/>
  <note>
periodcentered
</note>
  <outline>
    <contour>
      <point x="176" y="276" type="curve" smooth="yes"/>
      <point x="223" y="276"/>
      <point x="255" y="308"/>
      <point x="255" y="351" type="curve" smooth="yes"/>
      <point x="255" y="394"/>
      <point x="223" y="423"/>
      <point x="176" y="423" type="curve" smooth="yes"/>
      <point x="131" y="423"/>
      <point x="99" y="394"/>
      <point x="99" y="351" type="curve" smooth="yes"/>
      <point x="99" y="308"/>
      <point x="131" y="276"/>
    </contour>
  </outline>
</glyph>
<glyph name="Thorn" format="2">
  <advance width="784"/>
  <unicode hex="00DE"/>
  <note>
Thorn
</note>
  <outline>
    <contour>
      <point x="97" y="0" type="line"/>
      <point x="418" y="0" type="line"/>
      <point x="422" y="54" type="line"/>
      <point x="288" y="72" type="line"/>
      <point x="287" y="89"/>
      <point x="284" y="134"/>
      <point x="284" y="178" type="curve" smooth="yes"/>
      <point x="284" y="702" type="line"/>
      <point x="390" y="702" type="line" smooth="yes"/>
      <point x="505" y="702"/>
      <point x="605" y="632"/>
      <point x="605" y="476" type="curve" smooth="yes"/>
      <point x="605" y="338"/>
      <point x="521" y="272"/>
      <point x="385" y="272" type="curve" smooth="yes"/>
      <point x="351" y="272"/>
      <point x="312" y="277"/>
      <point x="258" y="293" type="curve"/>
      <point x="258" y="224" type="line"/>
      <point x="295" y="218"/>
      <point x="337" y="210"/>
      <point x="390" y="210" type="curve" smooth="yes"/>
      <point x="552" y="210"/>
      <point x="707" y="316"/>
      <point x="707" y="495" type="curve" smooth="yes"/>
      <point x="707" y="669"/>
      <point x="585" y="765"/>
      <point x="398" y="765" type="curve" smooth="yes"/>
      <point x="272" y="765" type="line"/>
      <point x="284" y="722" type="line"/>
      <point x="284" y="796" type="line" smooth="yes"/>
      <point x="284" y="834"/>
      <point x="285" y="855"/>
      <point x="285" y="866" type="curve"/>
      <point x="381" y="890" type="line"/>
      <point x="378" y="942" type="line"/>
      <point x="88" y="942" type="line"/>
      <point x="85" y="890" type="line"/>
      <point x="181" y="866" type="line"/>
      <point x="186" y="853"/>
      <point x="187" y="783"/>
      <point x="187" y="637" type="curve" smooth="yes"/>
      <point x="187" y="303" type="line" smooth="yes"/>
      <point x="187" y="158"/>
      <point x="186" y="88"/>
      <point x="184" y="72" type="curve"/>
      <point x="94" y="51" type="line"/>
    </contour>
  </outline>
</glyph>
<glyph name="eth" format="2">
  <advance width="784"/>
  <unicode hex="00F0"/>
  <note>
eth
</note>
  <outline>
    <contour>
      <point x="605" y="589" type="curve"/>
      <point x="608" y="661" type="line"/>
      <point x="540" y="690"/>
      <point x="476" y="696"/>
      <point x="425" y="696" type="curve" smooth="yes"/>
      <point x="235" y="696"/>
      <point x="70" y="563"/>
      <point x="70" y="329" type="curve" smooth="yes"/>
      <point x="70" y="96"/>
      <point x="221" y="-12"/>
      <point x="388" y="-12" type="curve" smooth="yes"/>
      <point x="582" y="-12"/>
      <point x="711" y="144"/>
      <point x="711" y="433" type="curve" smooth="yes"/>
      <point x="711" y="723"/>
      <point x="518" y="1004"/>
      <point x="239" y="1104" type="curve"/>
      <point x="113" y="1104" type="line"/>
      <point x="110" y="1062" type="line"/>
      <point x="430" y="953"/>
      <point x="609" y="699"/>
      <point x="609" y="385" type="curve" smooth="yes"/>
      <point x="609" y="142"/>
      <point x="540" y="51"/>
      <point x="406" y="51" type="curve" smooth="yes"/>
      <point x="263" y="51"/>
      <point x="176" y="178"/>
      <point x="176" y="343" type="curve" smooth="yes"/>
      <point x="176" y="537"/>
      <point x="266" y="633"/>
      <point x="423" y="633" type="curve" smooth="yes"/>
      <point x="476" y="633"/>
      <point x="542" y="627"/>
    </contour>
    <contour>
      <point x="150" y="828" type="line"/>
      <point x="622" y="1067" type="line"/>
      <point x="595" y="1120" type="line"/>
      <point x="123" y="881" type="line"/>
    </contour>
  </outline>
</glyph>
<glyph name="thorn" format="2">
  <advance width="819"/>
  <unicode hex="00FE"/>
  <note>
thorn
</note>
  <outline>
    <contour>
      <point x="38" y="-353" type="line"/>
      <point x="359" y="-353" type="line"/>
      <point x="362" y="-298" type="line"/>
      <point x="231" y="-280" type="line"/>
      <point x="227" y="-247"/>
      <point x="224" y="-199"/>
      <point x="224" y="-86" type="curve" smooth="yes"/>
      <point x="224" y="20" type="line"/>
      <point x="269" y="1"/>
      <point x="341" y="-11"/>
      <point x="396" y="-11" type="curve" smooth="yes"/>
      <point x="587" y="-11"/>
      <point x="746" y="138"/>
      <point x="746" y="353" type="curve" smooth="yes"/>
      <point x="746" y="542"/>
      <point x="625" y="694"/>
      <point x="439" y="694" type="curve" smooth="yes"/>
      <point x="356" y="694"/>
      <point x="288" y="661"/>
      <point x="227" y="585" type="curve"/>
      <point x="223" y="587" type="line"/>
      <point x="226" y="826"/>
      <point x="227" y="953"/>
      <point x="231" y="1091" type="curve"/>
      <point x="205" y="1110" type="line"/>
      <point x="16" y="1051" type="line"/>
      <point x="19" y="1009" type="line"/>
      <point x="138" y="993" type="line"/>
      <point x="139" y="971"/>
      <point x="144" y="728"/>
      <point x="142" y="584" type="curve"/>
      <point x="139" y="1" type="line" smooth="yes"/>
      <point x="138" y="-197"/>
      <point x="136" y="-260"/>
      <point x="134" y="-280" type="curve"/>
      <point x="35" y="-303" type="line"/>
    </contour>
    <contour>
      <point x="404" y="49" type="curve" smooth="yes"/>
      <point x="335" y="49"/>
      <point x="268" y="70"/>
      <point x="224" y="107" type="curve"/>
      <point x="224" y="507" type="line"/>
      <point x="276" y="577"/>
      <point x="340" y="614"/>
      <point x="420" y="614" type="curve" smooth="yes"/>
      <point x="558" y="614"/>
      <point x="646" y="479"/>
      <point x="645" y="332" type="curve" smooth="yes"/>
      <point x="643" y="157"/>
      <point x="544" y="49"/>
    </contour>
  </outline>
</glyph>
<glyph name="ray-ar" format="2">
  <advance width="930"/>
  <unicode hex="0608"/>
  <outline>
    <component base="_tail" xOffset="-17" yOffset="-31"/>
    <contour>
      <point x="381" y="-281" type="curve" smooth="yes"/>
      <point x="600" y="-281"/>
      <point x="845" y="-131"/>
      <point x="845" y="74" type="curve" smooth="yes"/>
      <point x="845" y="182"/>
      <point x="817" y="345"/>
      <point x="735" y="345" type="curve" smooth="yes"/>
      <point x="650" y="345"/>
      <point x="625" y="190"/>
      <point x="625" y="120" type="curve" smooth="yes"/>
      <point x="625" y="3"/>
      <point x="750" y="-100"/>
      <point x="920" y="117" type="curve"/>
      <point x="889" y="156" type="line"/>
      <point x="733" y="32"/>
      <point x="675" y="102"/>
      <point x="675" y="143" type="curve" smooth="yes"/>
      <point x="675" y="170"/>
      <point x="694" y="235"/>
      <point x="721" y="235" type="curve" smooth="yes"/>
      <point x="755" y="235"/>
      <point x="797" y="153"/>
      <point x="797" y="84" type="curve" smooth="yes"/>
      <point x="797" y="-96"/>
      <point x="540" y="-171"/>
      <point x="405" y="-171" type="curve" smooth="yes"/>
      <point x="229" y="-171"/>
      <point x="128" y="-65"/>
      <point x="128" y="80" type="curve" smooth="yes"/>
      <point x="128" y="128"/>
      <point x="139" y="180"/>
      <point x="162" y="234" type="curve"/>
      <point x="148" y="240" type="line"/>
      <point x="95" y="156"/>
      <point x="69" y="71"/>
      <point x="69" y="-5" type="curve" smooth="yes"/>
      <point x="69" y="-162"/>
      <point x="178" y="-281"/>
    </contour>
  </outline>
</glyph>
<glyph name="misraComma-ar" format="2">
  <advance width="823"/>
  <unicode hex="060F"/>
  <outline>
    <contour>
      <point x="-30" y="-739" type="line"/>
      <point x="80" y="-504"/>
      <point x="355" y="-140"/>
      <point x="599" y="-140" type="curve" smooth="yes"/>
      <point x="673" y="-140"/>
      <point x="708" y="-200"/>
      <point x="708" y="-276" type="curve" smooth="yes"/>
      <point x="708" y="-409"/>
      <point x="602" y="-590"/>
      <point x="411" y="-590" type="curve" smooth="yes"/>
      <point x="243" y="-590"/>
      <point x="127" y="-386"/>
      <point x="127" y="-206" type="curve" smooth="yes"/>
      <point x="127" y="-62"/>
      <point x="310" y="151"/>
      <point x="615" y="270" type="curve"/>
      <point x="615" y="380" type="line"/>
      <point x="316" y="260"/>
      <point x="80" y="10"/>
      <point x="80" y="-249" type="curve" smooth="yes"/>
      <point x="80" y="-438"/>
      <point x="208" y="-700"/>
      <point x="383" y="-700" type="curve" smooth="yes"/>
      <point x="623" y="-700"/>
      <point x="783" y="-397"/>
      <point x="783" y="-198" type="curve" smooth="yes"/>
      <point x="783" y="-102"/>
      <point x="745" y="-30"/>
      <point x="660" y="-30" type="curve" smooth="yes"/>
      <point x="306" y="-30"/>
      <point x="67" y="-482"/>
      <point x="-43" y="-731" type="curve"/>
    </contour>
    <contour>
      <point x="247" y="90" type="curve"/>
      <point x="366" y="239" type="line"/>
      <point x="331" y="212"/>
      <point x="297" y="201"/>
      <point x="266" y="201" type="curve" smooth="yes"/>
      <point x="166" y="201"/>
      <point x="96" y="318"/>
      <point x="88" y="387" type="curve"/>
      <point x="83" y="342" type="line"/>
      <point x="116" y="443"/>
      <point x="257" y="500"/>
      <point x="363" y="500" type="curve" smooth="yes"/>
      <point x="391" y="500"/>
      <point x="417" y="496"/>
      <point x="438" y="488" type="curve"/>
      <point x="448" y="501" type="line"/>
      <point x="392" y="566"/>
      <point x="331" y="595"/>
      <point x="274" y="595" type="curve" smooth="yes"/>
      <point x="148" y="595"/>
      <point x="40" y="474"/>
      <point x="40" y="270" type="curve" smooth="yes"/>
      <point x="40" y="209"/>
      <point x="123" y="105"/>
    </contour>
  </outline>
</glyph>
<glyph name="takhallusabove-ar" format="2">
  <unicode hex="0614"/>
  <anchor x="0" y="1391" name="_diaA"/>
  <anchor x="0" y="1710" name="diaA"/>
  <outline>
    <contour>
      <point x="-451" y="1489" type="line"/>
      <point x="-249" y="1472"/>
      <point x="-45" y="1497"/>
      <point x="163" y="1545" type="curve"/>
      <point x="151" y="1556" type="line"/>
      <point x="158" y="1328"/>
      <point x="457" y="1358"/>
      <point x="408" y="1690" type="curve"/>
      <point x="372" y="1672" type="line"/>
      <point x="405" y="1413"/>
      <point x="152" y="1408"/>
      <point x="188" y="1615" type="curve"/>
      <point x="-24" y="1552"/>
      <point x="-256" y="1532"/>
      <point x="-507" y="1529" type="curve"/>
    </contour>
  </outline>
</glyph>
<glyph name="endoftext-ar" format="2">
  <advance width="772"/>
  <unicode hex="061D"/>
  <outline>
    <contour>
      <point x="401" y="1087" type="curve" smooth="yes"/>
      <point x="208" y="1087"/>
      <point x="40" y="887"/>
      <point x="40" y="794" type="curve" smooth="yes"/>
      <point x="40" y="682"/>
      <point x="84" y="612"/>
      <point x="166" y="541" type="curve" smooth="yes"/>
      <point x="224" y="491"/>
      <point x="297" y="428"/>
      <point x="346" y="355" type="curve" smooth="yes"/>
      <point x="408" y="262"/>
      <point x="449" y="145"/>
      <point x="498" y="73" type="curve" smooth="yes"/>
      <point x="529" y="27"/>
      <point x="588" y="1"/>
      <point x="635" y="1" type="curve" smooth="yes"/>
      <point x="712" y="1"/>
      <point x="752" y="72"/>
      <point x="752" y="151" type="curve" smooth="yes"/>
      <point x="752" y="218"/>
      <point x="728" y="252"/>
      <point x="678" y="252" type="curve" smooth="yes"/>
      <point x="629" y="252"/>
      <point x="592" y="207"/>
      <point x="592" y="166" type="curve" smooth="yes"/>
      <point x="592" y="137"/>
      <point x="595" y="140"/>
      <point x="604" y="117" type="curve"/>
      <point x="563" y="111"/>
      <point x="517" y="144"/>
      <point x="497" y="195" type="curve" smooth="yes"/>
      <point x="458" y="292"/>
      <point x="448" y="369"/>
      <point x="389" y="466" type="curve" smooth="yes"/>
      <point x="316" y="587"/>
      <point x="96" y="715"/>
      <point x="96" y="753" type="curve" smooth="yes"/>
      <point x="96" y="847"/>
      <point x="227" y="983"/>
      <point x="351" y="983" type="curve" smooth="yes"/>
      <point x="394" y="983"/>
      <point x="467" y="954"/>
      <point x="467" y="888" type="curve" smooth="yes"/>
      <point x="467" y="838"/>
      <point x="458" y="786"/>
      <point x="438" y="747" type="curve"/>
      <point x="458" y="728" type="line"/>
      <point x="507" y="791"/>
      <point x="526" y="877"/>
      <point x="526" y="974" type="curve" smooth="yes"/>
      <point x="526" y="1039"/>
      <point x="484" y="1087"/>
    </contour>
  </outline>
</glyph>
<glyph name="question-ar" format="2">
  <advance width="564"/>
  <unicode hex="061F"/>
  <outline>
    <component base="_dot_punct" xOffset="186" yOffset="72"/>
    <contour>
      <point x="526" y="1041" type="line"/>
      <point x="334" y="1176"/>
      <point x="83" y="1044"/>
      <point x="83" y="841" type="curve" smooth="yes"/>
      <point x="83" y="581"/>
      <point x="498" y="439"/>
      <point x="344" y="267" type="curve"/>
      <point x="366" y="250" type="line"/>
      <point x="566" y="483"/>
      <point x="174" y="593"/>
      <point x="174" y="803" type="curve" smooth="yes"/>
      <point x="174" y="939"/>
      <point x="336" y="1025"/>
      <point x="469" y="948" type="curve"/>
    </contour>
  </outline>
</glyph>
<glyph name="alef-ar" format="2">
  <advance width="329"/>
  <unicode hex="0627"/>
  <anchor x="180" y="1186" name="above"/>
  <anchor x="-19" y="756" name="aboveLeft"/>
  <anchor x="152" y="121" name="attBottom"/>
  <anchor x="313" y="222" name="attBottomRight"/>
  <anchor x="-25" y="524" name="attLeftMid"/>
  <anchor x="381" y="524" name="attRtMid"/>
  <anchor x="174" y="967" name="attTop"/>
  <anchor x="381" y="1056" name="attTopRight"/>
  <anchor x="165" y="-50" name="below"/>
  <anchor x="180" y="1176" name="diaA"/>
  <anchor x="132" y="-202" name="diaB"/>
  <outline>
    <contour>
      <point x="122" y="977" type="line"/>
      <point x="112" y="664"/>
      <point x="143" y="465"/>
      <point x="133" y="-5" type="curve"/>
      <point x="155" y="-1"/>
      <point x="175" y="18"/>
      <point x="181" y="54" type="curve" smooth="yes"/>
      <point x="236" y="362"/>
      <point x="191" y="778"/>
      <point x="201" y="1093" type="curve"/>
    </contour>
  </outline>
</glyph>
<glyph name="dal-ar" format="2">
  <advance width="535"/>
  <unicode hex="062F"/>
  <anchor x="266" y="701" name="above"/>
  <anchor x="116" y="817" name="alefUnused"/>
  <anchor x="269" y="-89" name="below"/>
  <anchor x="266" y="834" name="diaA"/>
  <anchor x="189" y="-200" name="diaB"/>
  <anchor x="254" y="52" name="ring"/>
  <outline>
    <contour>
      <point x="205" y="609" type="curve"/>
      <point x="189" y="500" type="line"/>
      <point x="324" y="480"/>
      <point x="432" y="306"/>
      <point x="432" y="195" type="curve" smooth="yes"/>
      <point x="432" y="134"/>
      <point x="315" y="95"/>
      <point x="217" y="95" type="curve" smooth="yes"/>
      <point x="131" y="95"/>
      <point x="89" y="113"/>
      <point x="74" y="150" type="curve"/>
      <point x="60" y="42" type="line"/>
      <point x="80" y="3"/>
      <point x="116" y="-15"/>
      <point x="186" y="-15" type="curve" smooth="yes"/>
      <point x="316" y="-15"/>
      <point x="475" y="98"/>
      <point x="475" y="240" type="curve" smooth="yes"/>
      <point x="475" y="403"/>
      <point x="340" y="589"/>
    </contour>
  </outline>
</glyph>
<glyph name="sad-ar" format="2">
  <advance width="1546"/>
  <unicode hex="0635"/>
  <anchor x="968" y="456" name="above"/>
  <anchor x="288" y="464" name="alefUnused"/>
  <anchor x="1084" y="-70" name="below"/>
  <anchor x="800" y="700" name="diaA"/>
  <anchor x="200" y="-510" name="diaB"/>
  <outline>
    <component base="_bowl_seen" yOffset="20"/>
    <component base="_tah_bowl" xOffset="891" yOffset="-7"/>
    <contour>
      <point x="872" y="95" type="line"/>
      <point x="821" y="95"/>
      <point x="755" y="108"/>
      <point x="722" y="122" type="curve"/>
      <point x="740" y="0" type="line"/>
      <point x="765" y="-7"/>
      <point x="829" y="-15"/>
      <point x="893" y="-15" type="curve"/>
    </contour>
  </outline>
</glyph>
<glyph name="lam-ar" format="2">
  <advance width="685"/>
  <unicode hex="0644"/>
  <anchor x="531" y="1122" name="above"/>
  <anchor x="308" y="737" name="alef"/>
  <anchor x="521" y="-212" name="below"/>
  <anchor x="341" y="1171" name="diaA"/>
  <anchor x="221" y="-402" name="diaB"/>
  <anchor x="586" y="480" name="diaO"/>
  <anchor x="564" y="502" name="through"/>
  <outline>
    <component base="_strokeHead" xOffset="304" yOffset="779"/>
    <contour>
      <point x="509" y="959" type="line"/>
      <point x="571" y="327"/>
      <point x="586" y="125"/>
      <point x="571" y="77" type="curve"/>
      <point x="580" y="112" type="line"/>
      <point x="545" y="-17"/>
      <point x="425" y="-97"/>
      <point x="308" y="-97" type="curve" smooth="yes"/>
      <point x="188" y="-97"/>
      <point x="104" y="-17"/>
      <point x="104" y="124" type="curve" smooth="yes"/>
      <point x="104" y="192"/>
      <point x="123" y="258"/>
      <point x="147" y="318" type="curve"/>
      <point x="129" y="323" type="line"/>
      <point x="68" y="229"/>
      <point x="40" y="138"/>
      <point x="40" y="59" type="curve" smooth="yes"/>
      <point x="40" y="-97"/>
      <point x="145" y="-207"/>
      <point x="290" y="-207" type="curve" smooth="yes"/>
      <point x="446" y="-207"/>
      <point x="655" y="-87"/>
      <point x="638" y="196" type="curve" smooth="yes"/>
      <point x="596" y="887" type="line"/>
    </contour>
  </outline>
</glyph>
<glyph name="alefMaksura-ar" format="2">
  <advance width="980"/>
  <unicode hex="0649"/>
  <anchor x="456" y="654" name="above"/>
  <anchor x="313" y="539" name="alefUnused"/>
  <anchor x="316" y="-360" name="below"/>
  <anchor x="478" y="700" name="diaA"/>
  <anchor x="200" y="-462" name="diaB"/>
  <outline>
    <contour>
      <point x="896" y="617" type="curve" smooth="yes"/>
      <point x="741" y="617"/>
      <point x="544" y="348"/>
      <point x="544" y="201" type="curve" smooth="yes"/>
      <point x="544" y="23"/>
      <point x="897" y="93"/>
      <point x="881" y="41" type="curve" smooth="yes"/>
      <point x="859" y="-31"/>
      <point x="699" y="-210"/>
      <point x="404" y="-210" type="curve" smooth="yes"/>
      <point x="174" y="-210"/>
      <point x="114" y="-106"/>
      <point x="114" y="61" type="curve" smooth="yes"/>
      <point x="114" y="117"/>
      <point x="131" y="188"/>
      <point x="164" y="271" type="curve"/>
      <point x="152" y="277" type="line"/>
      <point x="78" y="156"/>
      <point x="40" y="42"/>
      <point x="40" y="-53" type="curve" smooth="yes"/>
      <point x="40" y="-213"/>
      <point x="148" y="-320"/>
      <point x="375" y="-320" type="curve" smooth="yes"/>
      <point x="728" y="-320"/>
      <point x="941" y="-78"/>
      <point x="941" y="110" type="curve" smooth="yes"/>
      <point x="941" y="221"/>
      <point x="614" y="132"/>
      <point x="614" y="257" type="curve" smooth="yes"/>
      <point x="614" y="337"/>
      <point x="789" y="508"/>
      <point x="870" y="508" type="curve" smooth="yes"/>
      <point x="898" y="508"/>
      <point x="921" y="496"/>
      <point x="924" y="467" type="curve"/>
      <point x="945" y="498"/>
      <point x="960" y="530"/>
      <point x="960" y="558" type="curve" smooth="yes"/>
      <point x="960" y="595"/>
      <point x="931" y="617"/>
    </contour>
  </outline>
</glyph>
<glyph name="fatha-ar" format="2">
  <unicode hex="064E"/>
  <anchor x="190" y="1056" name="_diaA"/>
  <anchor x="190" y="1298" name="diaA"/>
  <outline>
    <contour>
      <point x="7" y="1055" type="line"/>
      <point x="310" y="1205" type="line"/>
      <point x="332" y="1269" type="line"/>
      <point x="29" y="1116" type="line"/>
    </contour>
  </outline>
</glyph>
<glyph name="damma-ar" format="2">
  <unicode hex="064F"/>
  <anchor x="0" y="1048" name="_diaA"/>
  <anchor x="0" y="1492" name="diaA"/>
  <outline>
    <contour>
      <point x="-165" y="1059" type="line"/>
      <point x="-27" y="1127"/>
      <point x="137" y="1272"/>
      <point x="137" y="1399" type="curve" smooth="yes"/>
      <point x="137" y="1440"/>
      <point x="102" y="1461"/>
      <point x="61" y="1461" type="curve" smooth="yes"/>
      <point x="3" y="1461"/>
      <point x="-67" y="1420"/>
      <point x="-67" y="1339" type="curve" smooth="yes"/>
      <point x="-67" y="1276"/>
      <point x="6" y="1222"/>
      <point x="109" y="1161" type="curve"/>
      <point x="145" y="1214" type="line"/>
      <point x="19" y="1294"/>
      <point x="-5" y="1310"/>
      <point x="-5" y="1345" type="curve" smooth="yes"/>
      <point x="-5" y="1390"/>
      <point x="26" y="1413"/>
      <point x="53" y="1413" type="curve" smooth="yes"/>
      <point x="73" y="1413"/>
      <point x="91" y="1400"/>
      <point x="91" y="1372" type="curve" smooth="yes"/>
      <point x="91" y="1288"/>
      <point x="-65" y="1153"/>
      <point x="-186" y="1093" type="curve"/>
    </contour>
  </outline>
</glyph>
<glyph name="dotvowelbelow-ar" format="2">
  <unicode hex="065C"/>
  <anchor x="0" y="-86" name="_diaB"/>
  <anchor x="0" y="-281" name="diaB"/>
  <outline>
    <contour>
      <point x="0" y="-251" type="curve" smooth="yes"/>
      <point x="37" y="-251"/>
      <point x="67" y="-221"/>
      <point x="67" y="-184" type="curve" smooth="yes"/>
      <point x="67" y="-146"/>
      <point x="37" y="-116"/>
      <point x="0" y="-116" type="curve" smooth="yes"/>
      <point x="-38" y="-116"/>
      <point x="-68" y="-146"/>
      <point x="-68" y="-184" type="curve" smooth="yes"/>
      <point x="-68" y="-221"/>
      <point x="-38" y="-251"/>
    </contour>
  </outline>
</glyph>
<glyph name="dammareversed-ar" format="2">
  <unicode hex="065D"/>
  <anchor x="187" y="1048" name="_diaA"/>
  <anchor x="187" y="1492" name="diaA"/>
  <outline>
    <contour>
      <point x="27" y="1172" type="line"/>
      <point x="152" y="1249"/>
      <point x="203" y="1309"/>
      <point x="203" y="1399" type="curve" smooth="yes"/>
      <point x="203" y="1440"/>
      <point x="168" y="1461"/>
      <point x="127" y="1461" type="curve" smooth="yes"/>
      <point x="69" y="1461"/>
      <point x="-1" y="1423"/>
      <point x="-1" y="1342" type="curve" smooth="yes"/>
      <point x="-1" y="1254"/>
      <point x="150" y="1141"/>
      <point x="300" y="1048" type="curve"/>
      <point x="336" y="1101" type="line"/>
      <point x="210" y="1181"/>
      <point x="61" y="1286"/>
      <point x="61" y="1348" type="curve" smooth="yes"/>
      <point x="61" y="1393"/>
      <point x="92" y="1413"/>
      <point x="119" y="1413" type="curve" smooth="yes"/>
      <point x="139" y="1413"/>
      <point x="157" y="1400"/>
      <point x="157" y="1372" type="curve" smooth="yes"/>
      <point x="157" y="1324"/>
      <point x="123" y="1283"/>
      <point x="6" y="1206" type="curve"/>
    </contour>
  </outline>
</glyph>
<glyph name="two-ar" format="2">
  <advance width="638"/>
  <unicode hex="0662"/>
  <outline>
    <component base="one-ar"/>
    <contour>
      <point x="568" y="1094" type="curve"/>
      <point x="553" y="1094" type="line"/>
      <point x="507" y="946"/>
      <point x="444" y="868"/>
      <point x="355" y="868" type="curve" smooth="yes"/>
      <point x="304" y="868"/>
      <point x="226" y="890"/>
      <point x="192" y="961" type="curve"/>
      <point x="231" y="793" type="line"/>
      <point x="267" y="770"/>
      <point x="326" y="758"/>
      <point x="364" y="758" type="curve" smooth="yes"/>
      <point x="468" y="758"/>
      <point x="568" y="858"/>
    </contour>
  </outline>
</glyph>
<glyph name="three-ar" format="2">
  <advance width="842"/>
  <unicode hex="0663"/>
  <outline>
    <component base="one-ar"/>
    <contour>
      <point x="757" y="1072" type="line"/>
      <point x="726" y="924"/>
      <point x="678" y="867"/>
      <point x="579" y="867" type="curve" smooth="yes"/>
      <point x="505" y="867"/>
      <point x="482" y="933"/>
      <point x="482" y="1072" type="curve"/>
      <point x="467" y="1072" type="line"/>
      <point x="435" y="927"/>
      <point x="375" y="867"/>
      <point x="315" y="867" type="curve" smooth="yes"/>
      <point x="268" y="867"/>
      <point x="220" y="906"/>
      <point x="187" y="971" type="curve"/>
      <point x="225" y="792" type="line"/>
      <point x="251" y="765"/>
      <point x="270" y="757"/>
      <point x="308" y="757" type="curve" smooth="yes"/>
      <point x="358" y="757"/>
      <point x="401" y="778"/>
      <point x="434" y="825" type="curve"/>
      <point x="474" y="781"/>
      <point x="523" y="757"/>
      <point x="578" y="757" type="curve" smooth="yes"/>
      <point x="682" y="757"/>
      <point x="772" y="845"/>
      <point x="772" y="1072" type="curve"/>
    </contour>
  </outline>
</glyph>
<glyph name="six-ar" format="2">
  <advance width="760"/>
  <unicode hex="0666"/>
  <outline>
    <contour>
      <point x="75" y="1093" type="line"/>
      <point x="50" y="955"/>
      <point x="120" y="911"/>
      <point x="251" y="911" type="curve" smooth="yes"/>
      <point x="328" y="911"/>
      <point x="418" y="938"/>
      <point x="494" y="986" type="curve"/>
      <point x="484" y="991" type="line"/>
      <point x="484" y="689"/>
      <point x="505" y="199"/>
      <point x="653" y="-15" type="curve"/>
      <point x="690" y="131" type="line"/>
      <point x="559" y="308"/>
      <point x="533" y="733"/>
      <point x="533" y="1072" type="curve"/>
      <point x="447" y="1040"/>
      <point x="366" y="1021"/>
      <point x="292" y="1021" type="curve" smooth="yes"/>
      <point x="215" y="1021"/>
      <point x="146" y="1042"/>
      <point x="90" y="1093" type="curve"/>
    </contour>
  </outline>
</glyph>
<glyph name="nine-ar" format="2">
  <advance width="675"/>
  <unicode hex="0669"/>
  <outline>
    <contour>
      <point x="414" y="599" type="curve"/>
      <point x="392" y="713" type="line"/>
      <point x="366" y="682"/>
      <point x="300" y="657"/>
      <point x="252" y="657" type="curve" smooth="yes"/>
      <point x="168" y="657"/>
      <point x="122" y="696"/>
      <point x="122" y="743" type="curve" smooth="yes"/>
      <point x="122" y="805"/>
      <point x="161" y="998"/>
      <point x="251" y="998" type="curve" smooth="yes"/>
      <point x="421" y="998"/>
      <point x="404" y="208"/>
      <point x="581" y="-15" type="curve"/>
      <point x="605" y="196" type="line"/>
      <point x="435" y="403"/>
      <point x="453" y="1108"/>
      <point x="291" y="1108" type="curve" smooth="yes"/>
      <point x="143" y="1108"/>
      <point x="70" y="853"/>
      <point x="70" y="714" type="curve" smooth="yes"/>
      <point x="70" y="617"/>
      <point x="113" y="547"/>
      <point x="237" y="547" type="curve" smooth="yes"/>
      <point x="299" y="547"/>
      <point x="392" y="568"/>
    </contour>
  </outline>
</glyph>
<glyph name="qafDotless-ar" format="2">
  <advance width="863"/>
  <unicode hex="066F"/>
  <anchor x="694" y="437" name="above"/>
  <anchor x="253" y="584" name="alefUnused"/>
  <anchor x="430" y="-380" name="below"/>
  <anchor x="430" y="685" name="diaA"/>
  <anchor x="200" y="-420" name="diaB"/>
  <outline>
    <component base="_fehHead" xOffset="549" yOffset="49"/>
    <contour>
      <point x="777" y="29" type="line"/>
      <point x="739" y="-86"/>
      <point x="510" y="-171"/>
      <point x="375" y="-171" type="curve" smooth="yes"/>
      <point x="199" y="-171"/>
      <point x="98" y="-65"/>
      <point x="98" y="80" type="curve" smooth="yes"/>
      <point x="98" y="128"/>
      <point x="109" y="180"/>
      <point x="132" y="234" type="curve"/>
      <point x="118" y="240" type="line"/>
      <point x="65" y="156"/>
      <point x="39" y="71"/>
      <point x="39" y="-5" type="curve" smooth="yes"/>
      <point x="39" y="-162"/>
      <point x="148" y="-281"/>
      <point x="351" y="-281" type="curve" smooth="yes"/>
      <point x="570" y="-281"/>
      <point x="823" y="-124"/>
      <point x="823" y="104" type="curve"/>
    </contour>
  </outline>
</glyph>
<glyph name="kafswash-ar" format="2">
  <advance width="1371"/>
  <unicode hex="06AA"/>
  <anchor x="268" y="841" name="alefUnused"/>
  <anchor x="464" y="988" name="diaA"/>
  <anchor x="310" y="-202" name="diaB"/>
  <outline>
    <component base="_absSwashKaf" xOffset="258"/>
    <contour>
      <point x="460" y="0" type="curve" smooth="yes"/>
      <point x="480" y="0" type="line"/>
      <point x="480" y="110" type="line"/>
      <point x="48" y="110" type="line"/>
      <point x="48" y="90" type="line"/>
      <point x="145" y="26"/>
      <point x="292" y="0"/>
    </contour>
  </outline>
</glyph>
<glyph name="wawring-ar" format="2">
  <advance width="686"/>
  <unicode hex="06C4"/>
  <anchor x="496" y="403" name="above"/>
  <anchor x="192" y="694" name="alefUnused"/>
  <anchor x="493" y="-330" name="below"/>
  <anchor x="267" y="-46" name="center"/>
  <anchor x="313" y="697" name="diaA"/>
  <anchor x="180" y="-474" name="diaB"/>
  <anchor x="333" y="12" name="ring"/>
  <anchor x="504" y="-95" name="through"/>
  <outline>
    <component base="_ring" xOffset="148" yOffset="-179"/>
    <contour>
      <point x="42" y="-250" type="curve"/>
      <point x="67" y="-302"/>
      <point x="181" y="-330"/>
      <point x="207" y="-330" type="curve" smooth="yes"/>
      <point x="386" y="-330"/>
      <point x="626" y="-196"/>
      <point x="626" y="78" type="curve"/>
      <point x="579" y="51" type="line"/>
      <point x="533" y="-138"/>
      <point x="338" y="-233"/>
      <point x="123" y="-233" type="curve" smooth="yes"/>
      <point x="100" y="-233"/>
      <point x="64" y="-254"/>
    </contour>
    <contour>
      <point x="555" y="-86" type="curve"/>
      <point x="585" y="-41"/>
      <point x="610" y="11"/>
      <point x="626" y="78" type="curve"/>
      <point x="626" y="240"/>
      <point x="578" y="363"/>
      <point x="497" y="363" type="curve" smooth="yes"/>
      <point x="442" y="363"/>
      <point x="372" y="258"/>
      <point x="372" y="164" type="curve" smooth="yes"/>
      <point x="372" y="87"/>
      <point x="409" y="43"/>
      <point x="481" y="43" type="curve" smooth="yes"/>
      <point x="528" y="43"/>
      <point x="563" y="63"/>
      <point x="584" y="126" type="curve"/>
      <point x="561" y="196" type="line"/>
      <point x="557" y="165"/>
      <point x="524" y="139"/>
      <point x="491" y="139" type="curve" smooth="yes"/>
      <point x="451" y="139"/>
      <point x="427" y="158"/>
      <point x="427" y="186" type="curve" smooth="yes"/>
      <point x="427" y="207"/>
      <point x="446" y="253"/>
      <point x="491" y="253" type="curve" smooth="yes"/>
      <point x="544" y="253"/>
      <point x="569" y="145"/>
      <point x="569" y="39" type="curve" smooth="yes"/>
      <point x="569" y="-6"/>
      <point x="564" y="-51"/>
    </contour>
  </outline>
</glyph>
<glyph name="fullstop-ar" format="2">
  <advance width="433"/>
  <unicode hex="06D4"/>
  <outline>
    <contour>
      <point x="332" y="0" type="line"/>
      <point x="353" y="92" type="line"/>
      <point x="103" y="92" type="line"/>
      <point x="80" y="0" type="line"/>
    </contour>
  </outline>
</glyph>
<glyph name="sadLamAlefMaksuraabove-ar" format="2">
  <unicode hex="06D6"/>
  <anchor x="-20" y="1007" name="_diaA"/>
  <anchor x="-20" y="1734" name="diaA"/>
  <outline>
    <component base="_lamAlefMaksura"/>
    <contour>
      <point x="162" y="1204" type="curve" smooth="yes"/>
      <point x="271" y="1204"/>
      <point x="416" y="1253"/>
      <point x="416" y="1353" type="curve" smooth="yes"/>
      <point x="416" y="1405"/>
      <point x="382" y="1417"/>
      <point x="348" y="1417" type="curve" smooth="yes"/>
      <point x="272" y="1417"/>
      <point x="165" y="1296"/>
      <point x="133" y="1261" type="curve"/>
      <point x="153" y="1260" type="line"/>
      <point x="208" y="1316"/>
      <point x="290" y="1366"/>
      <point x="317" y="1366" type="curve" smooth="yes"/>
      <point x="351" y="1366"/>
      <point x="379" y="1346"/>
      <point x="379" y="1324" type="curve" smooth="yes"/>
      <point x="379" y="1282"/>
      <point x="266" y="1264"/>
      <point x="153" y="1264" type="curve" smooth="yes"/>
      <point x="113" y="1264"/>
      <point x="61" y="1274"/>
      <point x="54" y="1328" type="curve"/>
      <point x="48" y="1328" type="line"/>
      <point x="39" y="1293"/>
      <point x="22" y="1270"/>
      <point x="-18" y="1270" type="curve" smooth="yes"/>
      <point x="-86" y="1270"/>
      <point x="-101" y="1308"/>
      <point x="-113" y="1509" type="curve"/>
      <point x="-122" y="1283" type="line"/>
      <point x="-104" y="1224"/>
      <point x="-64" y="1210"/>
      <point x="-18" y="1210" type="curve" smooth="yes"/>
      <point x="17" y="1210"/>
      <point x="38" y="1228"/>
      <point x="55" y="1265" type="curve"/>
      <point x="45" y="1258" type="line"/>
      <point x="55" y="1223"/>
      <point x="93" y="1204"/>
    </contour>
  </outline>
</glyph>
<glyph name="meemabove-ar" format="2">
  <unicode hex="06D8"/>
  <anchor x="0" y="987" name="_diaA"/>
  <anchor x="0" y="1234" name="diaA"/>
  <outline>
    <contour>
      <point x="-108" y="1001" type="curve" smooth="yes"/>
      <point x="-84" y="1001"/>
      <point x="-32" y="1026"/>
      <point x="13" y="1090" type="curve" smooth="yes"/>
      <point x="25" y="1107"/>
      <point x="50" y="1191"/>
      <point x="70" y="1190" type="curve" smooth="yes"/>
      <point x="83" y="1190"/>
      <point x="104" y="1126"/>
      <point x="104" y="1106" type="curve" smooth="yes"/>
      <point x="104" y="1103"/>
      <point x="103" y="1102"/>
      <point x="100" y="1102" type="curve" smooth="yes"/>
      <point x="79" y="1102"/>
      <point x="29" y="1129"/>
      <point x="35" y="1143" type="curve"/>
      <point x="6" y="1093" type="line"/>
      <point x="9" y="1077"/>
      <point x="59" y="1042"/>
      <point x="103" y="1042" type="curve" smooth="yes"/>
      <point x="115" y="1042"/>
      <point x="134" y="1066"/>
      <point x="134" y="1095" type="curve" smooth="yes"/>
      <point x="134" y="1159"/>
      <point x="109" y="1216"/>
      <point x="79" y="1216" type="curve" smooth="yes"/>
      <point x="34" y="1216"/>
      <point x="8" y="1127"/>
      <point x="-14" y="1101" type="curve" smooth="yes"/>
      <point x="-59" y="1047"/>
      <point x="-169" y="1023"/>
      <point x="-215" y="1021" type="curve"/>
      <point x="-215" y="1014" type="line"/>
      <point x="-184" y="1007"/>
      <point x="-140" y="1001"/>
    </contour>
  </outline>
</glyph>
<glyph name="maddalong-ar" format="2">
  <unicode hex="06E4"/>
  <anchor x="0" y="1117" name="_diaA"/>
  <anchor x="0" y="1277" name="diaA"/>
  <outline>
    <contour>
      <point x="-140" y="1136" type="curve"/>
      <point x="-117" y="1144" type="line"/>
      <point x="-119" y="1159"/>
      <point x="-123" y="1176"/>
      <point x="-127" y="1190" type="curve"/>
      <point x="-92" y="1178"/>
      <point x="-52" y="1172"/>
      <point x="-12" y="1172" type="curve" smooth="yes"/>
      <point x="58" y="1172"/>
      <point x="129" y="1191"/>
      <point x="180" y="1227" type="curve"/>
      <point x="163" y="1264" type="line"/>
      <point x="113" y="1239"/>
      <point x="52" y="1228"/>
      <point x="-10" y="1228" type="curve" smooth="yes"/>
      <point x="-70" y="1228"/>
      <point x="-130" y="1239"/>
      <point x="-179" y="1256" type="curve"/>
      <point x="-160" y="1216"/>
      <point x="-149" y="1181"/>
    </contour>
  </outline>
</glyph>
<glyph name="five-persian" format="2">
  <advance width="891"/>
  <unicode hex="06F5"/>
  <outline>
    <contour>
      <point x="259" y="-18" type="curve" smooth="yes"/>
      <point x="313" y="-18"/>
      <point x="379" y="6"/>
      <point x="426" y="77" type="curve"/>
      <point x="403" y="79" type="line"/>
      <point x="452" y="0"/>
      <point x="526" y="-15"/>
      <point x="578" y="-15" type="curve" smooth="yes"/>
      <point x="752" y="-15"/>
      <point x="821" y="191"/>
      <point x="821" y="345" type="curve" smooth="yes"/>
      <point x="821" y="633"/>
      <point x="607" y="1002"/>
      <point x="484" y="1093" type="curve"/>
      <point x="376" y="1026"/>
      <point x="70" y="593"/>
      <point x="70" y="261" type="curve" smooth="yes"/>
      <point x="70" y="113"/>
      <point x="146" y="-18"/>
    </contour>
    <contour>
      <point x="293" y="91" type="curve" smooth="yes"/>
      <point x="205" y="91"/>
      <point x="122" y="167"/>
      <point x="122" y="300" type="curve" smooth="yes"/>
      <point x="122" y="438"/>
      <point x="313" y="817"/>
      <point x="459" y="939" type="curve"/>
      <point x="450" y="939" type="line"/>
      <point x="502" y="915"/>
      <point x="765" y="553"/>
      <point x="765" y="297" type="curve" smooth="yes"/>
      <point x="765" y="172"/>
      <point x="676" y="94"/>
      <point x="596" y="94" type="curve" smooth="yes"/>
      <point x="543" y="94"/>
      <point x="483" y="129"/>
      <point x="466" y="209" type="curve"/>
      <point x="451" y="209" type="line"/>
      <point x="410" y="129"/>
      <point x="355" y="91"/>
    </contour>
  </outline>
</glyph>
<glyph name="kashidaWaw-ar" format="2">
  <advance width="600"/>
  <unicode hex="0882"/>
  <anchor x="393" y="491" name="diaA"/>
  <anchor x="114" y="-400" name="diaB"/>
  <outline>
    <component base="waw-ar" xOffset="-50" yOffset="30"/>
    <contour>
      <point x="0" y="0" type="curve" smooth="yes"/>
      <point x="601" y="0" type="line" smooth="yes"/>
      <point x="638" y="0"/>
      <point x="656" y="9"/>
      <point x="656" y="55" type="curve" smooth="yes"/>
      <point x="656" y="102"/>
      <point x="638" y="110"/>
      <point x="601" y="110" type="curve" smooth="yes"/>
      <point x="0" y="110" type="line"/>
      <point x="-38" y="110"/>
      <point x="-56" y="102"/>
      <point x="-56" y="55" type="curve" smooth="yes"/>
      <point x="-56" y="9"/>
      <point x="-38" y="0"/>
    </contour>
  </outline>
</glyph>
<glyph name="kashidaHamza-ar" format="2">
  <advance width="600"/>
  <unicode hex="0883"/>
  <anchor x="300" y="600" name="diaA"/>
  <anchor x="300" y="-200" name="diaB"/>
  <outline>
    <contour>
      <point x="0" y="110" type="line"/>
      <point x="-38" y="110"/>
      <point x="-56" y="102"/>
      <point x="-56" y="55" type="curve" smooth="yes"/>
      <point x="-56" y="9"/>
      <point x="-38" y="0"/>
      <point x="0" y="0" type="curve" smooth="yes"/>
      <point x="601" y="0" type="line" smooth="yes"/>
      <point x="638" y="0"/>
      <point x="656" y="9"/>
      <point x="656" y="55" type="curve" smooth="yes"/>
      <point x="656" y="102"/>
      <point x="638" y="110"/>
      <point x="601" y="110" type="curve" smooth="yes"/>
    </contour>
    <contour>
      <point x="232" y="73" type="curve"/>
      <point x="365" y="168" type="line"/>
      <point x="347" y="165"/>
      <point x="330" y="163"/>
      <point x="316" y="163" type="curve" smooth="yes"/>
      <point x="213" y="163"/>
      <point x="185" y="228"/>
      <point x="185" y="280" type="curve"/>
      <point x="180" y="247" type="line"/>
      <point x="198" y="322"/>
      <point x="288" y="373"/>
      <point x="371" y="373" type="curve" smooth="yes"/>
      <point x="398" y="373"/>
      <point x="424" y="367"/>
      <point x="447" y="356" type="curve"/>
      <point x="466" y="392" type="line"/>
      <point x="437" y="435"/>
      <point x="373" y="450"/>
      <point x="320" y="450" type="curve" smooth="yes"/>
      <point x="235" y="450"/>
      <point x="148" y="354"/>
      <point x="148" y="168" type="curve" smooth="yes"/>
      <point x="148" y="115"/>
      <point x="200" y="84"/>
    </contour>
    <contour>
      <point x="560" y="218" type="line"/>
      <point x="320" y="218"/>
      <point x="190" y="54"/>
      <point x="58" y="-81" type="curve"/>
      <point x="104" y="-115" type="line"/>
      <point x="253" y="19"/>
      <point x="394" y="121"/>
      <point x="502" y="121" type="curve"/>
    </contour>
  </outline>
</glyph>
<glyph name="yehthin-ar" format="2">
  <advance width="980"/>
  <unicode hex="0886"/>
  <anchor x="313" y="539" name="alefUnused"/>
  <anchor x="456" y="700" name="diaA"/>
  <anchor x="294" y="-720" name="diaB"/>
  <outline>
    <component base="_dot2h" xScale="0.65" yScale="0.65" xOffset="293" yOffset="-484"/>
    <contour>
      <point x="896" y="582" type="curve" smooth="yes"/>
      <point x="741" y="582"/>
      <point x="544" y="348"/>
      <point x="544" y="201" type="curve" smooth="yes"/>
      <point x="544" y="23"/>
      <point x="907" y="93"/>
      <point x="891" y="41" type="curve" smooth="yes"/>
      <point x="869" y="-31"/>
      <point x="699" y="-250"/>
      <point x="404" y="-250" type="curve" smooth="yes"/>
      <point x="94" y="-250"/>
      <point x="94" y="-86"/>
      <point x="94" y="0" type="curve" smooth="yes"/>
      <point x="94" y="80"/>
      <point x="121" y="170"/>
      <point x="164" y="271" type="curve"/>
      <point x="152" y="277" type="line"/>
      <point x="78" y="156"/>
      <point x="40" y="42"/>
      <point x="40" y="-53" type="curve" smooth="yes"/>
      <point x="40" y="-213"/>
      <point x="148" y="-320"/>
      <point x="375" y="-320" type="curve" smooth="yes"/>
      <point x="728" y="-320"/>
      <point x="941" y="-78"/>
      <point x="941" y="70" type="curve" smooth="yes"/>
      <point x="941" y="181"/>
      <point x="614" y="53"/>
      <point x="614" y="247" type="curve" smooth="yes"/>
      <point x="614" y="367"/>
      <point x="789" y="508"/>
      <point x="870" y="508" type="curve" smooth="yes"/>
      <point x="898" y="508"/>
      <point x="921" y="496"/>
      <point x="924" y="467" type="curve"/>
      <point x="949" y="496"/>
      <point x="960" y="520"/>
      <point x="960" y="538" type="curve" smooth="yes"/>
      <point x="960" y="569"/>
      <point x="931" y="582"/>
    </contour>
  </outline>
</glyph>
<glyph name="verticaltail-ar" format="2">
  <advance width="397"/>
  <unicode hex="088E"/>
  <anchor x="198" y="521" name="diaA"/>
  <anchor x="163" y="-635" name="diaB"/>
  <outline>
    <contour>
      <point x="199" y="82" type="curve"/>
      <point x="224" y="42"/>
      <point x="280" y="-19"/>
      <point x="344" y="-19" type="curve"/>
      <point x="357" y="72" type="line"/>
      <point x="303" y="72"/>
      <point x="231" y="129"/>
      <point x="201" y="193" type="curve"/>
      <point x="122" y="77" type="line"/>
      <point x="112" y="-236"/>
      <point x="139" y="-299"/>
      <point x="133" y="-594" type="curve"/>
      <point x="155" y="-590"/>
      <point x="176" y="-571"/>
      <point x="181" y="-535" type="curve" smooth="yes"/>
      <point x="210" y="-337"/>
      <point x="198" y="-167"/>
    </contour>
  </outline>
</glyph>
<glyph name="poundmarkabove-ar" format="2">
  <advance width="1303"/>
  <unicode hex="0890"/>
  <anchor x="370" y="0" name="digitR"/>
  <outline>
    <contour>
      <point x="961" y="1098" type="curve"/>
      <point x="1170" y="1112" type="line"/>
      <point x="889" y="1186"/>
      <point x="759" y="1453"/>
      <point x="487" y="1453" type="curve" smooth="yes"/>
      <point x="362" y="1453"/>
      <point x="301" y="1367"/>
      <point x="301" y="1287" type="curve" smooth="yes"/>
      <point x="301" y="1207"/>
      <point x="340" y="1156"/>
      <point x="379" y="1100" type="curve"/>
      <point x="416" y="1099" type="line"/>
      <point x="392" y="1152"/>
      <point x="366" y="1194"/>
      <point x="366" y="1248" type="curve" smooth="yes"/>
      <point x="366" y="1317"/>
      <point x="411" y="1360"/>
      <point x="477" y="1360" type="curve" smooth="yes"/>
      <point x="612" y="1360"/>
      <point x="804" y="1171"/>
    </contour>
    <contour>
      <point x="663" y="1025" type="curve" smooth="yes"/>
      <point x="898" y="1025"/>
      <point x="1097" y="1020"/>
      <point x="1291" y="1020" type="curve"/>
      <point x="1253" y="1124" type="line"/>
      <point x="1054" y="1093"/>
      <point x="823" y="1104"/>
      <point x="586" y="1104" type="curve" smooth="yes"/>
      <point x="404" y="1104"/>
      <point x="217" y="1100"/>
      <point x="35" y="1153" type="curve"/>
      <point x="11" y="1120" type="line"/>
      <point x="156" y="1040"/>
      <point x="406" y="1025"/>
    </contour>
  </outline>
</glyph>
<glyph name="piastremarkabove-ar" format="2">
  <advance width="1303"/>
  <unicode hex="0891"/>
  <anchor x="370" y="0" name="digitR"/>
  <outline>
    <contour>
      <point x="621" y="1025" type="curve" smooth="yes"/>
      <point x="878" y="1025"/>
      <point x="1128" y="1040"/>
      <point x="1273" y="1120" type="curve"/>
      <point x="1249" y="1153" type="line"/>
      <point x="1067" y="1100"/>
      <point x="880" y="1104"/>
      <point x="698" y="1104" type="curve" smooth="yes"/>
      <point x="461" y="1104"/>
      <point x="267" y="1093"/>
      <point x="68" y="1124" type="curve"/>
      <point x="30" y="1020" type="line"/>
      <point x="224" y="1020"/>
      <point x="386" y="1025"/>
    </contour>
    <contour>
      <point x="353" y="1098" type="line"/>
      <point x="528" y="1156"/>
      <point x="722" y="1380"/>
      <point x="857" y="1380" type="curve" smooth="yes"/>
      <point x="943" y="1380"/>
      <point x="1008" y="1317"/>
      <point x="1008" y="1248" type="curve" smooth="yes"/>
      <point x="1008" y="1194"/>
      <point x="980" y="1152"/>
      <point x="928" y="1099" type="curve"/>
      <point x="978" y="1100" type="line"/>
      <point x="1040" y="1156"/>
      <point x="1093" y="1207"/>
      <point x="1093" y="1287" type="curve" smooth="yes"/>
      <point x="1093" y="1367"/>
      <point x="1042" y="1473"/>
      <point x="917" y="1473" type="curve" smooth="yes"/>
      <point x="655" y="1473"/>
      <point x="495" y="1178"/>
      <point x="214" y="1104" type="curve"/>
    </contour>
  </outline>
</glyph>
<glyph name="pepet-ar" format="2">
  <unicode hex="0897"/>
  <anchor x="0" y="1123" name="_diaA"/>
  <anchor x="0" y="1368" name="diaA"/>
  <outline>
    <contour>
      <point x="-81" y="1240" type="curve"/>
      <point x="-26" y="1170"/>
      <point x="37" y="1131"/>
      <point x="48" y="1131" type="curve" smooth="yes"/>
      <point x="61" y="1131"/>
      <point x="167" y="1201"/>
      <point x="241" y="1296" type="curve"/>
      <point x="212" y="1319" type="line"/>
      <point x="160" y="1254"/>
      <point x="79" y="1203"/>
      <point x="69" y="1203" type="curve" smooth="yes"/>
      <point x="57" y="1203"/>
      <point x="4" y="1247"/>
      <point x="-47" y="1312" type="curve"/>
      <point x="-60" y="1312"/>
      <point x="-166" y="1242"/>
      <point x="-240" y="1147" type="curve"/>
      <point x="-211" y="1124" type="line"/>
      <point x="-159" y="1189"/>
      <point x="-91" y="1240"/>
    </contour>
  </outline>
</glyph>
<glyph name="maddawaajib-ar" format="2">
  <unicode hex="089C"/>
  <anchor x="0" y="1029" name="_diaA"/>
  <anchor x="0" y="1435" name="diaA"/>
  <outline>
    <contour>
      <point x="-184" y="1042" type="curve" smooth="yes"/>
      <point x="-182" y="1034"/>
      <point x="-152" y="1034"/>
      <point x="-152" y="1042" type="curve" smooth="yes"/>
      <point x="-147" y="1086"/>
      <point x="-156" y="1129"/>
      <point x="-166" y="1155" type="curve" smooth="yes"/>
      <point x="-178" y="1187"/>
      <point x="-183" y="1197"/>
      <point x="-193" y="1228" type="curve"/>
      <point x="-142" y="1186"/>
      <point x="-86" y="1160"/>
      <point x="-25" y="1160" type="curve" smooth="yes"/>
      <point x="78" y="1160"/>
      <point x="183" y="1215"/>
      <point x="245" y="1309" type="curve"/>
      <point x="230" y="1328" type="line"/>
      <point x="146" y="1270"/>
      <point x="67" y="1243"/>
      <point x="-2" y="1243" type="curve" smooth="yes"/>
      <point x="-71" y="1243"/>
      <point x="-151" y="1296"/>
      <point x="-199" y="1346" type="curve"/>
      <point x="-231" y="1319"/>
      <point x="-256" y="1288"/>
      <point x="-274" y="1239" type="curve"/>
      <point x="-223" y="1168"/>
      <point x="-199" y="1101"/>
    </contour>
  </outline>
</glyph>
<glyph name="alefmokhassasabove-ar" format="2">
  <unicode hex="089D"/>
  <anchor x="0" y="952" name="_diaA"/>
  <anchor x="0" y="1669" name="diaA"/>
  <outline>
    <contour>
      <point x="-244" y="1593" type="line"/>
      <point x="-250" y="1391"/>
      <point x="-231" y="1261"/>
      <point x="-237" y="955" type="curve"/>
      <point x="-223" y="958"/>
      <point x="-210" y="971"/>
      <point x="-206" y="994" type="curve" smooth="yes"/>
      <point x="-170" y="1194"/>
      <point x="-199" y="1465"/>
      <point x="-193" y="1669" type="curve"/>
    </contour>
    <contour>
      <point x="232" y="1458" type="curve" smooth="yes"/>
      <point x="124" y="1451"/>
      <point x="-29" y="1419"/>
      <point x="-59" y="1396" type="curve" smooth="yes"/>
      <point x="-117" y="1353"/>
      <point x="-227" y="1059"/>
      <point x="-223" y="985" type="curve" smooth="yes"/>
      <point x="-223" y="984"/>
      <point x="-210" y="979"/>
      <point x="-209" y="983" type="curve" smooth="yes"/>
      <point x="-172" y="1094"/>
      <point x="-66" y="1308"/>
      <point x="-37" y="1329" type="curve" smooth="yes"/>
      <point x="0" y="1356"/>
      <point x="138" y="1371"/>
      <point x="220" y="1371" type="curve" smooth="yes"/>
      <point x="232" y="1371"/>
      <point x="257" y="1460"/>
    </contour>
  </outline>
</glyph>
<glyph name="maddadoubled-ar" format="2">
  <unicode hex="089E"/>
  <anchor x="0" y="1123" name="_diaA"/>
  <anchor x="0" y="1468" name="diaA"/>
  <outline>
    <component base="_madda" xOffset="21" yOffset="1181"/>
    <contour>
      <point x="-208" y="1323" type="line"/>
      <point x="-187" y="1350"/>
      <point x="-177" y="1369"/>
      <point x="-171" y="1398" type="curve"/>
      <point x="-121" y="1347"/>
      <point x="-50" y="1307"/>
      <point x="9" y="1307" type="curve" smooth="yes"/>
      <point x="93" y="1307"/>
      <point x="176" y="1352"/>
      <point x="221" y="1391" type="curve"/>
      <point x="207" y="1411" type="line"/>
      <point x="162" y="1375"/>
      <point x="94" y="1346"/>
      <point x="23" y="1346" type="curve" smooth="yes"/>
      <point x="-59" y="1346"/>
      <point x="-122" y="1399"/>
      <point x="-182" y="1451" type="curve"/>
      <point x="-192" y="1405"/>
      <point x="-200" y="1381"/>
      <point x="-224" y="1336" type="curve"/>
    </contour>
  </outline>
</glyph>
<glyph name="halfmaddaovermadda-ar" format="2">
  <unicode hex="089F"/>
  <anchor x="0" y="1123" name="_diaA"/>
  <anchor x="0" y="1468" name="diaA"/>
  <outline>
    <component base="_madda" xOffset="21" yOffset="1181"/>
    <contour>
      <point x="54" y="1348" type="line"/>
      <point x="44" y="1347"/>
      <point x="33" y="1346"/>
      <point x="23" y="1346" type="curve" smooth="yes"/>
      <point x="-59" y="1346"/>
      <point x="-122" y="1399"/>
      <point x="-182" y="1451" type="curve"/>
      <point x="-192" y="1405"/>
      <point x="-200" y="1381"/>
      <point x="-224" y="1336" type="curve"/>
      <point x="-208" y="1323" type="line"/>
      <point x="-187" y="1350"/>
      <point x="-177" y="1369"/>
      <point x="-171" y="1398" type="curve"/>
      <point x="-121" y="1347"/>
      <point x="-50" y="1307"/>
      <point x="9" y="1307" type="curve" smooth="yes"/>
      <point x="27" y="1307"/>
      <point x="46" y="1309"/>
      <point x="64" y="1313" type="curve"/>
    </contour>
  </outline>
</glyph>
<glyph name="rehLoop-ar" format="2">
  <advance width="604"/>
  <unicode hex="08AA"/>
  <anchor x="136" y="698" name="alefUnused"/>
  <anchor x="294" y="697" name="diaA"/>
  <anchor x="236" y="-516" name="diaB"/>
  <outline>
    <contour>
      <point x="368" y="-344" type="curve"/>
      <point x="379" y="-333" type="line"/>
      <point x="274" y="-234"/>
      <point x="120" y="-114"/>
      <point x="-18" y="-114" type="curve" smooth="yes"/>
      <point x="-81" y="-114"/>
      <point x="-111" y="-148"/>
      <point x="-111" y="-205" type="curve" smooth="yes"/>
      <point x="-111" y="-282"/>
      <point x="66" y="-330"/>
      <point x="146" y="-330" type="curve" smooth="yes"/>
      <point x="230" y="-330"/>
      <point x="324" y="-256"/>
      <point x="396" y="-155" type="curve" smooth="yes"/>
      <point x="468" y="-55"/>
      <point x="519" y="71"/>
      <point x="519" y="178" type="curve" smooth="yes"/>
      <point x="519" y="213"/>
      <point x="458" y="304"/>
      <point x="374" y="352" type="curve"/>
      <point x="344" y="237" type="line"/>
      <point x="407" y="205"/>
      <point x="474" y="144"/>
      <point x="474" y="110" type="curve" smooth="yes"/>
      <point x="474" y="-26"/>
      <point x="180" y="-259"/>
      <point x="14" y="-259" type="curve" smooth="yes"/>
      <point x="-23" y="-259"/>
      <point x="-43" y="-241"/>
      <point x="-43" y="-222" type="curve" smooth="yes"/>
      <point x="-43" y="-204"/>
      <point x="-23" y="-186"/>
      <point x="17" y="-186" type="curve" smooth="yes"/>
      <point x="108" y="-186"/>
      <point x="218" y="-225"/>
    </contour>
  </outline>
</glyph>
<glyph name="yehRohingya-ar" format="2">
  <advance width="962"/>
  <unicode hex="08AC"/>
  <anchor x="478" y="700" name="diaA"/>
  <anchor x="496" y="-381" name="diaB"/>
  <outline>
    <component base="_dot2h" xOffset="495" yOffset="-230"/>
    <contour>
      <point x="712" y="-4" type="curve" smooth="yes"/>
      <point x="765" y="-4"/>
      <point x="818" y="10"/>
      <point x="865" y="41" type="curve"/>
      <point x="909" y="151" type="line"/>
      <point x="855" y="123"/>
      <point x="804" y="110"/>
      <point x="733" y="110" type="curve" smooth="yes"/>
      <point x="559" y="110"/>
      <point x="459" y="190"/>
      <point x="459" y="330" type="curve" smooth="yes"/>
      <point x="459" y="364"/>
      <point x="513" y="471"/>
      <point x="567" y="471" type="curve" smooth="yes"/>
      <point x="624" y="471"/>
      <point x="651" y="381"/>
      <point x="651" y="343" type="curve" smooth="yes"/>
      <point x="651" y="196"/>
      <point x="476" y="102"/>
      <point x="288" y="102" type="curve" smooth="yes"/>
      <point x="203" y="102"/>
      <point x="117" y="121"/>
      <point x="42" y="163" type="curve"/>
      <point x="35" y="146" type="line"/>
      <point x="113" y="42"/>
      <point x="215" y="-4"/>
      <point x="316" y="-4" type="curve" smooth="yes"/>
      <point x="510" y="-4"/>
      <point x="699" y="166"/>
      <point x="699" y="405" type="curve" smooth="yes"/>
      <point x="699" y="482"/>
      <point x="660" y="577"/>
      <point x="598" y="577" type="curve" smooth="yes"/>
      <point x="483" y="577"/>
      <point x="413" y="384"/>
      <point x="413" y="269" type="curve" smooth="yes"/>
      <point x="413" y="108"/>
      <point x="562" y="-4"/>
    </contour>
  </outline>
</glyph>
<glyph name="aleflow-ar" format="2">
  <advance width="162"/>
  <unicode hex="08AD"/>
  <anchor x="76" y="50" name="diaA"/>
  <anchor x="76" y="-500" name="diaB"/>
  <outline>
    <contour>
      <point x="15" y="-143" type="line"/>
      <point x="87" y="-230"/>
      <point x="102" y="-333"/>
      <point x="99" y="-434" type="curve"/>
      <point x="125" y="-434" type="line"/>
      <point x="148" y="-306"/>
      <point x="116" y="-134"/>
      <point x="35" y="-48" type="curve"/>
    </contour>
  </outline>
</glyph>
<glyph name="kehehElongatedhamzaabove-ar" format="2">
  <advance width="1228"/>
  <unicode hex="08C8"/>
  <anchor x="187" y="609" name="_above"/>
  <anchor x="228" y="773" name="alefUnused"/>
  <anchor x="535" y="1118" name="diaA"/>
  <anchor x="300" y="-202" name="diaB"/>
  <outline>
    <component base="keheh-ar"/>
    <component base="_gafBarShort" xOffset="639" yOffset="835"/>
    <contour>
      <point x="975" y="1065" type="curve"/>
      <point x="1067" y="1130" type="line"/>
      <point x="1055" y="1128"/>
      <point x="1043" y="1127"/>
      <point x="1033" y="1127" type="curve" smooth="yes"/>
      <point x="962" y="1127"/>
      <point x="943" y="1172"/>
      <point x="943" y="1208" type="curve"/>
      <point x="939" y="1185" type="line"/>
      <point x="952" y="1237"/>
      <point x="1014" y="1272"/>
      <point x="1071" y="1272" type="curve" smooth="yes"/>
      <point x="1090" y="1272"/>
      <point x="1108" y="1268"/>
      <point x="1124" y="1260" type="curve"/>
      <point x="1137" y="1285" type="line"/>
      <point x="1117" y="1315"/>
      <point x="1073" y="1325"/>
      <point x="1036" y="1325" type="curve" smooth="yes"/>
      <point x="977" y="1325"/>
      <point x="917" y="1259"/>
      <point x="917" y="1130" type="curve" smooth="yes"/>
      <point x="917" y="1094"/>
      <point x="953" y="1072"/>
    </contour>
  </outline>
</glyph>
<glyph name="yehSmall-farsi" format="2">
  <advance width="408"/>
  <unicode hex="08C9"/>
  <anchor x="185" y="276" name="diaA"/>
  <anchor x="180" y="-142" name="diaB"/>
  <outline>
    <contour>
      <point x="362" y="263" type="curve" smooth="yes"/>
      <point x="300" y="263"/>
      <point x="222" y="155"/>
      <point x="222" y="96" type="curve" smooth="yes"/>
      <point x="222" y="25"/>
      <point x="363" y="53"/>
      <point x="356" y="32" type="curve" smooth="yes"/>
      <point x="348" y="4"/>
      <point x="284" y="-68"/>
      <point x="166" y="-68" type="curve" smooth="yes"/>
      <point x="74" y="-68"/>
      <point x="50" y="-26"/>
      <point x="50" y="40" type="curve" smooth="yes"/>
      <point x="50" y="63"/>
      <point x="56" y="91"/>
      <point x="70" y="124" type="curve"/>
      <point x="65" y="127" type="line"/>
      <point x="35" y="78"/>
      <point x="20" y="33"/>
      <point x="20" y="-5" type="curve" smooth="yes"/>
      <point x="20" y="-69"/>
      <point x="63" y="-112"/>
      <point x="154" y="-112" type="curve" smooth="yes"/>
      <point x="295" y="-112"/>
      <point x="380" y="-15"/>
      <point x="380" y="60" type="curve" smooth="yes"/>
      <point x="380" y="104"/>
      <point x="250" y="69"/>
      <point x="250" y="119" type="curve" smooth="yes"/>
      <point x="250" y="151"/>
      <point x="320" y="219"/>
      <point x="352" y="219" type="curve" smooth="yes"/>
      <point x="363" y="219"/>
      <point x="372" y="214"/>
      <point x="374" y="203" type="curve"/>
      <point x="382" y="215"/>
      <point x="388" y="228"/>
      <point x="388" y="239" type="curve" smooth="yes"/>
      <point x="388" y="254"/>
      <point x="376" y="263"/>
    </contour>
  </outline>
</glyph>
<glyph name="largecirclebelow-ar" format="2">
  <unicode hex="08D1"/>
  <anchor x="0" y="48" name="_diaB"/>
  <anchor x="0" y="-289" name="diaB"/>
  <outline>
    <contour>
      <point x="0" y="-276" type="curve" smooth="yes"/>
      <point x="85" y="-276"/>
      <point x="155" y="-207"/>
      <point x="155" y="-122" type="curve" smooth="yes"/>
      <point x="155" y="-37"/>
      <point x="85" y="33"/>
      <point x="0" y="33" type="curve" smooth="yes"/>
      <point x="-85" y="33"/>
      <point x="-155" y="-37"/>
      <point x="-155" y="-122" type="curve" smooth="yes"/>
      <point x="-155" y="-207"/>
      <point x="-85" y="-276"/>
    </contour>
    <contour>
      <point x="0" y="-240" type="curve" smooth="yes"/>
      <point x="-64" y="-240"/>
      <point x="-119" y="-186"/>
      <point x="-119" y="-122" type="curve" smooth="yes"/>
      <point x="-119" y="-58"/>
      <point x="-64" y="-3"/>
      <point x="0" y="-3" type="curve" smooth="yes"/>
      <point x="64" y="-3"/>
      <point x="119" y="-58"/>
      <point x="119" y="-122" type="curve" smooth="yes"/>
      <point x="119" y="-186"/>
      <point x="64" y="-240"/>
    </contour>
  </outline>
</glyph>
<glyph name="arrubabove-ar" format="2">
  <advance width="817" height="2961"/>
  <unicode hex="08D4"/>
  <anchor x="409" y="-306" name="_diaA"/>
  <anchor x="409" y="478" name="diaA"/>
  <outline>
    <component base="alef-ar" xScale="0.45" yScale="0.45" xOffset="723"/>
    <component base="lam-ar.init" xScale="0.45" yScale="0.45" xOffset="573"/>
    <component base="reh-ar.fina" xScale="0.45" yScale="0.45" xOffset="353"/>
    <component base="behDotless-ar.init" xScale="0.45" yScale="0.45" xOffset="292"/>
    <component base="_dot1" xScale="0.45" yScale="0.45" xOffset="383" yOffset="-62"/>
    <contour>
      <point x="232" y="-285" type="curve"/>
      <point x="320" y="-237" type="line"/>
      <point x="320" y="-228" type="line"/>
      <point x="226" y="-228" type="line" smooth="yes"/>
      <point x="108" y="-228"/>
      <point x="21" y="-199"/>
      <point x="21" y="-99" type="curve" smooth="yes"/>
      <point x="21" y="117"/>
      <point x="216" y="78"/>
      <point x="216" y="172" type="curve" smooth="yes"/>
      <point x="216" y="205"/>
      <point x="172" y="215"/>
      <point x="142" y="215" type="curve" smooth="yes"/>
      <point x="88" y="215"/>
      <point x="54" y="183"/>
      <point x="51" y="130" type="curve"/>
      <point x="78" y="131"/>
      <point x="105" y="122"/>
      <point x="117" y="107" type="curve"/>
      <point x="114" y="115" type="line"/>
      <point x="58" y="67"/>
      <point x="0" y="2"/>
      <point x="0" y="-104" type="curve" smooth="yes"/>
      <point x="0" y="-207"/>
      <point x="50" y="-284"/>
    </contour>
    <contour>
      <point x="322" y="0" type="curve" smooth="yes"/>
      <point x="336" y="0"/>
      <point x="340" y="10"/>
      <point x="340" y="28" type="curve" smooth="yes"/>
      <point x="340" y="46"/>
      <point x="336" y="50"/>
      <point x="322" y="50" type="curve" smooth="yes"/>
      <point x="237" y="50"/>
      <point x="183" y="86"/>
      <point x="152" y="116" type="curve"/>
      <point x="126" y="102" type="line"/>
      <point x="182" y="27"/>
      <point x="232" y="0"/>
    </contour>
  </outline>
</glyph>
<glyph name="fathaCurly-ar" format="2">
  <unicode hex="08E4"/>
  <anchor x="173" y="1107" name="_diaA"/>
  <anchor x="136" y="1395" name="diaA"/>
  <outline>
    <contour>
      <point x="69" y="1056" type="line"/>
      <point x="-81" y="1206"/>
      <point x="452" y="1156"/>
      <point x="232" y="1376" type="curve"/>
      <point x="217" y="1363" type="line"/>
      <point x="367" y="1213"/>
      <point x="-166" y="1263"/>
      <point x="54" y="1043" type="curve"/>
    </contour>
  </outline>
</glyph>
<glyph name="fathaRing-ar" format="2">
  <unicode hex="08F4"/>
  <anchor x="0" y="976" name="_diaA"/>
  <anchor x="0" y="1378" name="diaA"/>
  <outline>
    <component base="_ring" xOffset="4" yOffset="1162"/>
    <contour>
      <point x="-183" y="1055" type="line"/>
      <point x="120" y="1205" type="line"/>
      <point x="142" y="1269" type="line"/>
      <point x="-161" y="1116" type="line"/>
    </contour>
  </outline>
</glyph>
<glyph name="nonbreakinghyphen" format="2">
  <advance width="582"/>
  <unicode hex="2011"/>
  <outline>
    <contour>
      <point x="131" y="288" type="line"/>
      <point x="451" y="332" type="line"/>
      <point x="451" y="417" type="line"/>
      <point x="131" y="375" type="line"/>
    </contour>
  </outline>
</glyph>
<glyph name="daggerdbl" format="2">
  <advance width="705"/>
  <unicode hex="2021"/>
  <note>
daggerdbl
</note>
  <outline>
    <contour>
      <point x="566" y="303" type="curve" smooth="yes"/>
      <point x="502" y="303"/>
      <point x="418" y="277"/>
      <point x="365" y="276" type="curve"/>
      <point x="378" y="375"/>
      <point x="391" y="462"/>
      <point x="406" y="553" type="curve"/>
      <point x="391" y="645"/>
      <point x="378" y="733"/>
      <point x="365" y="832" type="curve"/>
      <point x="418" y="831"/>
      <point x="502" y="805"/>
      <point x="566" y="805" type="curve" smooth="yes"/>
      <point x="601" y="805"/>
      <point x="625" y="823"/>
      <point x="625" y="847" type="curve" smooth="yes"/>
      <point x="625" y="871"/>
      <point x="601" y="890"/>
      <point x="566" y="890" type="curve" smooth="yes"/>
      <point x="503" y="890"/>
      <point x="425" y="866"/>
      <point x="369" y="863" type="curve"/>
      <point x="370" y="919"/>
      <point x="394" y="998"/>
      <point x="394" y="1060" type="curve" smooth="yes"/>
      <point x="394" y="1096"/>
      <point x="377" y="1120"/>
      <point x="353" y="1120" type="curve" smooth="yes"/>
      <point x="329" y="1120"/>
      <point x="309" y="1096"/>
      <point x="309" y="1060" type="curve" smooth="yes"/>
      <point x="309" y="998"/>
      <point x="333" y="919"/>
      <point x="337" y="863" type="curve"/>
      <point x="280" y="866"/>
      <point x="202" y="890"/>
      <point x="139" y="890" type="curve" smooth="yes"/>
      <point x="104" y="890"/>
      <point x="80" y="871"/>
      <point x="80" y="847" type="curve" smooth="yes"/>
      <point x="80" y="823"/>
      <point x="104" y="805"/>
      <point x="139" y="805" type="curve" smooth="yes"/>
      <point x="203" y="805"/>
      <point x="285" y="831"/>
      <point x="340" y="832" type="curve"/>
      <point x="327" y="733"/>
      <point x="314" y="645"/>
      <point x="298" y="553" type="curve"/>
      <point x="314" y="462"/>
      <point x="327" y="375"/>
      <point x="340" y="276" type="curve"/>
      <point x="285" y="277"/>
      <point x="203" y="303"/>
      <point x="139" y="303" type="curve" smooth="yes"/>
      <point x="104" y="303"/>
      <point x="80" y="285"/>
      <point x="80" y="261" type="curve" smooth="yes"/>
      <point x="80" y="237"/>
      <point x="104" y="218"/>
      <point x="139" y="218" type="curve" smooth="yes"/>
      <point x="202" y="218"/>
      <point x="280" y="242"/>
      <point x="337" y="245" type="curve"/>
      <point x="333" y="189"/>
      <point x="309" y="110"/>
      <point x="309" y="48" type="curve" smooth="yes"/>
      <point x="309" y="12"/>
      <point x="329" y="-11"/>
      <point x="353" y="-11" type="curve" smooth="yes"/>
      <point x="377" y="-11"/>
      <point x="394" y="12"/>
      <point x="394" y="48" type="curve" smooth="yes"/>
      <point x="394" y="110"/>
      <point x="370" y="189"/>
      <point x="369" y="245" type="curve"/>
      <point x="425" y="242"/>
      <point x="503" y="218"/>
      <point x="566" y="218" type="curve" smooth="yes"/>
      <point x="601" y="218"/>
      <point x="625" y="237"/>
      <point x="625" y="261" type="curve" smooth="yes"/>
      <point x="625" y="285"/>
      <point x="601" y="303"/>
    </contour>
  </outline>
</glyph>
<glyph name="guilsinglleft" format="2">
  <advance width="382"/>
  <unicode hex="2039"/>
  <outline>
    <contour>
      <point x="235" y="17" type="curve"/>
      <point x="296" y="55" type="line"/>
      <point x="133" y="202"/>
      <point x="118" y="431"/>
      <point x="282" y="583" type="curve"/>
      <point x="240" y="619" type="line"/>
      <point x="56" y="443"/>
      <point x="48" y="198"/>
    </contour>
  </outline>
</glyph>
<glyph name="foursuperior" format="2">
  <advance width="642"/>
  <unicode hex="2074"/>
  <outline>
    <contour>
      <point x="464" y="384" type="line"/>
      <point x="464" y="785" type="line"/>
      <point x="464" y="840"/>
      <point x="465" y="896"/>
      <point x="467" y="947" type="curve"/>
      <point x="424" y="947" type="line"/>
      <point x="77" y="523" type="line"/>
      <point x="85" y="483" type="line"/>
      <point x="566" y="483" type="line"/>
      <point x="566" y="559" type="line"/>
      <point x="164" y="559" type="line"/>
      <point x="157" y="535" type="line"/>
      <point x="396" y="827" type="line"/>
      <point x="377" y="835" type="line"/>
      <point x="377" y="384" type="line"/>
      <point x="286" y="368" type="line"/>
      <point x="287" y="320" type="line"/>
      <point x="536" y="320" type="line"/>
      <point x="539" y="368" type="line"/>
    </contour>
  </outline>
</glyph>
<glyph name="riyalSaudi" format="2">
  <advance width="1135"/>
  <unicode hex="20C1"/>
  <outline>
    <contour>
      <point x="100" y="62" type="curve"/>
      <point x="169" y="77"/>
      <point x="359" y="117"/>
      <point x="384" y="122" type="curve" smooth="yes"/>
      <point x="419" y="128"/>
      <point x="435" y="141"/>
      <point x="453" y="167" type="curve" smooth="yes"/>
      <point x="467" y="187"/>
      <point x="479" y="205"/>
      <point x="485" y="219" type="curve" smooth="yes"/>
      <point x="490" y="231"/>
      <point x="497" y="248"/>
      <point x="497" y="271" type="curve" smooth="yes"/>
      <point x="497" y="956" type="line"/>
      <point x="464" y="938"/>
      <point x="442" y="921"/>
      <point x="423" y="896" type="curve"/>
      <point x="423" y="216" type="line"/>
      <point x="129" y="156" type="line"/>
      <point x="116" y="125"/>
      <point x="106" y="92"/>
    </contour>
    <contour>
      <point x="611" y="-12" type="curve"/>
      <point x="949" y="60" type="line"/>
      <point x="957" y="80"/>
      <point x="967" y="114"/>
      <point x="972" y="144" type="curve"/>
      <point x="640" y="72" type="line"/>
      <point x="624" y="51"/>
      <point x="615" y="23"/>
    </contour>
    <contour>
      <point x="151" y="310" type="curve"/>
      <point x="949" y="477" type="line"/>
      <point x="958" y="500"/>
      <point x="967" y="531"/>
      <point x="972" y="561" type="curve"/>
      <point x="179" y="394" type="line"/>
      <point x="166" y="373"/>
      <point x="156" y="340"/>
    </contour>
    <contour>
      <point x="626" y="198" type="line"/>
      <point x="949" y="268" type="line"/>
      <point x="957" y="289"/>
      <point x="967" y="322"/>
      <point x="972" y="352" type="curve"/>
      <point x="700" y="296" type="line"/>
      <point x="700" y="904" type="line"/>
      <point x="668" y="886"/>
      <point x="649" y="868"/>
      <point x="626" y="843" type="curve"/>
    </contour>
  </outline>
</glyph>
<glyph name="rufiyaa" format="2">
  <advance width="913"/>
  <unicode hex="20C2"/>
  <outline>
    <contour>
      <point x="73" y="-6" type="curve" smooth="yes"/>
      <point x="114" y="-6"/>
      <point x="193" y="149"/>
      <point x="665" y="683" type="curve"/>
      <point x="774" y="801"/>
      <point x="890" y="890"/>
      <point x="890" y="924" type="curve" smooth="yes"/>
      <point x="890" y="941"/>
      <point x="879" y="956"/>
      <point x="852" y="956" type="curve" smooth="yes"/>
      <point x="827" y="956"/>
      <point x="812" y="950"/>
      <point x="778" y="918" type="curve" smooth="yes"/>
      <point x="585" y="732" type="line"/>
      <point x="84" y="137" type="line"/>
      <point x="75" y="125"/>
      <point x="57" y="127"/>
      <point x="34" y="127" type="curve" smooth="yes"/>
      <point x="11" y="127"/>
      <point x="0" y="124"/>
      <point x="0" y="88" type="curve" smooth="yes"/>
      <point x="0" y="28"/>
      <point x="49" y="-6"/>
    </contour>
    <contour>
      <point x="849" y="592" type="curve" smooth="yes"/>
      <point x="884" y="592"/>
      <point x="913" y="620"/>
      <point x="913" y="642" type="curve" smooth="yes"/>
      <point x="913" y="663"/>
      <point x="913" y="680"/>
      <point x="889" y="687" type="curve" smooth="yes"/>
      <point x="803" y="711"/>
      <point x="498" y="789"/>
      <point x="444" y="789" type="curve" smooth="yes"/>
      <point x="411" y="789"/>
      <point x="382" y="767"/>
      <point x="382" y="739" type="curve" smooth="yes"/>
      <point x="382" y="714"/>
      <point x="391" y="701"/>
      <point x="428" y="693" type="curve" smooth="yes"/>
      <point x="564" y="662"/>
      <point x="813" y="592"/>
    </contour>
    <contour>
      <point x="712" y="404" type="curve" smooth="yes"/>
      <point x="746" y="404"/>
      <point x="763" y="433"/>
      <point x="763" y="454" type="curve" smooth="yes"/>
      <point x="763" y="475"/>
      <point x="752" y="492"/>
      <point x="728" y="499" type="curve" smooth="yes"/>
      <point x="643" y="524"/>
      <point x="354" y="601"/>
      <point x="300" y="601" type="curve" smooth="yes"/>
      <point x="268" y="601"/>
      <point x="246" y="575"/>
      <point x="246" y="549" type="curve" smooth="yes"/>
      <point x="246" y="525"/>
      <point x="264" y="515"/>
      <point x="295" y="505" type="curve" smooth="yes"/>
      <point x="456" y="451"/>
      <point x="675" y="404"/>
    </contour>
  </outline>
</glyph>
<glyph name="uaeDirham" format="2">
  <advance width="1273"/>
  <unicode hex="20C3"/>
  <outline>
    <component base="D" xOffset="53"/>
    <contour>
      <point x="100" y="607" type="line"/>
      <point x="100" y="569"/>
      <point x="122" y="520"/>
      <point x="180" y="520" type="curve"/>
      <point x="1173" y="520" type="line"/>
      <point x="1173" y="566"/>
      <point x="1151" y="607"/>
      <point x="1093" y="607" type="curve"/>
    </contour>
    <contour>
      <point x="100" y="433" type="line"/>
      <point x="100" y="395"/>
      <point x="122" y="346"/>
      <point x="180" y="346" type="curve"/>
      <point x="1173" y="346" type="line"/>
      <point x="1173" y="392"/>
      <point x="1151" y="433"/>
      <point x="1093" y="433" type="curve"/>
    </contour>
  </outline>
</glyph>
<glyph name="omaniRial" format="2">
  <advance width="1517"/>
  <unicode hex="20C4"/>
  <outline>
    <contour>
      <point x="798" y="166" type="curve"/>
      <point x="1133" y="192" type="line"/>
      <point x="974" y="189"/>
      <point x="540" y="427"/>
      <point x="540" y="680" type="curve"/>
      <point x="530" y="578" type="line"/>
      <point x="581" y="748"/>
      <point x="727" y="831"/>
      <point x="861" y="831" type="curve" smooth="yes"/>
      <point x="905" y="831"/>
      <point x="947" y="822"/>
      <point x="984" y="803" type="curve"/>
      <point x="1016" y="862" type="line"/>
      <point x="968" y="932"/>
      <point x="864" y="956"/>
      <point x="778" y="956" type="curve" smooth="yes"/>
      <point x="641" y="956"/>
      <point x="500" y="801"/>
      <point x="500" y="499" type="curve" smooth="yes"/>
      <point x="500" y="354"/>
      <point x="726" y="214"/>
    </contour>
    <contour>
      <point x="1326" y="192" type="line"/>
      <point x="68" y="192" type="line"/>
      <point x="0" y="99" type="line"/>
      <point x="1258" y="99" type="line"/>
    </contour>
    <contour>
      <point x="1517" y="479" type="line"/>
      <point x="259" y="479" type="line"/>
      <point x="196" y="386" type="line"/>
      <point x="1454" y="386" type="line"/>
    </contour>
  </outline>
</glyph>
<glyph name="partialdiff" format="2">
  <advance width="818"/>
  <unicode hex="2202"/>
  <note>
partialdiff
</note>
  <outline>
    <contour>
      <point x="343" y="-11" type="curve" smooth="yes"/>
      <point x="632" y="-11"/>
      <point x="768" y="401"/>
      <point x="768" y="682" type="curve" smooth="yes"/>
      <point x="768" y="1017"/>
      <point x="601" y="1115"/>
      <point x="396" y="1115" type="curve" smooth="yes"/>
      <point x="361" y="1115"/>
      <point x="333" y="1112"/>
      <point x="300" y="1107" type="curve"/>
      <point x="300" y="1043" type="line"/>
      <point x="365" y="1043" type="line" smooth="yes"/>
      <point x="526" y="1043"/>
      <point x="672" y="974"/>
      <point x="672" y="711" type="curve" smooth="yes"/>
      <point x="672" y="661"/>
      <point x="666" y="605"/>
      <point x="654" y="540" type="curve"/>
      <point x="666" y="515" type="line"/>
      <point x="638" y="633"/>
      <point x="547" y="698"/>
      <point x="441" y="698" type="curve" smooth="yes"/>
      <point x="219" y="698"/>
      <point x="85" y="473"/>
      <point x="85" y="266" type="curve" smooth="yes"/>
      <point x="85" y="105"/>
      <point x="174" y="-11"/>
    </contour>
    <contour>
      <point x="356" y="56" type="curve" smooth="yes"/>
      <point x="256" y="56"/>
      <point x="192" y="131"/>
      <point x="192" y="266" type="curve" smooth="yes"/>
      <point x="192" y="422"/>
      <point x="271" y="629"/>
      <point x="439" y="629" type="curve" smooth="yes"/>
      <point x="539" y="629"/>
      <point x="629" y="556"/>
      <point x="629" y="412" type="curve" smooth="yes"/>
      <point x="629" y="261"/>
      <point x="529" y="56"/>
    </contour>
  </outline>
</glyph>
<glyph name="product" format="2">
  <advance width="983"/>
  <unicode hex="220F"/>
  <outline>
    <contour>
      <point x="794" y="158" type="curve" smooth="yes"/>
      <point x="794" y="637" type="line" smooth="yes"/>
      <point x="794" y="815"/>
      <point x="796" y="858"/>
      <point x="804" y="869" type="curve"/>
      <point x="900" y="890" type="line"/>
      <point x="897" y="942" type="line"/>
      <point x="86" y="942" type="line"/>
      <point x="83" y="890" type="line"/>
      <point x="179" y="869" type="line"/>
      <point x="186" y="855"/>
      <point x="187" y="786"/>
      <point x="187" y="637" type="curve" smooth="yes"/>
      <point x="187" y="158" type="line" smooth="yes"/>
      <point x="187" y="11"/>
      <point x="186" y="-57"/>
      <point x="184" y="-72" type="curve"/>
      <point x="88" y="-93" type="line"/>
      <point x="91" y="-144" type="line"/>
      <point x="386" y="-144" type="line"/>
      <point x="390" y="-93" type="line"/>
      <point x="292" y="-72" type="line"/>
      <point x="288" y="-60"/>
      <point x="285" y="-9"/>
      <point x="285" y="158" type="curve" smooth="yes"/>
      <point x="285" y="637" type="line" smooth="yes"/>
      <point x="285" y="808"/>
      <point x="288" y="858"/>
      <point x="292" y="868" type="curve"/>
      <point x="343" y="871"/>
      <point x="417" y="871"/>
      <point x="492" y="871" type="curve" smooth="yes"/>
      <point x="568" y="871"/>
      <point x="640" y="871"/>
      <point x="691" y="868" type="curve"/>
      <point x="696" y="858"/>
      <point x="696" y="808"/>
      <point x="696" y="637" type="curve" smooth="yes"/>
      <point x="696" y="158" type="line" smooth="yes"/>
      <point x="696" y="-9"/>
      <point x="693" y="-60"/>
      <point x="688" y="-72" type="curve"/>
      <point x="592" y="-93" type="line"/>
      <point x="595" y="-144" type="line"/>
      <point x="892" y="-144" type="line"/>
      <point x="895" y="-93" type="line"/>
      <point x="799" y="-72" type="line"/>
      <point x="796" y="-60"/>
      <point x="794" y="-16"/>
    </contour>
  </outline>
</glyph>
<glyph name="summation" format="2">
  <advance width="776"/>
  <unicode hex="2211"/>
  <note>
summation
</note>
  <outline>
    <contour>
      <point x="662" y="113" type="line"/>
      <point x="643" y="-36" type="line"/>
      <point x="616" y="-40"/>
      <point x="587" y="-41"/>
      <point x="550" y="-41" type="curve" smooth="yes"/>
      <point x="104" y="-41" type="line"/>
      <point x="107" y="-123" type="line"/>
      <point x="500" y="433" type="line"/>
      <point x="147" y="918" type="line"/>
      <point x="134" y="873" type="line"/>
      <point x="547" y="873" type="line" smooth="yes"/>
      <point x="584" y="873"/>
      <point x="613" y="871"/>
      <point x="640" y="871" type="curve"/>
      <point x="658" y="707" type="line"/>
      <point x="711" y="707" type="line"/>
      <point x="712" y="943" type="line"/>
      <point x="664" y="942"/>
      <point x="630" y="942"/>
      <point x="590" y="942" type="curve" smooth="yes"/>
      <point x="141" y="942" type="line" smooth="yes"/>
      <point x="101" y="942"/>
      <point x="60" y="943"/>
      <point x="20" y="945" type="curve"/>
      <point x="20" y="900" type="line"/>
      <point x="415" y="353" type="line"/>
      <point x="412" y="436" type="line"/>
      <point x="28" y="-101" type="line"/>
      <point x="28" y="-147" type="line"/>
      <point x="69" y="-146"/>
      <point x="109" y="-144"/>
      <point x="150" y="-144" type="curve" smooth="yes"/>
      <point x="593" y="-144" type="line" smooth="yes"/>
      <point x="632" y="-144"/>
      <point x="667" y="-144"/>
      <point x="714" y="-146" type="curve"/>
      <point x="714" y="113" type="line"/>
    </contour>
  </outline>
</glyph>
<glyph name="minus" format="2">
  <advance width="866"/>
  <unicode hex="2212"/>
  <outline>
    <contour>
      <point x="829" y="391" type="line"/>
      <point x="829" y="455" type="line"/>
      <point x="37" y="455" type="line"/>
      <point x="37" y="391" type="line"/>
    </contour>
  </outline>
</glyph>
<glyph name="lessequal" format="2">
  <advance width="866"/>
  <unicode hex="2264"/>
  <outline>
    <contour>
      <point x="85" y="422" type="line"/>
      <point x="781" y="165" type="line"/>
      <point x="781" y="258" type="line"/>
      <point x="134" y="492" type="line"/>
      <point x="134" y="438" type="line"/>
      <point x="781" y="672" type="line"/>
      <point x="781" y="767" type="line"/>
      <point x="85" y="508" type="line"/>
    </contour>
    <contour>
      <point x="781" y="85" type="line"/>
      <point x="85" y="85" type="line"/>
      <point x="85" y="0" type="line"/>
      <point x="781" y="0" type="line"/>
    </contour>
  </outline>
</glyph>
<glyph name="fi" format="2">
  <advance width="839"/>
  <unicode hex="FB01"/>
  <note>
f_i
</note>
  <outline>
    <contour>
      <point x="62" y="0" type="line"/>
      <point x="353" y="0" type="line"/>
      <point x="356" y="49" type="line"/>
      <point x="248" y="72" type="line"/>
      <point x="243" y="160"/>
      <point x="243" y="251"/>
      <point x="243" y="309" type="curve" smooth="yes"/>
      <point x="243" y="678" type="line"/>
      <point x="243" y="778" type="line" smooth="yes"/>
      <point x="243" y="998"/>
      <point x="406" y="1089"/>
      <point x="560" y="1060" type="curve"/>
      <point x="471" y="1076" type="line"/>
      <point x="548" y="990" type="line" smooth="yes"/>
      <point x="587" y="946"/>
      <point x="609" y="938"/>
      <point x="638" y="938" type="curve" smooth="yes"/>
      <point x="680" y="938"/>
      <point x="698" y="963"/>
      <point x="698" y="995" type="curve" smooth="yes"/>
      <point x="698" y="1056"/>
      <point x="619" y="1120"/>
      <point x="495" y="1120" type="curve" smooth="yes"/>
      <point x="333" y="1120"/>
      <point x="160" y="1012"/>
      <point x="160" y="752" type="curve" smooth="yes"/>
      <point x="160" y="316" type="line" smooth="yes"/>
      <point x="160" y="170"/>
      <point x="162" y="120"/>
      <point x="158" y="72" type="curve"/>
      <point x="59" y="49" type="line"/>
    </contour>
    <contour>
      <point x="483" y="0" type="line"/>
      <point x="788" y="0" type="line"/>
      <point x="791" y="51" type="line"/>
      <point x="683" y="72" type="line"/>
      <point x="678" y="102"/>
      <point x="675" y="149"/>
      <point x="675" y="264" type="curve" smooth="yes"/>
      <point x="675" y="467" type="line" smooth="yes"/>
      <point x="675" y="566"/>
      <point x="677" y="619"/>
      <point x="678" y="682" type="curve"/>
      <point x="640" y="680"/>
      <point x="598" y="678"/>
      <point x="560" y="678" type="curve" smooth="yes"/>
      <point x="227" y="678" type="line"/>
      <point x="160" y="678" type="line"/>
      <point x="46" y="651" type="line"/>
      <point x="46" y="609" type="line"/>
      <point x="585" y="609" type="line"/>
      <point x="587" y="579"/>
      <point x="592" y="508"/>
      <point x="592" y="375" type="curve" smooth="yes"/>
      <point x="592" y="248" type="line" smooth="yes"/>
      <point x="592" y="118"/>
      <point x="589" y="105"/>
      <point x="587" y="72" type="curve"/>
      <point x="479" y="51" type="line"/>
    </contour>
  </outline>
</glyph>
<glyph name="rahmatuAllaahiAlayhim-ar" format="2">
  <advance width="2673"/>
  <unicode hex="FBC6"/>
  <outline>
    <component base="_allah.cal" xOffset="749" yOffset="411"/>
    <component base="_dot2h.cal" xOffset="1411" yOffset="-655"/>
    <component base="_smallv.cal" xOffset="168" yOffset="-118"/>
    <component base="_dot2h.cal" xOffset="470" yOffset="665"/>
    <contour>
      <point x="1755" y="385" type="curve" smooth="yes"/>
      <point x="1889" y="385"/>
      <point x="1996" y="517"/>
      <point x="2163" y="517" type="curve"/>
      <point x="2197" y="517"/>
      <point x="2260" y="513"/>
      <point x="2294" y="513" type="curve"/>
      <point x="2312" y="579" type="line"/>
      <point x="2181" y="586" type="line"/>
      <point x="1994" y="586"/>
      <point x="1974" y="676"/>
      <point x="1875" y="676" type="curve" smooth="yes"/>
      <point x="1819" y="676"/>
      <point x="1789" y="625"/>
      <point x="1773" y="574" type="curve"/>
      <point x="1779" y="571" type="line"/>
      <point x="1788" y="584"/>
      <point x="1814" y="612"/>
      <point x="1853" y="612" type="curve" smooth="yes"/>
      <point x="1949" y="612"/>
      <point x="1978" y="527"/>
      <point x="2140" y="527" type="curve"/>
      <point x="2155" y="577" type="line"/>
      <point x="1991" y="577"/>
      <point x="1882" y="448"/>
      <point x="1737" y="448" type="curve" smooth="yes"/>
      <point x="1704" y="448"/>
      <point x="1623" y="486"/>
      <point x="1603" y="517" type="curve"/>
      <point x="1602" y="518"/>
      <point x="1602" y="455"/>
      <point x="1622" y="440" type="curve" smooth="yes"/>
      <point x="1668" y="404"/>
      <point x="1716" y="385"/>
    </contour>
    <contour>
      <point x="490" y="423" type="curve" smooth="yes"/>
      <point x="555" y="423"/>
      <point x="651" y="463"/>
      <point x="658" y="517" type="curve"/>
      <point x="646" y="547" type="line"/>
      <point x="649" y="531"/>
      <point x="585" y="494"/>
      <point x="552" y="494" type="curve" smooth="yes"/>
      <point x="523" y="494"/>
      <point x="511" y="505"/>
      <point x="511" y="522" type="curve" smooth="yes"/>
      <point x="511" y="559"/>
      <point x="569" y="618"/>
      <point x="636" y="631" type="curve"/>
      <point x="631" y="679" type="line"/>
      <point x="520" y="634"/>
      <point x="434" y="579"/>
      <point x="434" y="457" type="curve" smooth="yes"/>
      <point x="434" y="433"/>
      <point x="458" y="423"/>
    </contour>
    <contour>
      <point x="1605" y="350" type="curve" smooth="yes"/>
      <point x="1583" y="350"/>
      <point x="1508" y="393"/>
      <point x="1508" y="414" type="curve" smooth="yes"/>
      <point x="1508" y="425"/>
      <point x="1540" y="503"/>
      <point x="1561" y="503" type="curve" smooth="yes"/>
      <point x="1593" y="503"/>
      <point x="1622" y="381"/>
      <point x="1622" y="364" type="curve" smooth="yes"/>
      <point x="1622" y="354"/>
      <point x="1616" y="350"/>
    </contour>
    <contour>
      <point x="2294" y="273" type="curve" smooth="yes"/>
      <point x="2394" y="273"/>
      <point x="2523" y="458"/>
      <point x="2523" y="648" type="curve" smooth="yes"/>
      <point x="2523" y="691"/>
      <point x="2496" y="733"/>
      <point x="2446" y="765" type="curve"/>
      <point x="2428" y="699" type="line"/>
      <point x="2466" y="680"/>
      <point x="2496" y="634"/>
      <point x="2496" y="613" type="curve" smooth="yes"/>
      <point x="2496" y="469"/>
      <point x="2335" y="310"/>
      <point x="2209" y="310" type="curve" smooth="yes"/>
      <point x="2190" y="310"/>
      <point x="2172" y="313"/>
      <point x="2155" y="318" type="curve"/>
      <point x="2151" y="310" type="line"/>
      <point x="2185" y="291"/>
      <point x="2239" y="273"/>
    </contour>
    <contour>
      <point x="1699" y="604" type="curve"/>
      <point x="1712" y="606"/>
      <point x="1724" y="618"/>
      <point x="1728" y="639" type="curve" smooth="yes"/>
      <point x="1761" y="824"/>
      <point x="1734" y="1104"/>
      <point x="1740" y="1293" type="curve"/>
      <point x="1692" y="1223" type="line"/>
      <point x="1686" y="1035"/>
      <point x="1705" y="886"/>
    </contour>
    <contour>
      <point x="1023" y="311" type="curve" smooth="yes"/>
      <point x="1250" y="311"/>
      <point x="1389" y="364"/>
      <point x="1491" y="413" type="curve"/>
      <point x="1437" y="416" type="line"/>
      <point x="1491" y="338"/>
      <point x="1546" y="293"/>
      <point x="1610" y="293" type="curve" smooth="yes"/>
      <point x="1635" y="293"/>
      <point x="1653" y="324"/>
      <point x="1653" y="378" type="curve" smooth="yes"/>
      <point x="1653" y="425"/>
      <point x="1610" y="543"/>
      <point x="1565" y="543" type="curve" smooth="yes"/>
      <point x="1504" y="543"/>
      <point x="1529" y="380"/>
      <point x="1023" y="380" type="curve" smooth="yes"/>
      <point x="663" y="380"/>
      <point x="660" y="562"/>
      <point x="636" y="832" type="curve"/>
      <point x="599" y="783" type="line"/>
      <point x="639" y="496"/>
      <point x="647" y="311"/>
    </contour>
    <contour>
      <point x="2266" y="-120" type="curve"/>
      <point x="2361" y="-84" type="line"/>
      <point x="2290" y="-84"/>
      <point x="2216" y="22"/>
      <point x="2216" y="64" type="curve" smooth="yes"/>
      <point x="2216" y="93"/>
      <point x="2277" y="156"/>
      <point x="2345" y="156" type="curve" smooth="yes"/>
      <point x="2379" y="156"/>
      <point x="2415" y="149"/>
      <point x="2446" y="134" type="curve"/>
      <point x="2454" y="140" type="line"/>
      <point x="2429" y="192"/>
      <point x="2376" y="226"/>
      <point x="2318" y="226" type="curve" smooth="yes"/>
      <point x="2225" y="226"/>
      <point x="2170" y="94"/>
      <point x="2170" y="14" type="curve" smooth="yes"/>
      <point x="2170" y="-17"/>
      <point x="2216" y="-97"/>
    </contour>
    <contour>
      <point x="1280" y="-38" type="curve" smooth="yes"/>
      <point x="1301" y="-38"/>
      <point x="1313" y="-63"/>
      <point x="1313" y="-103" type="curve" smooth="yes"/>
      <point x="1313" y="-124"/>
      <point x="1267" y="-167"/>
      <point x="1173" y="-190" type="curve"/>
      <point x="1190" y="-137"/>
      <point x="1248" y="-38"/>
    </contour>
    <contour>
      <point x="1283" y="-390" type="curve" smooth="yes"/>
      <point x="1250" y="-390"/>
      <point x="1195" y="-365"/>
      <point x="1175" y="-284" type="curve"/>
      <point x="1293" y="-298"/>
      <point x="1309" y="-334"/>
      <point x="1309" y="-376" type="curve" smooth="yes"/>
      <point x="1309" y="-384"/>
      <point x="1298" y="-390"/>
    </contour>
    <contour>
      <point x="951" y="-208" type="curve" smooth="yes"/>
      <point x="835" y="-208"/>
      <point x="742" y="-175"/>
      <point x="698" y="-13" type="curve"/>
      <point x="683" y="-102" type="line"/>
      <point x="757" y="-250"/>
      <point x="829" y="-277"/>
      <point x="951" y="-277" type="curve" smooth="yes"/>
      <point x="1017" y="-277"/>
      <point x="1055" y="-278"/>
      <point x="1147" y="-281" type="curve"/>
      <point x="1165" y="-391"/>
      <point x="1223" y="-453"/>
      <point x="1271" y="-453" type="curve" smooth="yes"/>
      <point x="1308" y="-453"/>
      <point x="1338" y="-417"/>
      <point x="1338" y="-339" type="curve" smooth="yes"/>
      <point x="1338" y="-329"/>
      <point x="1327" y="-295"/>
      <point x="1280" y="-265" type="curve"/>
      <point x="1460" y="-265"/>
      <point x="1626" y="-231"/>
      <point x="1690" y="-120" type="curve"/>
      <point x="1669" y="-127" type="line"/>
      <point x="1669" y="-210"/>
      <point x="1746" y="-231"/>
      <point x="1801" y="-231" type="curve" smooth="yes"/>
      <point x="1891" y="-231"/>
      <point x="1989" y="-181"/>
      <point x="2000" y="-76" type="curve"/>
      <point x="1979" y="-58" type="line"/>
      <point x="2020" y="-149"/>
      <point x="2070" y="-181"/>
      <point x="2118" y="-181" type="curve" smooth="yes"/>
      <point x="2221" y="-181"/>
      <point x="2389" y="-128"/>
      <point x="2492" y="-74" type="curve"/>
      <point x="2508" y="-29" type="line"/>
      <point x="2318" y="-93"/>
      <point x="2197" y="-112"/>
      <point x="2118" y="-112" type="curve" smooth="yes"/>
      <point x="2058" y="-112"/>
      <point x="2012" y="-95"/>
      <point x="2006" y="32" type="curve" smooth="yes"/>
      <point x="1983" y="516" type="line"/>
      <point x="1930" y="490" type="line"/>
      <point x="1962" y="105"/>
      <point x="1967" y="-8"/>
      <point x="1967" y="-35" type="curve" smooth="yes"/>
      <point x="1967" y="-104"/>
      <point x="1927" y="-161"/>
      <point x="1818" y="-161" type="curve" smooth="yes"/>
      <point x="1720" y="-161"/>
      <point x="1708" y="-120"/>
      <point x="1708" y="-83" type="curve" smooth="yes"/>
      <point x="1708" y="-48"/>
      <point x="1709" y="-41"/>
      <point x="1710" y="-34" type="curve"/>
      <point x="1700" y="-34" type="line"/>
      <point x="1644" y="-146"/>
      <point x="1495" y="-196"/>
      <point x="1277" y="-196" type="curve"/>
      <point x="1330" y="-156"/>
      <point x="1354" y="-115"/>
      <point x="1354" y="-48" type="curve" smooth="yes"/>
      <point x="1354" y="12"/>
      <point x="1334" y="33"/>
      <point x="1309" y="33" type="curve" smooth="yes"/>
      <point x="1245" y="33"/>
      <point x="1155" y="-113"/>
      <point x="1143" y="-196" type="curve"/>
      <point x="1051" y="-202"/>
      <point x="1013" y="-208"/>
    </contour>
    <contour>
      <point x="235" y="-259" type="curve" smooth="yes"/>
      <point x="545" y="-259"/>
      <point x="560" y="56"/>
      <point x="615" y="56" type="curve" smooth="yes"/>
      <point x="635" y="56"/>
      <point x="670" y="-54"/>
      <point x="670" y="-99" type="curve" smooth="yes"/>
      <point x="670" y="-105"/>
      <point x="668" y="-106"/>
      <point x="663" y="-106" type="curve" smooth="yes"/>
      <point x="619" y="-106"/>
      <point x="545" y="-61"/>
      <point x="554" y="-39" type="curve"/>
      <point x="505" y="-96" type="line"/>
      <point x="510" y="-122"/>
      <point x="589" y="-178"/>
      <point x="660" y="-178" type="curve" smooth="yes"/>
      <point x="679" y="-178"/>
      <point x="710" y="-139"/>
      <point x="710" y="-94" type="curve" smooth="yes"/>
      <point x="710" y="10"/>
      <point x="649" y="95"/>
      <point x="620" y="95" type="curve" smooth="yes"/>
      <point x="526" y="95"/>
      <point x="468" y="-243"/>
      <point x="150" y="-243" type="curve"/>
      <point x="150" y="-252" type="line"/>
      <point x="173" y="-257"/>
      <point x="201" y="-259"/>
    </contour>
  </outline>
</glyph>
<glyph name="rahmatuAllaahiAlayhimaa-ar" format="2">
  <advance width="2434"/>
  <unicode hex="FBC7"/>
  <outline>
    <component base="_allah.cal" xOffset="510" yOffset="411"/>
    <component base="_dot2h.cal" xOffset="1170" yOffset="-630"/>
    <component base="_dot2h.cal" xOffset="231" yOffset="665"/>
    <contour>
      <point x="1516" y="385" type="curve" smooth="yes"/>
      <point x="1650" y="385"/>
      <point x="1757" y="517"/>
      <point x="1924" y="517" type="curve"/>
      <point x="1958" y="517"/>
      <point x="2021" y="513"/>
      <point x="2055" y="513" type="curve"/>
      <point x="2073" y="579" type="line"/>
      <point x="1942" y="586" type="line"/>
      <point x="1755" y="586"/>
      <point x="1735" y="676"/>
      <point x="1636" y="676" type="curve" smooth="yes"/>
      <point x="1580" y="676"/>
      <point x="1550" y="625"/>
      <point x="1534" y="574" type="curve"/>
      <point x="1540" y="571" type="line"/>
      <point x="1549" y="584"/>
      <point x="1575" y="612"/>
      <point x="1614" y="612" type="curve" smooth="yes"/>
      <point x="1710" y="612"/>
      <point x="1739" y="527"/>
      <point x="1901" y="527" type="curve"/>
      <point x="1916" y="577" type="line"/>
      <point x="1752" y="577"/>
      <point x="1643" y="448"/>
      <point x="1498" y="448" type="curve" smooth="yes"/>
      <point x="1465" y="448"/>
      <point x="1384" y="486"/>
      <point x="1364" y="517" type="curve"/>
      <point x="1363" y="518"/>
      <point x="1363" y="455"/>
      <point x="1383" y="440" type="curve" smooth="yes"/>
      <point x="1429" y="404"/>
      <point x="1477" y="385"/>
    </contour>
    <contour>
      <point x="251" y="423" type="curve" smooth="yes"/>
      <point x="316" y="423"/>
      <point x="412" y="463"/>
      <point x="419" y="517" type="curve"/>
      <point x="407" y="547" type="line"/>
      <point x="410" y="531"/>
      <point x="346" y="494"/>
      <point x="313" y="494" type="curve" smooth="yes"/>
      <point x="284" y="494"/>
      <point x="272" y="505"/>
      <point x="272" y="522" type="curve" smooth="yes"/>
      <point x="272" y="559"/>
      <point x="330" y="618"/>
      <point x="397" y="631" type="curve"/>
      <point x="392" y="679" type="line"/>
      <point x="281" y="634"/>
      <point x="195" y="579"/>
      <point x="195" y="457" type="curve" smooth="yes"/>
      <point x="195" y="433"/>
      <point x="219" y="423"/>
    </contour>
    <contour>
      <point x="1366" y="350" type="curve" smooth="yes"/>
      <point x="1344" y="350"/>
      <point x="1269" y="393"/>
      <point x="1269" y="414" type="curve" smooth="yes"/>
      <point x="1269" y="425"/>
      <point x="1301" y="503"/>
      <point x="1322" y="503" type="curve" smooth="yes"/>
      <point x="1354" y="503"/>
      <point x="1383" y="381"/>
      <point x="1383" y="364" type="curve" smooth="yes"/>
      <point x="1383" y="354"/>
      <point x="1377" y="350"/>
    </contour>
    <contour>
      <point x="2055" y="273" type="curve" smooth="yes"/>
      <point x="2155" y="273"/>
      <point x="2284" y="458"/>
      <point x="2284" y="648" type="curve" smooth="yes"/>
      <point x="2284" y="691"/>
      <point x="2257" y="733"/>
      <point x="2207" y="765" type="curve"/>
      <point x="2189" y="699" type="line"/>
      <point x="2227" y="680"/>
      <point x="2257" y="634"/>
      <point x="2257" y="613" type="curve" smooth="yes"/>
      <point x="2257" y="469"/>
      <point x="2096" y="310"/>
      <point x="1970" y="310" type="curve" smooth="yes"/>
      <point x="1951" y="310"/>
      <point x="1933" y="313"/>
      <point x="1916" y="318" type="curve"/>
      <point x="1912" y="310" type="line"/>
      <point x="1946" y="291"/>
      <point x="2000" y="273"/>
    </contour>
    <contour>
      <point x="1460" y="604" type="curve"/>
      <point x="1473" y="606"/>
      <point x="1485" y="618"/>
      <point x="1489" y="639" type="curve" smooth="yes"/>
      <point x="1522" y="824"/>
      <point x="1495" y="1104"/>
      <point x="1501" y="1293" type="curve"/>
      <point x="1453" y="1223" type="line"/>
      <point x="1447" y="1035"/>
      <point x="1466" y="886"/>
    </contour>
    <contour>
      <point x="784" y="311" type="curve" smooth="yes"/>
      <point x="1011" y="311"/>
      <point x="1150" y="364"/>
      <point x="1252" y="413" type="curve"/>
      <point x="1198" y="416" type="line"/>
      <point x="1252" y="338"/>
      <point x="1307" y="293"/>
      <point x="1371" y="293" type="curve" smooth="yes"/>
      <point x="1396" y="293"/>
      <point x="1414" y="324"/>
      <point x="1414" y="378" type="curve" smooth="yes"/>
      <point x="1414" y="425"/>
      <point x="1371" y="543"/>
      <point x="1326" y="543" type="curve" smooth="yes"/>
      <point x="1265" y="543"/>
      <point x="1290" y="380"/>
      <point x="784" y="380" type="curve" smooth="yes"/>
      <point x="424" y="380"/>
      <point x="421" y="562"/>
      <point x="397" y="832" type="curve"/>
      <point x="360" y="783" type="line"/>
      <point x="400" y="496"/>
      <point x="408" y="311"/>
    </contour>
    <contour>
      <point x="2027" y="-120" type="curve"/>
      <point x="2122" y="-84" type="line"/>
      <point x="2051" y="-84"/>
      <point x="1977" y="22"/>
      <point x="1977" y="64" type="curve" smooth="yes"/>
      <point x="1977" y="93"/>
      <point x="2038" y="156"/>
      <point x="2106" y="156" type="curve" smooth="yes"/>
      <point x="2140" y="156"/>
      <point x="2176" y="149"/>
      <point x="2207" y="134" type="curve"/>
      <point x="2215" y="140" type="line"/>
      <point x="2190" y="192"/>
      <point x="2137" y="226"/>
      <point x="2079" y="226" type="curve" smooth="yes"/>
      <point x="1986" y="226"/>
      <point x="1931" y="94"/>
      <point x="1931" y="14" type="curve" smooth="yes"/>
      <point x="1931" y="-17"/>
      <point x="1977" y="-97"/>
    </contour>
    <contour>
      <point x="1111" y="-38" type="curve" smooth="yes"/>
      <point x="1132" y="-38"/>
      <point x="1144" y="-63"/>
      <point x="1144" y="-103" type="curve" smooth="yes"/>
      <point x="1144" y="-124"/>
      <point x="1098" y="-180"/>
      <point x="1004" y="-203" type="curve"/>
      <point x="1021" y="-150"/>
      <point x="1079" y="-38"/>
    </contour>
    <contour>
      <point x="1114" y="-390" type="curve" smooth="yes"/>
      <point x="1081" y="-390"/>
      <point x="1026" y="-359"/>
      <point x="1006" y="-278" type="curve"/>
      <point x="1124" y="-292"/>
      <point x="1140" y="-334"/>
      <point x="1140" y="-376" type="curve" smooth="yes"/>
      <point x="1140" y="-384"/>
      <point x="1129" y="-390"/>
    </contour>
    <contour>
      <point x="712" y="-278"/>
      <point x="844" y="-271"/>
      <point x="978" y="-275" type="curve"/>
      <point x="996" y="-385"/>
      <point x="1054" y="-453"/>
      <point x="1102" y="-453" type="curve" smooth="yes"/>
      <point x="1139" y="-453"/>
      <point x="1169" y="-417"/>
      <point x="1169" y="-339" type="curve" smooth="yes"/>
      <point x="1169" y="-329"/>
      <point x="1158" y="-295"/>
      <point x="1111" y="-265" type="curve"/>
      <point x="1221" y="-265"/>
      <point x="1387" y="-231"/>
      <point x="1451" y="-120" type="curve"/>
      <point x="1430" y="-127" type="line"/>
      <point x="1430" y="-210"/>
      <point x="1507" y="-231"/>
      <point x="1562" y="-231" type="curve" smooth="yes"/>
      <point x="1652" y="-231"/>
      <point x="1750" y="-181"/>
      <point x="1761" y="-76" type="curve"/>
      <point x="1740" y="-58" type="line"/>
      <point x="1781" y="-149"/>
      <point x="1831" y="-181"/>
      <point x="1879" y="-181" type="curve" smooth="yes"/>
      <point x="1982" y="-181"/>
      <point x="2150" y="-128"/>
      <point x="2253" y="-74" type="curve"/>
      <point x="2269" y="-29" type="line"/>
      <point x="2079" y="-93"/>
      <point x="1958" y="-112"/>
      <point x="1879" y="-112" type="curve" smooth="yes"/>
      <point x="1819" y="-112"/>
      <point x="1773" y="-95"/>
      <point x="1767" y="32" type="curve" smooth="yes"/>
      <point x="1744" y="516" type="line"/>
      <point x="1691" y="490" type="line"/>
      <point x="1723" y="105"/>
      <point x="1728" y="-8"/>
      <point x="1728" y="-35" type="curve" smooth="yes"/>
      <point x="1728" y="-104"/>
      <point x="1688" y="-161"/>
      <point x="1579" y="-161" type="curve" smooth="yes"/>
      <point x="1481" y="-161"/>
      <point x="1469" y="-120"/>
      <point x="1469" y="-83" type="curve" smooth="yes"/>
      <point x="1469" y="-48"/>
      <point x="1470" y="-41"/>
      <point x="1471" y="-34" type="curve"/>
      <point x="1461" y="-34" type="line"/>
      <point x="1405" y="-146"/>
      <point x="1256" y="-196"/>
      <point x="1108" y="-196" type="curve"/>
      <point x="1161" y="-156"/>
      <point x="1185" y="-115"/>
      <point x="1185" y="-48" type="curve" smooth="yes"/>
      <point x="1185" y="12"/>
      <point x="1165" y="33"/>
      <point x="1140" y="33" type="curve" smooth="yes"/>
      <point x="1076" y="33"/>
      <point x="986" y="-126"/>
      <point x="974" y="-209" type="curve"/>
      <point x="760" y="-209"/>
      <point x="675" y="-165"/>
      <point x="636" y="-86" type="curve" smooth="yes"/>
      <point x="606" y="-25"/>
      <point x="576" y="15"/>
      <point x="550" y="15" type="curve" smooth="yes"/>
      <point x="479" y="15"/>
      <point x="457" y="-186"/>
      <point x="330" y="-186" type="curve" smooth="yes"/>
      <point x="278" y="-186"/>
      <point x="243" y="-86"/>
      <point x="231" y="51" type="curve" smooth="yes"/>
      <point x="201" y="381" type="line"/>
      <point x="150" y="304" type="line"/>
      <point x="189" y="2" type="line" smooth="yes"/>
      <point x="211" y="-165"/>
      <point x="239" y="-257"/>
      <point x="330" y="-257" type="curve" smooth="yes"/>
      <point x="366" y="-257"/>
      <point x="428" y="-228"/>
      <point x="455" y="-184" type="curve"/>
      <point x="440" y="-187" type="line"/>
      <point x="475" y="-228"/>
      <point x="527" y="-277"/>
      <point x="602" y="-277" type="curve" smooth="yes"/>
      <point x="631" y="-277"/>
      <point x="671" y="-228"/>
      <point x="652" y="-166" type="curve"/>
      <point x="641" y="-176" type="line"/>
    </contour>
    <contour>
      <point x="484" y="-136" type="curve" smooth="yes"/>
      <point x="484" y="-123"/>
      <point x="520" y="-32"/>
      <point x="545" y="-32" type="curve" smooth="yes"/>
      <point x="582" y="-32"/>
      <point x="616" y="-174"/>
      <point x="616" y="-194" type="curve" smooth="yes"/>
      <point x="616" y="-206"/>
      <point x="610" y="-210"/>
      <point x="596" y="-210" type="curve" smooth="yes"/>
      <point x="571" y="-210"/>
      <point x="484" y="-160"/>
    </contour>
  </outline>
</glyph>
<glyph name="rahimahuAllaah-ar" format="2">
  <advance width="1868"/>
  <unicode hex="FD40"/>
  <outline>
    <component base="_damma.cal" xOffset="112" yOffset="121"/>
    <component base="_fatha-kasra.cal" xOffset="517" yOffset="-163"/>
    <component base="_fatha-kasra.cal" xOffset="1000" yOffset="-457"/>
    <component base="_allah.cal" xOffset="413" yOffset="126"/>
    <component base="_fatha-kasra.cal" xOffset="1402" yOffset="53"/>
    <contour>
      <point x="889" y="-127" type="curve" smooth="yes"/>
      <point x="1023" y="-127"/>
      <point x="1130" y="5"/>
      <point x="1297" y="5" type="curve"/>
      <point x="1331" y="5"/>
      <point x="1370" y="4"/>
      <point x="1404" y="4" type="curve"/>
      <point x="1422" y="70" type="line"/>
      <point x="1315" y="74" type="line"/>
      <point x="1128" y="74"/>
      <point x="1108" y="164"/>
      <point x="1009" y="164" type="curve" smooth="yes"/>
      <point x="953" y="164"/>
      <point x="923" y="113"/>
      <point x="907" y="62" type="curve"/>
      <point x="913" y="59" type="line"/>
      <point x="922" y="72"/>
      <point x="948" y="100"/>
      <point x="987" y="100" type="curve" smooth="yes"/>
      <point x="1083" y="100"/>
      <point x="1112" y="15"/>
      <point x="1274" y="15" type="curve"/>
      <point x="1289" y="65" type="line"/>
      <point x="1125" y="65"/>
      <point x="1016" y="-64"/>
      <point x="871" y="-64" type="curve" smooth="yes"/>
      <point x="838" y="-64"/>
      <point x="757" y="-26"/>
      <point x="737" y="5" type="curve" smooth="yes"/>
      <point x="736" y="6"/>
      <point x="736" y="-57"/>
      <point x="756" y="-72" type="curve" smooth="yes"/>
      <point x="802" y="-108"/>
      <point x="850" y="-127"/>
    </contour>
    <contour>
      <point x="206" y="-109" type="curve" smooth="yes"/>
      <point x="271" y="-109"/>
      <point x="367" y="-69"/>
      <point x="374" y="-15" type="curve"/>
      <point x="362" y="15" type="line"/>
      <point x="365" y="-1"/>
      <point x="301" y="-38"/>
      <point x="268" y="-38" type="curve" smooth="yes"/>
      <point x="239" y="-38"/>
      <point x="227" y="-27"/>
      <point x="227" y="-10" type="curve" smooth="yes"/>
      <point x="227" y="27"/>
      <point x="285" y="86"/>
      <point x="352" y="99" type="curve"/>
      <point x="347" y="147" type="line"/>
      <point x="236" y="102"/>
      <point x="150" y="47"/>
      <point x="150" y="-75" type="curve" smooth="yes"/>
      <point x="150" y="-99"/>
      <point x="174" y="-109"/>
    </contour>
    <contour>
      <point x="739" y="-162" type="curve" smooth="yes"/>
      <point x="717" y="-162"/>
      <point x="642" y="-119"/>
      <point x="642" y="-98" type="curve" smooth="yes"/>
      <point x="642" y="-87"/>
      <point x="674" y="-9"/>
      <point x="695" y="-9" type="curve" smooth="yes"/>
      <point x="727" y="-9"/>
      <point x="756" y="-131"/>
      <point x="756" y="-148" type="curve" smooth="yes"/>
      <point x="756" y="-158"/>
      <point x="750" y="-162"/>
    </contour>
    <contour>
      <point x="1385" y="-259" type="curve" smooth="yes"/>
      <point x="1485" y="-259"/>
      <point x="1614" y="-74"/>
      <point x="1614" y="116" type="curve" smooth="yes"/>
      <point x="1614" y="159"/>
      <point x="1587" y="201"/>
      <point x="1537" y="233" type="curve"/>
      <point x="1519" y="167" type="line"/>
      <point x="1557" y="148"/>
      <point x="1587" y="102"/>
      <point x="1587" y="81" type="curve" smooth="yes"/>
      <point x="1587" y="-63"/>
      <point x="1426" y="-222"/>
      <point x="1300" y="-222" type="curve" smooth="yes"/>
      <point x="1281" y="-222"/>
      <point x="1263" y="-219"/>
      <point x="1246" y="-214" type="curve"/>
      <point x="1242" y="-222" type="line"/>
      <point x="1276" y="-241"/>
      <point x="1330" y="-259"/>
    </contour>
    <contour>
      <point x="1296" y="284" type="curve"/>
      <point x="1309" y="286"/>
      <point x="1321" y="298"/>
      <point x="1325" y="319" type="curve" smooth="yes"/>
      <point x="1358" y="504"/>
      <point x="1331" y="784"/>
      <point x="1337" y="973" type="curve"/>
      <point x="1289" y="903" type="line"/>
      <point x="1283" y="715"/>
      <point x="1302" y="566"/>
    </contour>
    <contour>
      <point x="502" y="-202" type="curve" smooth="yes"/>
      <point x="555" y="-202"/>
      <point x="595" y="-177"/>
      <point x="618" y="-139" type="curve"/>
      <point x="605" y="-142" type="line"/>
      <point x="635" y="-177"/>
      <point x="680" y="-219"/>
      <point x="744" y="-219" type="curve" smooth="yes"/>
      <point x="769" y="-219"/>
      <point x="787" y="-188"/>
      <point x="787" y="-134" type="curve" smooth="yes"/>
      <point x="787" y="-87"/>
      <point x="744" y="31"/>
      <point x="699" y="31" type="curve" smooth="yes"/>
      <point x="638" y="31"/>
      <point x="620" y="-136"/>
      <point x="502" y="-136" type="curve" smooth="yes"/>
      <point x="392" y="-136"/>
      <point x="386" y="30"/>
      <point x="362" y="300" type="curve"/>
      <point x="325" y="251" type="line"/>
      <point x="365" y="-36"/>
      <point x="355" y="-202"/>
    </contour>
  </outline>
</glyph>
<glyph name="radiAllaahuAnh-ar" format="2">
  <advance width="2275"/>
  <unicode hex="FD41"/>
  <outline>
    <component base="_allah.cal" xOffset="736" yOffset="773"/>
    <component base="_damma.cal" xOffset="361" yOffset="779"/>
    <component base="_damma.cal" xOffset="639" yOffset="1137"/>
    <component base="_fatha-kasra.cal" xOffset="1001" yOffset="497"/>
    <component base="_fatha-kasra.cal" xOffset="605" yOffset="-82"/>
    <component base="_fatha-kasra.cal" xOffset="1604" yOffset="-208"/>
    <component base="_dot2h" xScale="0.6" yScale="0.6" xOffset="1330" yOffset="-62"/>
    <component base="_dot1" xScale="0.6" yScale="0.6" xOffset="1816" yOffset="653"/>
    <component base="_dot1" xScale="0.6" yScale="0.6" xOffset="880" yOffset="708"/>
    <contour>
      <point x="730" y="-48" type="curve" smooth="yes"/>
      <point x="1014" y="-48"/>
      <point x="1262" y="22"/>
      <point x="1262" y="135" type="curve" smooth="yes"/>
      <point x="1262" y="205"/>
      <point x="1074" y="168"/>
      <point x="1074" y="225" type="curve" smooth="yes"/>
      <point x="1074" y="233"/>
      <point x="1087" y="249"/>
      <point x="1158" y="249" type="curve" smooth="yes"/>
      <point x="1299" y="249" type="line" smooth="yes"/>
      <point x="1373" y="249"/>
      <point x="1387" y="283"/>
      <point x="1406" y="322" type="curve"/>
      <point x="1399" y="316" type="line"/>
      <point x="1417" y="268"/>
      <point x="1477" y="240"/>
      <point x="1579" y="240" type="curve" smooth="yes"/>
      <point x="1748" y="240"/>
      <point x="1948" y="312"/>
      <point x="1948" y="466" type="curve" smooth="yes"/>
      <point x="1948" y="515"/>
      <point x="1916" y="549"/>
      <point x="1862" y="549" type="curve" smooth="yes"/>
      <point x="1757" y="549"/>
      <point x="1555" y="355"/>
      <point x="1506" y="302" type="curve"/>
      <point x="1537" y="300" type="line"/>
      <point x="1622" y="387"/>
      <point x="1780" y="492"/>
      <point x="1821" y="492" type="curve" smooth="yes"/>
      <point x="1874" y="492"/>
      <point x="1917" y="462"/>
      <point x="1917" y="427" type="curve" smooth="yes"/>
      <point x="1917" y="363"/>
      <point x="1743" y="306"/>
      <point x="1566" y="306" type="curve" smooth="yes"/>
      <point x="1504" y="306"/>
      <point x="1424" y="322"/>
      <point x="1413" y="404" type="curve"/>
      <point x="1404" y="404" type="line"/>
      <point x="1392" y="359"/>
      <point x="1374" y="315"/>
      <point x="1299" y="315" type="curve"/>
      <point x="1247" y="315" type="line" smooth="yes"/>
      <point x="1111" y="315"/>
      <point x="1046" y="262"/>
      <point x="1046" y="196" type="curve" smooth="yes"/>
      <point x="1046" y="117"/>
      <point x="1231" y="152"/>
      <point x="1231" y="108" type="curve" smooth="yes"/>
      <point x="1231" y="73"/>
      <point x="979" y="18"/>
      <point x="768" y="18" type="curve" smooth="yes"/>
      <point x="437" y="18"/>
      <point x="228" y="156"/>
      <point x="374" y="457" type="curve"/>
      <point x="365" y="460" type="line"/>
      <point x="163" y="178"/>
      <point x="354" y="-48"/>
    </contour>
    <contour>
      <point x="1639" y="933" type="curve"/>
      <point x="1652" y="935"/>
      <point x="1664" y="947"/>
      <point x="1668" y="968" type="curve" smooth="yes"/>
      <point x="1701" y="1153"/>
      <point x="1674" y="1443"/>
      <point x="1680" y="1632" type="curve"/>
      <point x="1632" y="1562" type="line"/>
      <point x="1626" y="1374"/>
      <point x="1645" y="1215"/>
    </contour>
    <contour>
      <point x="1734" y="-107" type="curve" smooth="yes"/>
      <point x="1894" y="-107"/>
      <point x="2043" y="28"/>
      <point x="2043" y="188" type="curve" smooth="yes"/>
      <point x="2043" y="231"/>
      <point x="2016" y="273"/>
      <point x="1966" y="305" type="curve"/>
      <point x="1948" y="239" type="line"/>
      <point x="1986" y="220"/>
      <point x="2016" y="174"/>
      <point x="2016" y="153" type="curve" smooth="yes"/>
      <point x="2016" y="39"/>
      <point x="1835" y="-70"/>
      <point x="1649" y="-70" type="curve" smooth="yes"/>
      <point x="1630" y="-70"/>
      <point x="1612" y="-67"/>
      <point x="1595" y="-62" type="curve"/>
      <point x="1591" y="-70" type="line"/>
      <point x="1625" y="-89"/>
      <point x="1679" y="-107"/>
    </contour>
    <contour>
      <point x="1401" y="547" type="curve"/>
      <point x="1489" y="580" type="line"/>
      <point x="1424" y="580"/>
      <point x="1355" y="678"/>
      <point x="1355" y="717" type="curve" smooth="yes"/>
      <point x="1355" y="744"/>
      <point x="1411" y="802"/>
      <point x="1474" y="802" type="curve" smooth="yes"/>
      <point x="1506" y="802"/>
      <point x="1539" y="795"/>
      <point x="1568" y="781" type="curve"/>
      <point x="1574" y="787" type="line"/>
      <point x="1551" y="835"/>
      <point x="1503" y="866"/>
      <point x="1449" y="866" type="curve" smooth="yes"/>
      <point x="1363" y="866"/>
      <point x="1313" y="744"/>
      <point x="1313" y="670" type="curve" smooth="yes"/>
      <point x="1313" y="642"/>
      <point x="1355" y="568"/>
    </contour>
    <contour>
      <point x="428" y="540" type="curve" smooth="yes"/>
      <point x="493" y="540"/>
      <point x="589" y="580"/>
      <point x="596" y="634" type="curve"/>
      <point x="584" y="664" type="line"/>
      <point x="587" y="648"/>
      <point x="523" y="611"/>
      <point x="490" y="611" type="curve" smooth="yes"/>
      <point x="461" y="611"/>
      <point x="449" y="622"/>
      <point x="449" y="639" type="curve" smooth="yes"/>
      <point x="449" y="676"/>
      <point x="507" y="735"/>
      <point x="574" y="748" type="curve"/>
      <point x="569" y="796" type="line"/>
      <point x="458" y="751"/>
      <point x="372" y="696"/>
      <point x="372" y="574" type="curve" smooth="yes"/>
      <point x="372" y="550"/>
      <point x="396" y="540"/>
    </contour>
    <contour>
      <point x="797" y="507" type="curve" smooth="yes"/>
      <point x="617" y="507"/>
      <point x="608" y="679"/>
      <point x="584" y="949" type="curve"/>
      <point x="547" y="900" type="line"/>
      <point x="587" y="613"/>
      <point x="580" y="441"/>
      <point x="797" y="441" type="curve" smooth="yes"/>
      <point x="950" y="441"/>
      <point x="1063" y="492"/>
      <point x="1089" y="565" type="curve"/>
      <point x="1080" y="569" type="line"/>
      <point x="1092" y="510"/>
      <point x="1128" y="471"/>
      <point x="1214" y="471" type="curve" smooth="yes"/>
      <point x="1366" y="471"/>
      <point x="1491" y="536"/>
      <point x="1587" y="589" type="curve"/>
      <point x="1602" y="631" type="line"/>
      <point x="1426" y="566"/>
      <point x="1345" y="537"/>
      <point x="1214" y="537" type="curve" smooth="yes"/>
      <point x="1145" y="537"/>
      <point x="1097" y="586"/>
      <point x="1097" y="628" type="curve" smooth="yes"/>
      <point x="1097" y="632"/>
      <point x="1097" y="635"/>
      <point x="1098" y="639" type="curve"/>
      <point x="1089" y="641" type="line"/>
      <point x="1059" y="543"/>
      <point x="981" y="507"/>
    </contour>
  </outline>
</glyph>
<glyph name="radiAllaahuAnhaa-ar" format="2">
  <advance width="2067"/>
  <unicode hex="FD42"/>
  <outline>
    <component base="_damma.cal" xOffset="362" yOffset="1175"/>
    <component base="_fatha-kasra.cal" xOffset="256" yOffset="866"/>
    <component base="_fatha-kasra.cal" xOffset="1172" yOffset="-301"/>
    <component base="_allah.cal" xOffset="512" yOffset="924"/>
    <component base="_dot2h.cal" xOffset="668" yOffset="-407"/>
    <component base="_dot1.cal" xOffset="876" yOffset="519"/>
    <component base="_dot1.cal" xOffset="1738" yOffset="524"/>
    <component base="reh-ar" xScale="0.65" yScale="0.65" xOffset="1346" yOffset="-21"/>
    <component base="_tah_bowl" xScale="0.65" yScale="0.65" xOffset="1465" yOffset="290"/>
    <component base="_sukun.cal" xOffset="743" yOffset="650"/>
    <component base="_smallv.cal" xScale="0.9" yScale="0.9" xOffset="421" yOffset="-34"/>
    <contour>
      <point x="1353" y="1801" type="line"/>
      <point x="1356" y="1650"/>
      <point x="1369" y="1456"/>
      <point x="1369" y="1321" type="curve" smooth="yes"/>
      <point x="1369" y="1245"/>
      <point x="1367" y="1147"/>
      <point x="1363" y="1087" type="curve"/>
      <point x="1378" y="1090"/>
      <point x="1396" y="1104"/>
      <point x="1399" y="1126" type="curve" smooth="yes"/>
      <point x="1411" y="1210"/>
      <point x="1419" y="1340"/>
      <point x="1419" y="1397" type="curve" smooth="yes"/>
      <point x="1419" y="1546"/>
      <point x="1414" y="1703"/>
      <point x="1414" y="1820" type="curve" smooth="yes"/>
      <point x="1414" y="1846"/>
      <point x="1414" y="1860"/>
      <point x="1415" y="1881" type="curve"/>
    </contour>
    <contour>
      <point x="1410" y="660" type="curve"/>
      <point x="1505" y="696" type="line"/>
      <point x="1434" y="696"/>
      <point x="1360" y="802"/>
      <point x="1360" y="844" type="curve" smooth="yes"/>
      <point x="1360" y="873"/>
      <point x="1421" y="936"/>
      <point x="1489" y="936" type="curve" smooth="yes"/>
      <point x="1523" y="936"/>
      <point x="1559" y="929"/>
      <point x="1590" y="914" type="curve"/>
      <point x="1598" y="920" type="line"/>
      <point x="1573" y="972"/>
      <point x="1520" y="1006"/>
      <point x="1462" y="1006" type="curve" smooth="yes"/>
      <point x="1369" y="1006"/>
      <point x="1314" y="874"/>
      <point x="1314" y="794" type="curve" smooth="yes"/>
      <point x="1314" y="763"/>
      <point x="1360" y="683"/>
    </contour>
    <contour>
      <point x="1196" y="599" type="curve" smooth="yes"/>
      <point x="1365" y="599"/>
      <point x="1533" y="652"/>
      <point x="1636" y="706" type="curve"/>
      <point x="1652" y="751" type="line"/>
      <point x="1462" y="687"/>
      <point x="1341" y="671"/>
      <point x="1227" y="671" type="curve" smooth="yes"/>
      <point x="1161" y="671"/>
      <point x="1137" y="697"/>
      <point x="1137" y="743" type="curve" smooth="yes"/>
      <point x="1137" y="748"/>
      <point x="1138" y="755"/>
      <point x="1139" y="761" type="curve"/>
      <point x="1129" y="761" type="line"/>
      <point x="1107" y="641"/>
      <point x="788" y="561"/>
      <point x="712" y="561" type="curve" smooth="yes"/>
      <point x="635" y="561"/>
      <point x="617" y="596"/>
      <point x="617" y="653" type="curve"/>
      <point x="617" y="665"/>
      <point x="618" y="679"/>
      <point x="619" y="693" type="curve"/>
      <point x="597" y="674" type="line"/>
      <point x="582" y="645"/>
      <point x="574" y="614"/>
      <point x="574" y="585" type="curve" smooth="yes"/>
      <point x="574" y="532"/>
      <point x="604" y="489"/>
      <point x="681" y="489" type="curve" smooth="yes"/>
      <point x="783" y="489"/>
      <point x="971" y="540"/>
      <point x="1125" y="693" type="curve"/>
      <point x="1102" y="704" type="line"/>
      <point x="1095" y="687"/>
      <point x="1091" y="672"/>
      <point x="1091" y="659" type="curve" smooth="yes"/>
      <point x="1091" y="620"/>
      <point x="1124" y="599"/>
    </contour>
    <contour>
      <point x="374" y="590" type="curve" smooth="yes"/>
      <point x="538" y="590"/>
      <point x="635" y="697"/>
      <point x="635" y="815" type="curve" smooth="yes"/>
      <point x="635" y="830"/>
      <point x="615" y="962"/>
      <point x="565" y="962" type="curve" smooth="yes"/>
      <point x="511" y="962"/>
      <point x="443" y="851"/>
      <point x="443" y="780" type="curve" smooth="yes"/>
      <point x="443" y="690"/>
      <point x="562" y="643"/>
      <point x="645" y="643" type="curve" smooth="yes"/>
      <point x="715" y="643"/>
      <point x="753" y="675"/>
      <point x="753" y="745" type="curve" smooth="yes"/>
      <point x="753" y="810"/>
      <point x="733" y="873"/>
      <point x="517" y="998" type="curve"/>
      <point x="486" y="933" type="line"/>
      <point x="636" y="872"/>
      <point x="727" y="780"/>
      <point x="727" y="750" type="curve" smooth="yes"/>
      <point x="727" y="725"/>
      <point x="699" y="715"/>
      <point x="660" y="715" type="curve" smooth="yes"/>
      <point x="584" y="715"/>
      <point x="469" y="756"/>
      <point x="469" y="806" type="curve" smooth="yes"/>
      <point x="469" y="825"/>
      <point x="513" y="894"/>
      <point x="546" y="894" type="curve" smooth="yes"/>
      <point x="584" y="894"/>
      <point x="609" y="829"/>
      <point x="609" y="812" type="curve" smooth="yes"/>
      <point x="609" y="786"/>
      <point x="525" y="662"/>
      <point x="374" y="662" type="curve" smooth="yes"/>
      <point x="288" y="662"/>
      <point x="259" y="749"/>
      <point x="257" y="876" type="curve" smooth="yes"/>
      <point x="248" y="1300" type="line"/>
      <point x="193" y="1228" type="line"/>
      <point x="210" y="831" type="line" smooth="yes"/>
      <point x="217" y="675"/>
      <point x="254" y="590"/>
    </contour>
    <contour>
      <point x="1166" y="295" type="line" smooth="yes"/>
      <point x="1216" y="295"/>
      <point x="1248" y="314"/>
      <point x="1279" y="373" type="curve"/>
      <point x="1271" y="367" type="line"/>
      <point x="1291" y="316"/>
      <point x="1355" y="285"/>
      <point x="1466" y="285" type="curve"/>
      <point x="1452" y="356" type="line"/>
      <point x="1385" y="356"/>
      <point x="1298" y="374"/>
      <point x="1287" y="463" type="curve"/>
      <point x="1277" y="463" type="line"/>
      <point x="1261" y="405"/>
      <point x="1233" y="361"/>
      <point x="1166" y="361" type="curve" smooth="yes"/>
      <point x="1114" y="361" type="line" smooth="yes"/>
      <point x="978" y="361"/>
      <point x="913" y="308"/>
      <point x="913" y="242" type="curve" smooth="yes"/>
      <point x="913" y="163"/>
      <point x="1098" y="198"/>
      <point x="1098" y="154" type="curve" smooth="yes"/>
      <point x="1098" y="119"/>
      <point x="846" y="64"/>
      <point x="635" y="64" type="curve" smooth="yes"/>
      <point x="378" y="64"/>
      <point x="194" y="147"/>
      <point x="194" y="325" type="curve" smooth="yes"/>
      <point x="194" y="376"/>
      <point x="208" y="435"/>
      <point x="241" y="503" type="curve"/>
      <point x="232" y="506" type="line"/>
      <point x="175" y="426"/>
      <point x="150" y="351"/>
      <point x="150" y="285" type="curve" smooth="yes"/>
      <point x="150" y="115"/>
      <point x="327" y="-22"/>
      <point x="597" y="-22" type="curve" smooth="yes"/>
      <point x="881" y="-22"/>
      <point x="1129" y="68"/>
      <point x="1129" y="181" type="curve" smooth="yes"/>
      <point x="1129" y="251"/>
      <point x="941" y="214"/>
      <point x="941" y="271" type="curve" smooth="yes"/>
      <point x="941" y="279"/>
      <point x="954" y="295"/>
      <point x="1025" y="295" type="curve" smooth="yes"/>
    </contour>
  </outline>
</glyph>
<glyph name="radiAllaahuAnhum-ar" format="2">
  <advance width="2143"/>
  <unicode hex="FD43"/>
  <outline>
    <component base="_damma.cal" xOffset="342" yOffset="953"/>
    <component base="_dot2h" xScale="0.6" yScale="0.6" xOffset="1264" yOffset="-112"/>
    <component base="_dot1" xScale="0.6" yScale="0.6" xOffset="1281" yOffset="722"/>
    <component base="_fatha-kasra.cal" xOffset="1088" yOffset="543"/>
    <component base="_fatha-kasra.cal" xOffset="1468" yOffset="-338"/>
    <component base="_damma.cal" xOffset="607" yOffset="1206"/>
    <component base="_dot1" xScale="0.6" yScale="0.6" xOffset="1707" yOffset="1059"/>
    <component base="_allah.cal" xOffset="630" yOffset="803"/>
    <contour>
      <point x="775" y="-65" type="curve" smooth="yes"/>
      <point x="1059" y="-65"/>
      <point x="1307" y="5"/>
      <point x="1307" y="118" type="curve" smooth="yes"/>
      <point x="1307" y="188"/>
      <point x="1119" y="151"/>
      <point x="1119" y="208" type="curve" smooth="yes"/>
      <point x="1119" y="216"/>
      <point x="1132" y="232"/>
      <point x="1203" y="232" type="curve" smooth="yes"/>
      <point x="1344" y="232" type="line" smooth="yes"/>
      <point x="1418" y="232"/>
      <point x="1432" y="266"/>
      <point x="1451" y="305" type="curve"/>
      <point x="1444" y="299" type="line"/>
      <point x="1462" y="251"/>
      <point x="1522" y="223"/>
      <point x="1624" y="223" type="curve" smooth="yes"/>
      <point x="1793" y="223"/>
      <point x="1993" y="295"/>
      <point x="1993" y="449" type="curve" smooth="yes"/>
      <point x="1993" y="498"/>
      <point x="1961" y="532"/>
      <point x="1907" y="532" type="curve" smooth="yes"/>
      <point x="1802" y="532"/>
      <point x="1600" y="338"/>
      <point x="1551" y="285" type="curve"/>
      <point x="1582" y="283" type="line"/>
      <point x="1667" y="370"/>
      <point x="1825" y="475"/>
      <point x="1866" y="475" type="curve" smooth="yes"/>
      <point x="1919" y="475"/>
      <point x="1962" y="445"/>
      <point x="1962" y="410" type="curve" smooth="yes"/>
      <point x="1962" y="346"/>
      <point x="1788" y="289"/>
      <point x="1611" y="289" type="curve" smooth="yes"/>
      <point x="1549" y="289"/>
      <point x="1469" y="305"/>
      <point x="1458" y="387" type="curve"/>
      <point x="1449" y="387" type="line"/>
      <point x="1437" y="342"/>
      <point x="1419" y="298"/>
      <point x="1344" y="298" type="curve" smooth="yes"/>
      <point x="1292" y="298" type="line" smooth="yes"/>
      <point x="1156" y="298"/>
      <point x="1091" y="245"/>
      <point x="1091" y="179" type="curve" smooth="yes"/>
      <point x="1091" y="100"/>
      <point x="1276" y="135"/>
      <point x="1276" y="91" type="curve" smooth="yes"/>
      <point x="1276" y="56"/>
      <point x="1024" y="1"/>
      <point x="813" y="1" type="curve" smooth="yes"/>
      <point x="556" y="1"/>
      <point x="372" y="84"/>
      <point x="372" y="263" type="curve" smooth="yes"/>
      <point x="372" y="314"/>
      <point x="386" y="373"/>
      <point x="419" y="440" type="curve"/>
      <point x="410" y="443" type="line"/>
      <point x="353" y="364"/>
      <point x="328" y="290"/>
      <point x="328" y="223" type="curve" smooth="yes"/>
      <point x="328" y="52"/>
      <point x="504" y="-65"/>
    </contour>
    <contour>
      <point x="1598" y="-237" type="curve" smooth="yes"/>
      <point x="1758" y="-237"/>
      <point x="1907" y="-102"/>
      <point x="1907" y="58" type="curve" smooth="yes"/>
      <point x="1907" y="101"/>
      <point x="1880" y="143"/>
      <point x="1830" y="175" type="curve"/>
      <point x="1812" y="109" type="line"/>
      <point x="1850" y="90"/>
      <point x="1880" y="44"/>
      <point x="1880" y="23" type="curve" smooth="yes"/>
      <point x="1880" y="-91"/>
      <point x="1699" y="-200"/>
      <point x="1513" y="-200" type="curve" smooth="yes"/>
      <point x="1494" y="-200"/>
      <point x="1476" y="-197"/>
      <point x="1459" y="-192" type="curve"/>
      <point x="1455" y="-200" type="line"/>
      <point x="1489" y="-219"/>
      <point x="1543" y="-237"/>
    </contour>
    <contour>
      <point x="1615" y="577" type="curve"/>
      <point x="1703" y="610" type="line"/>
      <point x="1638" y="610"/>
      <point x="1569" y="708"/>
      <point x="1569" y="747" type="curve" smooth="yes"/>
      <point x="1569" y="774"/>
      <point x="1625" y="832"/>
      <point x="1688" y="832" type="curve" smooth="yes"/>
      <point x="1720" y="832"/>
      <point x="1753" y="825"/>
      <point x="1782" y="811" type="curve"/>
      <point x="1788" y="817" type="line"/>
      <point x="1765" y="865"/>
      <point x="1717" y="896"/>
      <point x="1663" y="896" type="curve" smooth="yes"/>
      <point x="1577" y="896"/>
      <point x="1527" y="774"/>
      <point x="1527" y="700" type="curve" smooth="yes"/>
      <point x="1527" y="672"/>
      <point x="1569" y="598"/>
    </contour>
    <contour>
      <point x="1533" y="963" type="curve"/>
      <point x="1546" y="965"/>
      <point x="1558" y="977"/>
      <point x="1562" y="998" type="curve" smooth="yes"/>
      <point x="1595" y="1183"/>
      <point x="1568" y="1473"/>
      <point x="1574" y="1662" type="curve"/>
      <point x="1526" y="1592" type="line"/>
      <point x="1520" y="1404"/>
      <point x="1539" y="1245"/>
    </contour>
    <contour>
      <point x="1022" y="527" type="curve" smooth="yes"/>
      <point x="945" y="527"/>
      <point x="927" y="562"/>
      <point x="927" y="619" type="curve"/>
      <point x="927" y="631"/>
      <point x="928" y="645"/>
      <point x="929" y="659" type="curve"/>
      <point x="907" y="640" type="line"/>
      <point x="892" y="611"/>
      <point x="884" y="580"/>
      <point x="884" y="551" type="curve" smooth="yes"/>
      <point x="884" y="498"/>
      <point x="914" y="455"/>
      <point x="991" y="455" type="curve" smooth="yes"/>
      <point x="1113" y="455"/>
      <point x="1238" y="490"/>
      <point x="1372" y="623" type="curve"/>
      <point x="1353" y="622" type="line"/>
      <point x="1365" y="563"/>
      <point x="1478" y="541"/>
      <point x="1584" y="541" type="curve" smooth="yes"/>
      <point x="1736" y="541"/>
      <point x="1815" y="589"/>
      <point x="1901" y="654" type="curve"/>
      <point x="1912" y="701" type="line"/>
      <point x="1762" y="623"/>
      <point x="1715" y="607"/>
      <point x="1584" y="607" type="curve" smooth="yes"/>
      <point x="1515" y="607"/>
      <point x="1376" y="624"/>
      <point x="1376" y="666" type="curve" smooth="yes"/>
      <point x="1376" y="670"/>
      <point x="1376" y="673"/>
      <point x="1377" y="677" type="curve"/>
      <point x="1368" y="679" type="line"/>
      <point x="1346" y="559"/>
      <point x="1118" y="527"/>
    </contour>
    <contour>
      <point x="178" y="488" type="curve" smooth="yes"/>
      <point x="460" y="488"/>
      <point x="473" y="775"/>
      <point x="523" y="775" type="curve" smooth="yes"/>
      <point x="542" y="775"/>
      <point x="574" y="675"/>
      <point x="574" y="633" type="curve" smooth="yes"/>
      <point x="574" y="629"/>
      <point x="572" y="627"/>
      <point x="567" y="627" type="curve" smooth="yes"/>
      <point x="527" y="627"/>
      <point x="460" y="668"/>
      <point x="469" y="689" type="curve"/>
      <point x="424" y="636" type="line"/>
      <point x="428" y="612"/>
      <point x="500" y="561"/>
      <point x="565" y="561" type="curve" smooth="yes"/>
      <point x="583" y="561"/>
      <point x="610" y="597"/>
      <point x="610" y="638" type="curve" smooth="yes"/>
      <point x="610" y="733"/>
      <point x="555" y="810"/>
      <point x="529" y="810" type="curve" smooth="yes"/>
      <point x="443" y="810"/>
      <point x="389" y="503"/>
      <point x="100" y="503" type="curve"/>
      <point x="100" y="494" type="line"/>
      <point x="121" y="489"/>
      <point x="147" y="488"/>
    </contour>
    <contour>
      <point x="715" y="565" type="curve" smooth="yes"/>
      <point x="819" y="565"/>
      <point x="909" y="664"/>
      <point x="909" y="773" type="curve" smooth="yes"/>
      <point x="909" y="787"/>
      <point x="890" y="909"/>
      <point x="844" y="909" type="curve" smooth="yes"/>
      <point x="794" y="909"/>
      <point x="732" y="806"/>
      <point x="732" y="740" type="curve" smooth="yes"/>
      <point x="732" y="657"/>
      <point x="841" y="614"/>
      <point x="918" y="614" type="curve" smooth="yes"/>
      <point x="982" y="614"/>
      <point x="1017" y="644"/>
      <point x="1017" y="708" type="curve" smooth="yes"/>
      <point x="1017" y="768"/>
      <point x="999" y="827"/>
      <point x="800" y="942" type="curve"/>
      <point x="771" y="882" type="line"/>
      <point x="909" y="825"/>
      <point x="993" y="740"/>
      <point x="993" y="713" type="curve" smooth="yes"/>
      <point x="993" y="690"/>
      <point x="967" y="680"/>
      <point x="932" y="680" type="curve" smooth="yes"/>
      <point x="862" y="680"/>
      <point x="756" y="719"/>
      <point x="756" y="764" type="curve" smooth="yes"/>
      <point x="756" y="782"/>
      <point x="796" y="846"/>
      <point x="826" y="846" type="curve" smooth="yes"/>
      <point x="862" y="846"/>
      <point x="885" y="786"/>
      <point x="885" y="770" type="curve" smooth="yes"/>
      <point x="885" y="746"/>
      <point x="807" y="631"/>
      <point x="715" y="631" type="curve" smooth="yes"/>
      <point x="594" y="631"/>
      <point x="581" y="810"/>
      <point x="529" y="810" type="curve"/>
      <point x="594" y="635" type="line"/>
      <point x="620" y="591"/>
      <point x="650" y="565"/>
    </contour>
  </outline>
</glyph>
